<svg xmlns="http://www.w3.org/2000/svg" xmlns:xlink="http://www.w3.org/1999/xlink" width="193.183" height="191.458" viewBox="0 0 193.183 191.458">
  <defs>
    <clipPath id="clip-path">
      <rect id="Rectangle_5923" data-name="Rectangle 5923" width="140.232" height="140.232" fill="#fff"/>
    </clipPath>
  </defs>
  <g id="Groupe_4053" data-name="Groupe 4053" transform="translate(-5121.393 9941.862)">
    <g id="Groupe_4048" data-name="Groupe 4048" transform="translate(5116.182 -9941.862)">
      <path id="Tracé_23549" data-name="Tracé 23549" d="M119.847-441.179c-20.9-26.443,1.287-36.213,44.341-36.213s76.138,7.5,105.617,16.647,32.366,15.822,13.745,26.231-31.062,28.338-71.987,26.672S140.745-414.737,119.847-441.179Z" transform="translate(-96.864 599.192)" fill="#e8f1fd"/>
      <g id="giftbox" transform="translate(43.687 0)">
        <path id="Tracé_22573" data-name="Tracé 22573" d="M37.227,187.117h92.266v13.409H37.227Zm0,0" transform="translate(-17.642 -77.821)" fill="#efb025"/>
        <g id="Logo_Sently_VF" data-name="Logo Sently VF" transform="translate(51.929 93.146)">
          <g id="Groupe_4170" data-name="Groupe 4170" transform="translate(0)">
            <g id="Groupe_4172" data-name="Groupe 4172">
              <rect id="Rectangle_5931" data-name="Rectangle 5931" width="33.945" height="33.945" rx="16.973" fill="#478bef"/>
              <g id="Groupe_4181" data-name="Groupe 4181" transform="translate(6.421 11.689)">
                <rect id="Rectangle_5932" data-name="Rectangle 5932" width="21.27" height="10.089" rx="5.045" transform="translate(0)" fill="#fff" opacity="0.4"/>
                <path id="Tracé_22631" data-name="Tracé 22631" d="M4.893,0H8.21A4.97,4.97,0,0,1,13.1,5.045,4.97,4.97,0,0,1,8.21,10.089H4.893A4.97,4.97,0,0,1,0,5.045,4.97,4.97,0,0,1,4.893,0Z" transform="translate(0)" fill="#fff"/>
              </g>
            </g>
          </g>
        </g>
        <path id="Tracé_22572" data-name="Tracé 22572" d="M125.5,244.47H41.224c-2.208,0-4-1.5-4-3.349v-54h92.266v54c0,1.85-1.79,3.349-4,3.349Zm0,0" transform="translate(-17.642 -66.737)" fill="#ffc73b"/>
        <path id="Tracé_22587" data-name="Tracé 22587" d="M215.234,214.836h17.192v57.352H215.234Zm0,0" transform="translate(-158.112 -94.455)" fill="#ff4440"/>
        <path id="Tracé_22588" data-name="Tracé 22588" d="M215.234,214.836h17.192v2.325H215.234Zm0,0" transform="translate(-158.112 -94.455)" fill="#ea2f2f"/>
        <g id="Logo_Sently_VF-2" data-name="Logo Sently VF" transform="translate(44.683 38.802)" opacity="0.65">
          <g id="Groupe_4170-2" data-name="Groupe 4170" transform="translate(0)">
            <g id="Groupe_4172-2" data-name="Groupe 4172">
              <rect id="Rectangle_5931-2" data-name="Rectangle 5931" width="33.945" height="33.945" rx="16.973" fill="#e2001a"/>
              <g id="Groupe_4181-2" data-name="Groupe 4181" transform="translate(6.421 11.689)">
                <rect id="Rectangle_5932-2" data-name="Rectangle 5932" width="21.27" height="10.089" rx="5.045" transform="translate(0)" fill="#fff" opacity="0.4"/>
                <path id="Tracé_22631-2" data-name="Tracé 22631" d="M4.893,0H8.21A4.97,4.97,0,0,1,13.1,5.045,4.97,4.97,0,0,1,8.21,10.089H4.893A4.97,4.97,0,0,1,0,5.045,4.97,4.97,0,0,1,4.893,0Z" transform="translate(0)" fill="#fff"/>
              </g>
            </g>
          </g>
        </g>
        <g id="Logo_Sently_VF-3" data-name="Logo Sently VF" transform="translate(0 38.645)" opacity="0.76">
          <g id="Groupe_4170-3" data-name="Groupe 4170" transform="translate(0)">
            <g id="Groupe_4172-3" data-name="Groupe 4172">
              <rect id="Rectangle_5931-3" data-name="Rectangle 5931" width="28.064" height="28.064" rx="14.032" fill="#41d1cc"/>
              <g id="Groupe_4181-3" data-name="Groupe 4181" transform="translate(5.309 9.664)">
                <rect id="Rectangle_5932-3" data-name="Rectangle 5932" width="17.585" height="8.341" rx="4.171" transform="translate(0)" fill="#fff" opacity="0.4"/>
                <path id="Tracé_22631-3" data-name="Tracé 22631" d="M4.045,0H6.787a4.109,4.109,0,0,1,4.045,4.171A4.109,4.109,0,0,1,6.787,8.341H4.045A4.109,4.109,0,0,1,0,4.171,4.109,4.109,0,0,1,4.045,0Z" transform="translate(0)" fill="#fff"/>
              </g>
            </g>
          </g>
        </g>
        <g id="Logo_Sently_VF-4" data-name="Logo Sently VF" transform="translate(102.651 61.747)" opacity="0.81">
          <g id="Groupe_4170-4" data-name="Groupe 4170" transform="translate(0 0)">
            <g id="Groupe_4172-4" data-name="Groupe 4172">
              <rect id="Rectangle_5931-4" data-name="Rectangle 5931" width="27.907" height="27.907" rx="13.953" fill="#f9d048"/>
              <g id="Groupe_4181-4" data-name="Groupe 4181" transform="translate(5.279 9.61)">
                <rect id="Rectangle_5932-4" data-name="Rectangle 5932" width="17.487" height="8.295" rx="4.147" transform="translate(0)" fill="#fff" opacity="0.4"/>
                <path id="Tracé_22631-4" data-name="Tracé 22631" d="M4.022,0H6.749a4.086,4.086,0,0,1,4.022,4.147A4.086,4.086,0,0,1,6.749,8.295H4.022A4.086,4.086,0,0,1,0,4.147,4.086,4.086,0,0,1,4.022,0Z" transform="translate(0)" fill="#fff"/>
              </g>
            </g>
          </g>
        </g>
        <g id="Logo_Sently_VF-5" data-name="Logo Sently VF" transform="translate(96.612 15.142)" opacity="0.56">
          <g id="Groupe_4170-5" data-name="Groupe 4170" transform="translate(0)">
            <g id="Groupe_4172-5" data-name="Groupe 4172">
              <path id="Tracé_30296" data-name="Tracé 30296" d="M13.707,0A13.707,13.707,0,1,1,0,13.707,13.707,13.707,0,0,1,13.707,0Z" fill="#3d68c5"/>
              <g id="Groupe_4181-5" data-name="Groupe 4181" transform="translate(5.186 9.44)">
                <rect id="Rectangle_5932-5" data-name="Rectangle 5932" width="17.178" height="8.148" rx="4.074" transform="translate(0)" fill="#fff" opacity="0.4"/>
                <path id="Tracé_22631-5" data-name="Tracé 22631" d="M3.951,0H6.63a4.014,4.014,0,0,1,3.951,4.074A4.014,4.014,0,0,1,6.63,8.148H3.951A4.014,4.014,0,0,1,0,4.074,4.014,4.014,0,0,1,3.951,0Z" transform="translate(0)" fill="#fff"/>
              </g>
            </g>
          </g>
        </g>
        <g id="Logo_Sently_VF-6" data-name="Logo Sently VF" transform="translate(26.568 0)" opacity="0.76">
          <g id="Groupe_4170-6" data-name="Groupe 4170" transform="translate(0)">
            <g id="Groupe_4172-6" data-name="Groupe 4172">
              <path id="Tracé_30297" data-name="Tracé 30297" d="M9.2,0A9.2,9.2,0,1,1,0,9.2,9.2,9.2,0,0,1,9.2,0Z" fill="#535461"/>
              <g id="Groupe_4181-6" data-name="Groupe 4181" transform="translate(3.481 6.337)">
                <rect id="Rectangle_5932-6" data-name="Rectangle 5932" width="11.532" height="5.47" rx="2.735" transform="translate(0)" fill="#fff" opacity="0.4"/>
                <path id="Tracé_22631-6" data-name="Tracé 22631" d="M2.653,0h1.8A2.7,2.7,0,0,1,7.1,2.735,2.7,2.7,0,0,1,4.451,5.47h-1.8A2.7,2.7,0,0,1,0,2.735,2.7,2.7,0,0,1,2.653,0Z" transform="translate(0)" fill="#fff"/>
              </g>
            </g>
          </g>
        </g>
      </g>
      <g id="Groupe_4047" data-name="Groupe 4047" transform="translate(0 151.542) rotate(-51)">
        <path id="Tracé_22647" data-name="Tracé 22647" d="M98.885,2.942V18.158A2.943,2.943,0,0,1,95.941,21.1h-93A2.941,2.941,0,0,1,0,18.157V2.942A2.941,2.941,0,0,1,2.942,0h93A2.943,2.943,0,0,1,98.885,2.942Zm0,0" transform="translate(0 20.394)" fill="#ffc73b"/>
        <path id="Tracé_22650" data-name="Tracé 22650" d="M28.568.684,0,14.251,5.488,29.011l30.493-8.393a7.051,7.051,0,0,0,4.737-9.255L38.2,4.6A7.05,7.05,0,0,0,28.568.684Zm0,0" transform="translate(49.442 0)" fill="#ff4440"/>
        <path id="Tracé_22651" data-name="Tracé 22651" d="M12.593.684,41.162,14.252,35.674,29.011,5.182,20.617A7.051,7.051,0,0,1,.445,11.363L2.961,4.6A7.05,7.05,0,0,1,12.593.684Zm0,0" transform="translate(8.28 0)" fill="#ff4440"/>
        <path id="Tracé_22652" data-name="Tracé 22652" d="M13.4,0H4.44A4.44,4.44,0,0,0,0,4.441V17.457A4.44,4.44,0,0,0,4.44,21.9H13.4a4.44,4.44,0,0,0,4.44-4.441V4.441A4.44,4.44,0,0,0,13.4,0Zm0,0" transform="translate(40.522 9.179)" fill="#ea2f2f"/>
      </g>
    </g>
  </g>
</svg>
