<svg width="330" height="197" xmlns="http://www.w3.org/2000/svg">
  <defs>
    <radialGradient fx="50%" fy="50%" id="a">
      <stop stop-color="#E0E0E0" stop-opacity=".8" offset="0%"/>
      <stop stop-color="#FFF" stop-opacity="0" offset="100%"/>
    </radialGradient>
    <linearGradient x1="50%" y1="100%" x2="50%" y2="0%" id="b">
      <stop stop-color="#FFF" offset="0%"/>
      <stop stop-color="#FCFCFC" offset="38.29%"/>
      <stop stop-color="#F1F1F1" offset="70.21%"/>
      <stop stop-color="#E0E0E0" offset="99.82%"/>
      <stop stop-color="#E0E0E0" offset="100%"/>
    </linearGradient>
    <linearGradient x1="50%" y1="100%" x2="50%" y2="0%" id="c">
      <stop stop-color="#FFF" offset="0%"/>
      <stop stop-color="#FCFCFC" offset="38.29%"/>
      <stop stop-color="#F1F1F1" offset="70.21%"/>
      <stop stop-color="#E0E0E0" offset="99.82%"/>
      <stop stop-color="#E0E0E0" offset="100%"/>
    </linearGradient>
    <linearGradient x1="50%" y1="100%" x2="50%" y2="0%" id="d">
      <stop stop-color="#FFF" offset="0%"/>
      <stop stop-color="#F5F5F5" offset="100%"/>
    </linearGradient>
    <linearGradient x1="50%" y1="100%" x2="50%" y2="0%" id="e">
      <stop stop-color="#FFF" offset="0%"/>
      <stop stop-color="#EEE" offset="100%"/>
    </linearGradient>
    <linearGradient x1="50%" y1="100%" x2="50%" y2="0%" id="f">
      <stop stop-color="#FFF" offset="0%"/>
      <stop stop-color="#E0E0E0" stop-opacity=".8" offset="100%"/>
    </linearGradient>
    <radialGradient fx="50%" fy="50%" r="98.44%" gradientTransform="matrix(.40629 0 0 1 .297 0)" id="g">
      <stop stop-color="#FFF" stop-opacity="0" offset="0%"/>
      <stop stop-color="#FFF" stop-opacity=".922" offset="92.18%"/>
      <stop stop-color="#FFF" offset="100%"/>
    </radialGradient>
    <linearGradient x1="50%" y1="0%" x2="50%" y2="100%" id="h">
      <stop stop-color="#E0E0E0" offset="0%"/>
      <stop stop-color="#EEE" offset="100%"/>
    </linearGradient>
    <linearGradient x1="50%" y1="0%" x2="50%" y2="100%" id="i">
      <stop stop-color="#E0E0E0" offset="0%"/>
      <stop stop-color="#EEE" offset="100%"/>
    </linearGradient>
    <radialGradient cx="38.515%" cy="48.195%" fx="38.515%" fy="48.195%" r="75.173%" gradientTransform="matrix(.51724 0 0 1 .186 0)" id="j">
      <stop stop-color="#BDBDBD" stop-opacity=".8" offset="0%"/>
      <stop stop-color="#FFF" stop-opacity="0" offset="100%"/>
    </radialGradient>
  </defs>
  <g fill="none" fill-rule="evenodd">
    <path fill="#FFF" d="M0 0h330v197H0z"/>
    <g transform="translate(25)">
      <g transform="translate(137)" fill-rule="nonzero">
        <circle fill="url(#a)" cx="49" cy="49" r="49"/>
        <circle fill="#FFF" cx="49" cy="49" r="10.362"/>
      </g>
      <g fill-rule="nonzero">
        <path d="M88.054 36.446l-4.912-8.43v-6.785c0-.385-.07-.77-.245-1.12l-.912-1.958a2.439 2.439 0 0 1-.246-1.084v-7.24a.389.389 0 0 0-.386-.385h-1.719a.389.389 0 0 0-.386.384v13.956c0 .21-.175.385-.35.385l-1.72 3.008c-.21 0-.35-.175-.35-.385V6.121a.75.75 0 0 0-.386-.665L73.88 4.057c-.14-.07-.246-.21-.316-.35C73.53 3.638 71.32.42 71.25.316A.69.69 0 0 0 70.653 0h-2.35a.32.32 0 0 0-.28.14c-.036.035-3.123 2.833-3.158 2.868a.32.32 0 0 1-.28.14H62.48c-.176 0-.351.14-.351.35L60.936 21.51c0 .14-.105.244-.21.314l-1.895.91c-.105.035-.175.14-.21.245l-2.316 7.904a.341.341 0 0 1-.35.28h-2.21c-.702 0-1.334.28-1.825.805-1.122 1.224-3.262 3.532-4.35 4.756a2.84 2.84 0 0 0-.702 1.854c0 5.177.035 27.667.035 30.395 0 .21 41.852-.35 41.852-.35.21 0 .351-.175.351-.385l-.35-29.205c0-.945-.246-1.819-.702-2.588z" fill="url(#b)" transform="translate(0 51)"/>
        <path d="M132.782 34.382l-4.385-2.798V13.36c0-1.19-.631-2.169-1.368-2.169h-.421l-.105-.524c-.14-.945-.702-1.574-1.333-1.574h-6.245c-.772 0-1.403.944-1.403 2.098v17.034c0 1.05-2.807 4.232-2.807 4.232V19.272a.389.389 0 0 0-.386-.385h-1.017a.389.389 0 0 1-.386-.384v-2.764a.389.389 0 0 0-.386-.384h-1.473c-.737 0-1.298.979-1.298 2.203v4.057a.74.74 0 0 1-.737.735h-.947a.74.74 0 0 0-.737.735v11.437l-2.982 4.897-4.806 2.553c-.736 0-1.333.98-1.333 2.168 0 1.19-.316 21.93-.316 21.93l42.764-.699.14-20.286-8.033-10.703z" fill="url(#c)" transform="translate(0 51)"/>
        <path d="M249.076 56.312c-.842 0-1.403 0-1.964-.49-2.246-2.413-7.894-4.791-17.47-5.666-1.229-.105-2.316-.175-3.228-.175-3.649 0-4.806.595-5.227 1.015-.562.524-1.404.84-2.526.84l-7.052.524c-1.683.175-3.192 1.154-3.192 2.168 0 .595 0 1.05-.702 1.05-1.403 0-2.911-.595-5.963-3.043-5.087-3.883-7.894-5.002-10.525-5.002-2 .035-3.964.77-6.42 1.224-1.964.42-3.157.56-4.104.525-1.79-.035-2.35-.525-2.35-.525s-2.807-3.078-6.21-3.427c-3.368-.35-11.857-5.492-24.802-8.395-3.789-.874-7.192-1.294-10.104-1.294-7.367 0-11.857 1.819-11.857 1.819l-9.296 3.428c-.842.35-1.263.35-2.316.35-1.193 0-3.157-1.05-6.139-1.05H87.598s-29.96-5.246-35.257-5.246c-1.894 0-28.766 6.295-28.766 6.295H0v105.28h280.65V56.312H249.075z" fill="url(#d)" transform="translate(0 51)"/>
        <path d="M249.427 59.11c-8.35 0-8.876 2.798-17.54 2.798-9.508 0-15.892 1.4-24.557 1.4 0 0-22.312-6.471-27.364-7.31-6.104-.98-13.155-1.47-17.891-1.435-1.824 0-3.228.14-4.034.385-3.79 1.294-9.578 1.364-15.612 1.364-5.121 0-9.857.35-14.032.35-5.192 0-9.507-.315-12.559-1.924-6.77-3.777-27.223-8.22-34.099-8.22-6.455 0-18.593 1.435-27.012 2.52-5.263.664-9.297 1.328-11.577 1.328-2.28 0-5.192-2.098-9.823-2.098-4.63 0-10.173 3.008-10.173 3.008L0 51.766v83.593h280.65V59.11h-31.223z" fill="url(#e)" transform="translate(0 51)"/>
        <path d="M249.427 121.303l31.222.35v68.204H0v-72.751l23.504-1.854s36.344-3.743 59.638-3.743c23.294 0 44.553 9.41 67.216 9.41 22.662 0 40.098 3.707 60.374.594 5.649-.84 11.051-1.33 16.243-1.294 8.56.07 16.383 1.084 22.452 1.084z" fill="#FFF"/>
        <path d="M249.427 70.303l31.222.35v68.204H0V66.106l23.504-1.854s36.344-3.743 59.638-3.743c23.294 0 44.553 9.41 67.216 9.41 22.662 0 40.098 3.707 60.374.594 5.649-.84 11.051-1.33 16.243-1.294 8.56.07 16.383 1.084 22.452 1.084z" fill="url(#f)" transform="translate(0 51)"/>
        <path d="M249.076 56.312c-.842 0-1.403 0-1.964-.49-2.246-2.413-7.894-4.791-17.47-5.666-1.229-.105-2.316-.175-3.228-.175-3.649 0-4.806.595-5.227 1.015-.562.524-1.404.84-2.526.84l-7.052.524c-1.683.175-3.192 1.154-3.192 2.168 0 .595 0 1.05-.702 1.05-1.403 0-2.911-.595-5.963-3.043-5.087-3.883-7.894-5.002-10.525-5.002-2 .035-3.964.77-6.42 1.224-1.964.42-3.157.56-4.104.525-1.79-.035-2.35-.525-2.35-.525s-2.807-3.078-6.21-3.427c-3.368-.35-11.857-5.492-24.802-8.395-3.789-.874-7.192-1.294-10.104-1.294-7.367 0-11.857 1.819-11.857 1.819l-9.296 3.428c-.842.35-1.263.35-2.316.35-1.193 0-3.157-1.05-6.139-1.05H87.598s-29.96-5.246-35.257-5.246c-1.894 0-28.766 6.295-28.766 6.295H0v107.728h280.65V56.312h-31.574z" fill="url(#g)" transform="translate(0 51)"/>
      </g>
      <g fill="#FFF" fill-rule="nonzero">
        <path d="M125.719 133.646l-.597.07h-.176l-1.405-.174c-.176-.035-.352-.104-.457-.243l-.07-.07c-.246-.312-.211-.764.105-1.007l.597-.417a.742.742 0 0 1 .387-.139l.738-.034c.14 0 .28.034.386.104l.773.451a.786.786 0 0 1 .351.521l.035.174c0 .382-.28.73-.667.764zM229.016 126.699l-.597.07h-.176l-1.405-.174c-.176-.035-.352-.104-.457-.243l-.07-.07c-.281-.313-.211-.764.105-1.007l.562-.417a.742.742 0 0 1 .387-.14l.703-.034c.14 0 .28.035.421.104l.773.452c.211.104.316.313.352.521l.035.174a.703.703 0 0 1-.633.764zM52.849 127.81h.175l1.335-.173a.653.653 0 0 0 .422-.243l.07-.07c.246-.312.211-.799-.105-1.042l-.597-.486a.568.568 0 0 0-.246-.14l-.984-.242c-.176-.035-.316-.035-.492.07l-.878.52c-.14.104-.281.243-.317.417l-.105.278c-.07.382 1.722 1.112 1.722 1.112zM75.335 118.432h.176l1.335-.174a.842.842 0 0 0 .457-.243l.07-.07c.246-.312.21-.799-.105-1.042 0 0-.773-.59-.844-.625l-.983-.243c-.176-.035-.317-.035-.492.07l-.879.52c-.14.104-.28.243-.316.417l-.105.278c-.14.382 1.686 1.112 1.686 1.112zM168.232 126.074h-.175l-1.335-.174a.842.842 0 0 1-.457-.243l-.07-.07c-.246-.312-.211-.799.105-1.042l.597-.486c.07-.07.14-.104.246-.139l.984-.243c.176-.035.316-.035.492.07l.878.52c.14.105.281.244.317.417l.105.278c.14.382-1.687 1.112-1.687 1.112zM38.935 134.862l-1.721.243h-.141l-1.51-.243a.69.69 0 0 1-.458-.313c-.175-.277-.105-.66.106-.868l.316-.313c.105-.104.21-.173.351-.173l1.09-.14c.105 0 .175 0 .28.036l1.266.416c.175.07.316.209.386.382l.105.244c.036.07.07.139.106.173.21.174.105.521-.176.556zM100.14 148.201l-.562.486c-.105.105-.246.14-.386.174l-.843.104h-.176l-1.37-.139-1.722-.104a.654.654 0 0 1-.527-.313l-.422-.625a.725.725 0 0 1 .07-.868l1.266-1.25a.698.698 0 0 1 .491-.21h1.125c.07 0 .14 0 .21.036l2.074.66c.175.034.28.173.386.312l.492.834c.176.347.105.695-.105.903zM217.21 134.237l.563.556a.567.567 0 0 0 .386.173l.844.14h.175l1.37-.14 1.722-.104c.211 0 .422-.139.527-.313l.422-.694c.176-.313.14-.695-.07-.938l-1.265-1.39a.698.698 0 0 0-.492-.208h-1.124c-.07 0-.141 0-.211.035l-2.073.73c-.176.069-.281.173-.387.347l-.492.903c-.175.278-.105.66.106.903z"/>
      </g>
      <path d="M194.725 100.37v10.26c1.715.456 3.36.913 4.9 1.37v-5.973c1.82-.14 3.395-.913 4.585-2.213 3.115-3.338 2.8-9.206 2.765-9.838a1.73 1.73 0 0 0-1.855-1.617c-.98.07-1.68.914-1.645 1.863.105 1.37-.07 5.305-1.82 7.202-.525.562-1.33.738-2.03.738V75.46a2.44 2.44 0 0 0-2.45-2.459 2.44 2.44 0 0 0-2.45 2.46v21.08c-.63-.175-1.155-.421-1.644-.913-2.415-2.53-2.66-8.257-2.555-10.224a1.788 1.788 0 0 0-1.645-1.862c-.98-.036-1.785.773-1.855 1.756-.035.352-.42 8.573 3.535 12.754 1.155 1.195 2.555 2.038 4.164 2.32z" fill="url(#h)" fill-rule="nonzero"/>
      <path d="M220.213 97.566V113c1.607-.14 3.285-.28 5-.386v-10.909c10.175-1.122 11.71-17.995 11.782-18.731a1.753 1.753 0 0 0-1.642-1.894c-.964-.07-1.857.63-1.928 1.613 0 .14-1.357 13.89-8.213 15.224V81.78c5.035-.596 6.641-6.314 6.784-9.4a1.751 1.751 0 0 0-1.714-1.825c-.964-.035-1.82.702-1.856 1.649 0 .07-.286 4.84-3.214 5.683V55.543c0-1.263-.928-2.385-2.178-2.525-1.535-.176-2.82.982-2.82 2.455v38.234c-.536-.21-1.036-.42-1.5-.877-2.75-2.77-3.214-9.4-3.142-11.715.035-.983-.75-1.754-1.75-1.79h-.036c-.964 0-1.75.807-1.785 1.755 0 .385-.179 9.821 4.178 14.206 1.142 1.157 2.499 2 4.034 2.28z" fill="url(#i)" fill-rule="nonzero"/>
      <g fill-rule="nonzero">
        <path d="M50.273 142.617c0-4.29 1.745-7.884 2.182-8.617-.219.697-.728 2.017-.728 8.617h-1.454z" fill="#FFE082"/>
        <path d="M51 142.287c.255-3.154 2.873-6.6 3.636-7.187-.436.55-1.963 2.787-2.072 7.223 0 .257-.255.477-.51.477h-.509c-.327 0-.581-.257-.545-.513z" fill="#FC6"/>
        <path d="M51.727 143.35c.255-3.19 2.837-5.72 3.273-6.05-.364.403-1.636 2.603-1.782 6.123 0 .257-.218.477-.509.477H52.2a.503.503 0 0 1-.473-.55zM51.182 139.463c-.146-.843-.437-1.686-.8-2.493-.4-.807-.873-1.577-1.527-2.237.545.734.872 1.54 1.09 2.347.219.807.328 1.65.328 2.457 0 .366 0 .733-.037 1.063.364 1.21.582 2.567.291 3.74-.036.11.073.257.218.293.182.037.328-.073.364-.183.146-.77.255-1.577.291-2.347 0-.916-.073-1.76-.218-2.64z" fill="#FFD180"/>
        <path d="M49.873 142.727c-.11-3.704-1.418-5.647-1.782-6.16.436.403 2.982 3.373 3.273 6.086.036.257-.219.514-.51.514h-.472c-.291 0-.51-.184-.51-.44z" fill="#FFE082"/>
        <path d="M49.073 143.093c-.146-3.336-1.71-5.39-2.073-5.793.473.293 3.31 2.75 3.636 5.72.037.293-.218.513-.509.513h-.509c-.29 0-.509-.22-.545-.44z" fill="#FFD180"/>
      </g>
      <g fill-rule="nonzero">
        <path fill="#D7CCC8" d="M222.638 138.321l-9.127-11.49L192.798 123l-8.426 2.786-5.617 4.178.667 10.62 9.409 7.104 8.285 3.726 10.567-.348 14.604-9.262z"/>
        <path fill="#BCAAA4" d="M194.553 157.473h11.936l5.547-10.725-1.334-.07-11.585-1.044-1.51-.174zM178.755 129.964l5.266 6.965 1.229 9.297-.878 7.765-4.915-5.223z"/>
        <path fill="#CCBDB8" d="M222.287 141.804l-11.585 4.875-4.213 10.794 10.813-2.402z"/>
        <path fill="#B7A09A" d="M184.372 153.991l10.181 3.482 4.564-11.84-15.096-8.704z"/>
        <path fill="#D7CCC8" d="M57.287 138.67l-2.457 1.044 4.564 3.83h7.372l4.915-2.785-1.755-1.741-7.724-1.393z"/>
        <path fill="#B7A09A" d="M67.468 142.848h-8.777l-1.755 4.875 10.532.697z"/>
        <path fill="#BCAAA4" d="M54.83 139.714l4.915 3.134-2.809 4.875-3.862-.696-1.755-2.438z"/>
        <path fill="#CCBDB8" d="M71.68 140.759l-4.914 2.09.702 5.57 4.213-2.089z"/>
        <path fill="#D7CCC8" d="M70.628 144.241l-1.405 1.393 3.511 2.09h4.915l3.51-2.09-2.808-1.393-4.213-.348z"/>
        <path fill="#B7A09A" d="M78.351 147.027h-6.32l-.35 4.178h5.968z"/>
        <path fill="#BCAAA4" d="M69.223 145.634l3.511 1.393-1.053 4.178-3.862-2.437z"/>
        <path fill="#CCBDB8" d="M81.16 145.634l-3.511 1.393v4.178l4.213-2.089z"/>
        <g>
          <path fill="#D7CCC8" d="M46.755 141.804l-1.053.696 1.755 1.393h2.809l1.755-1.393-1.053-.696-2.457-.349z"/>
          <path fill="#B7A09A" d="M50.617 143.196h-3.51l-.352 2.438h3.862z"/>
          <path fill="#BCAAA4" d="M52.021 142.5l-1.755.696.351 2.438 1.755-1.393zM45.702 142.5l1.755.696-.702 2.438L45 144.24z"/>
        </g>
        <g>
          <path fill="#D7CCC8" d="M80.457 154.34l-.702.696 1.756 1.393h2.457l2.106-1.393-1.053-.697-2.808-.348z"/>
          <path fill="#B7A09A" d="M84.67 155.732H80.81l.35 2.438h3.16z"/>
          <path fill="#BCAAA4" d="M79.755 155.036l1.756.696-.351 2.438-2.107-1.393z"/>
          <path fill="#CCBDB8" d="M86.074 155.036l-2.106.696.351 2.438 2.107-1.045z"/>
        </g>
        <g>
          <path fill="#D7CCC8" d="M149.968 158.17l-1.053.696 1.404 1.393h3.16l1.755-1.393-1.404-1.045h-2.107z"/>
          <path fill="#B7A09A" d="M153.83 159.563h-3.862l.351 2.089 3.16.348z"/>
          <path fill="#BCAAA4" d="M148.915 158.866l1.404.697v2.089l-2.106-1.393zM155.234 158.866l-1.755.697V162l2.457-1.393z"/>
        </g>
        <g>
          <path fill="#D7CCC8" d="M57.287 146.33l-2.457 1.045 4.213 3.83h7.723l4.564-2.785-3.862-2.438-5.617-.696z"/>
          <path fill="#B7A09A" d="M67.468 150.509H58.34l.703 5.571h7.723z"/>
          <path fill="#BCAAA4" d="M54.83 147.375l4.213 3.134v5.571l-5.969-3.482z"/>
          <path fill="#CCBDB8" d="M71.33 148.42l-4.564 2.089v5.571l5.617-3.134z"/>
        </g>
        <g>
          <path fill="#D7CCC8" d="M169.277 145.286l-2.107 1.044 4.564 3.83h7.372l3.862-2.437-3.16-2.786-5.968-.696z"/>
          <path fill="#B7A09A" d="M180.16 149.464h-9.128v4.875h7.372z"/>
          <path fill="#BCAAA4" d="M167.17 146.33l4.564 3.134-.562 5.258-2.598-1.427zM182.968 147.723l-3.862 1.741-.702 4.875 4.564-1.74z"/>
        </g>
        <g>
          <path fill="#D7CCC8" d="M232.117 146.679l-1.755 1.392 3.861 2.09h4.915l3.51-2.09-2.808-1.392-4.563-.349z"/>
          <path fill="#B7A09A" d="M239.84 149.464h-6.319l.702 4.144 4.915.035z"/>
          <path fill="#BCAAA4" d="M230.362 148.071l3.861 1.393v4.144l-4.774-2.612zM242.649 148.071l-3.51 1.393v4.179l3.861-2.09z"/>
        </g>
        <g>
          <path fill="#D7CCC8" d="M218.777 149.812l-2.809 1.045 5.266 3.83h7.021l4.564-2.785-4.213-2.438-5.266-.348z"/>
          <path fill="#B7A09A" d="M228.957 153.991h-8.425v5.223l7.723-.348z"/>
          <path fill="#BCAAA4" d="M215.968 150.857l5.266 3.134-.702 5.223-5.968-3.134zM232.82 151.902l-4.565 2.09v4.874l5.617-2.09z"/>
        </g>
        <g>
          <path fill="#D7CCC8" d="M163.66 151.554l-1.756 1.74 3.51 1.045h5.267l3.51-1.74-2.457-1.045-4.213-.349z"/>
          <path fill="#B7A09A" d="M171.383 154.34h-6.32l-.35 4.178h5.968z"/>
          <path fill="#BCAAA4" d="M161.904 153.295l3.862 1.044-1.053 4.179-3.862-2.438zM174.191 152.598l-3.51 1.741v4.179l4.213-2.09z"/>
        </g>
      </g>
      <g fill-rule="nonzero">
        <path d="M184.258 156.25c0-5.95 2.59-10.885 3.194-11.9-.32.98-1.065 2.8-1.065 11.9h-2.129z" fill="#FFE082"/>
        <path d="M185.323 156.95c.354-4.62 3.654-9.66 4.612-10.5-.532.805-2.341 3.99-2.483 10.465 0 .385-.355.735-.71.735h-.674c-.39 0-.78-.315-.745-.7z" fill="#FC6"/>
        <path d="M186.742 156.53c.355-4.41 3.69-7.91 4.258-8.33-.461.56-2.342 3.57-2.484 8.435a.67.67 0 0 1-.674.665h-.461c-.355 0-.675-.35-.64-.77zM184.223 153.45c.851 1.575.39 4.55.39 4.55h1.064c.426 0 .746-.35.71-.77-.142-1.435-.213-2.485-.78-4.48-.746-2.695-1.988-6.055-4.223-8.575 2.235 4.55 2.768 8.75 2.839 9.275z" fill="#FFD180"/>
        <path d="M183.903 157.335c-.142-5.495-2.377-8.75-2.838-9.485.603.595 4.187 5.39 4.612 9.38a.703.703 0 0 1-.71.77h-.354c-.355 0-.674-.315-.71-.665z" fill="#FFE082"/>
        <path d="M182.839 156.985c-.178-4.865-2.307-8.225-2.839-8.785.639.42 4.187 4.375 4.613 8.68a.703.703 0 0 1-.71.77h-.355a.725.725 0 0 1-.71-.665z" fill="#FFD180"/>
      </g>
      <g fill-rule="nonzero">
        <path d="M215.753 139.025c-6.948-4.525-8.837-5.727-9.086-6.682-.214-.813 1.425-1.555 1.425-2.439 0-.389-.392-.848-.392-.848l-2.494.53s-4.882.106-6.984.106c-1.996 0-3.67-.354-3.67-.354h-1.426c0 .39.464 1.026 1.39 1.061.499.035 1.105.177 1.105.354 0 .318-.713.707-2.103.707-1.46 0-2.138-.354-2.173-.354h-1.782c0 1.167 1.64 2.121 3.92 2.121.534.743 1.46.707 2.85.707h4.205c1.247 0 2.601 0 4.81 1.344 5.701 3.394 7.554 2.475 9.621 4.454 1.853 1.768 1.14 4.667 1.14 4.667s1.604-4.101-.356-5.374z" fill="#000" opacity=".1"/>
        <path d="M207.166 128.667c-.179 0-.321.141-.856.389a2.312 2.312 0 0 1-.712.212s-1.14-3.253-4.347-4.066c-2.103-.53-1.14 1.096-1.14 1.096l1.21 2.545s.286 1.061.785.99c1.247-.212 1.746-.671 1.746-.671s.214 1.237 1.104 1.237c.891 0 2.138-.566 2.459-.813.214-.142.32-.283.32-.424-.035-.213-.32-.495-.57-.495zM193.66 123.717c.108.884.892 2.369.892 3.182 0 .636 0 1.697-.357 2.05 0 0-.213-.176-.463-.176a.615.615 0 0 0-.641.636c0 .212.32.354.855.354.285 0 .57-.036.82-.248.783-.636.605-1.732.712-2.934.036-.707.107-1.308.143-1.874a14.531 14.531 0 0 1-1.96-.99z" fill="#508E2F"/>
        <path d="M216.608 139.838c-.534-1.45-1.96-2.227-4.311-3.5-.749-.424-2.067-1.237-2.922-1.944-2.566-2.121-3.777-3.818-4.312-4.667-.25-.389-.82-1.379-.926-1.59-2.566-5.092-9.87-5.445-11.296-6.223-1.425-.778-.641-2.793-1.995-3.677-.214-.565-.606-.707-1.354-.813-.677-.07-.998-.07-1.354-.106-.463 0-1.782 0-1.782.707 0 0-.035.884.784 2.157.855 1.343 2.067 2.05 2.067 2.05l1.354 1.662 1.39 1.485-.072 1.414s2.744-.106 3.457.636c.677.743 2.458 2.086 4.311 2.616.57.142 1.07.283 1.532.283.749 0 1.247-.212 1.39-.283.036.107 3.136 3.465 6.164 5.48 1.39.92 4.276 2.157 4.74 2.404 1.353.778 2.173 1.414 2.53 2.334.605 1.59.427 2.97-.678 5.585-.712 1.768-.82 2.581-.926 3.394a7.351 7.351 0 0 1-.178 1.132c-.285 1.202-1.853 1.52-1.853 1.52s2.245.106 2.53-2.58c.071-.779.356-1.556 1.033-3.218 1.14-2.687 1.354-4.525.677-6.258z" fill="#27AA27"/>
        <path d="M191.844 124.07c-.5 0-.855.496-.855 1.238 0 .884.356 2.298.356 3.677 0 .742-.178 1.343-.356 1.626-.107-.106-.392-.177-.642-.177-.463 0-.82.354-.82.707 0 .177.143.354.713.354.5 0 .855-.106 1.07-.283.819-.566 1.21-1.52 1.282-2.722.071-1.06.142-1.803.142-2.652.036-.742.036-1.767-.89-1.767zM201.607 129.232c-.392-.707-1.425-1.732-2.993-2.192-.214-.07-.57-.141-1.212-.141-.784 0-1.425.141-1.425.742 0 .707.356 1.591 1.889 2.829.64.495.997.777 1.354 1.025-.143.141-.677.353-1.319.353h-1.924c-.428 0-.855.248-.998.495-.142.248 0 .566.285.53h.856c2.458 0 2.957-.035 4.026-.176.926-.141 1.176-.46 1.176-.813a.652.652 0 0 0-.071-.248c-.25-.53-.642-.883-.998-1.272a2.582 2.582 0 0 0 1.14-.39c.178-.105.25-.282.285-.494 0-.036-.035-.142-.071-.248z" fill="#59C12D"/>
        <path d="M189.67 118.343c-.534-.53-1.532-.212-1.532-.212s.926.071 1.033.39c.036.105 0 .176 0 .176s-.178-.035-.32.106c-.25.283 0 .636.285.672.213 0 .427 0 .605-.177.179-.141.321-.566-.07-.955z" fill="#357F19"/>
      </g>
      <ellipse fill="url(#j)" fill-rule="nonzero" cx="99" cy="132" rx="29" ry="15"/>
      <g stroke-linecap="round" stroke-width="1.5">
        <path d="M84.498 113.27c1.742.706 1.778 2.118 1.778 2.118M108.32 130.565s1.884-.741 3.2 0M114.009 124.212l1.778-1.412M101.209 104.447l1.778-1.412M93.031 106l-.355-2.259M86.489 122.447l-2.347-.353M114.72 114.33l.711-1.412" stroke="#BD8D5D"/>
        <path d="M95.164 111.859l-1.777.706M107.253 107.624l.356-1.412M106.08 117.859l1.173-1.412" stroke="#E3B37E"/>
        <path d="M100.498 123.153l2.133-.706M92.498 121.035l1.6-1.764M97.298 111.788l.355-2.4" stroke="#BD8D5D"/>
        <path d="M94.169 107.976h2.418" stroke="#E3B37E"/>
        <path d="M108.391 124.212l2.062-1.412" stroke="#BD8D5D"/>
        <path d="M111.769 118.918l.462-1.412M94.098 122.094L96.053 121M109.6 109.353l.498-2.082M93.742 130.565s12.445-6 12.445-14.118c0-7.412-3.2-9.176-3.2-9.176" stroke="#E3B37E"/>
        <path d="M93.742 130.635s6.507 1.977 11.022.353c3.912-1.412 7.112-6.035 7.112-10.27 0-2.824-.996-7.8-4.623-7.8M93.742 130.565s-3.698-12.989 11.378-21.53M93.742 130.565s5.334-7.765 7.111-14.118" stroke="#E3B37E"/>
        <path d="M93.742 130.565s-2.489-3.177-2.489-6.706c0-6 4.623-6.706 7.467-6.706 4.622 0 6.756 3.53 6.756 6.353" stroke="#E3B37E"/>
        <path d="M93.742 130.565s-6.755-3.741-6.755-10.236c0-4.588 3.662-6.705 6.044-6.705 2.133 0 3.556 1.058 3.556 1.058M93.742 130.565s5.867-.636 8.96-4.8c1.6-2.153 2.418-5.506 2.418-8.26 0-2.47-.462-4.587-2.204-4.587-.96 0-1.352.74-1.352 1.376 0 .741.712 1.094 1.067 1.094" stroke="#E3B37E"/>
        <path d="M95.52 109.741c-1.387 1.27-5.156 6.635-4.551 12.318.604 5.682 2.773 8.153 2.773 8.153" stroke="#E3B37E"/>
        <path d="M102.631 109.176s-.711-2.223-4.622-2.223c-5.689 0-9.956 6.67-9.956 11.753 0 7.376 5.725 11.894 5.725 11.894" stroke="#E3B37E"/>
        <path d="M103.982 106.565c7.93 1.623 13.05 11.506 8.036 17.717-5.014 6.212-18.276 6.283-18.276 6.283" stroke="#E3B37E"/>
        <path d="M93.707 130.565s-11.023-5.047-6.863-17.189c4.303-12.529 19.343-8.223 19.343-8.223M106.187 109.035s-4.267 16.941-12.445 21.53M111.022 113.73s-2.738 16.835-17.315 16.835" stroke="#BD8D5D"/>
        <path d="M108.533 110.094s4.445 17.506-6.969 20.859c-5.866 1.694-7.822-.353-7.822-.353M93.742 130.565s0-9.565 7.111-16.236" stroke="#BD8D5D"/>
        <path d="M114.009 111.506s5.155 14.153-7.111 19.8c-1.991.918-3.982 1.376-5.69 1.376-5.688 0-7.466-2.117-7.466-2.117M92.676 111.153S84 121.706 93.742 130.565" stroke="#BD8D5D"/>
        <path d="M93.742 130.565s-1.422-3.036-1.422-7.06c0-2.893.604-6.317 3.129-9.705 3.271-4.412 7.538-4.412 7.538-4.412" stroke="#BD8D5D"/>
      </g>
    </g>
  </g>
</svg>
