<svg xmlns="http://www.w3.org/2000/svg" xmlns:xlink="http://www.w3.org/1999/xlink" width="940" zoomAndPan="magnify"
  viewBox="0 0 705 591.000005" height="788" preserveAspectRatio="xMidYMid meet" version="1.0">
  <defs>
    <clipPath id="ae31d4d770">
      <path d="M 89 50.695312 L 561 50.695312 L 561 375 L 89 375 Z M 89 50.695312 " clip-rule="nonzero" />
    </clipPath>
    <clipPath id="972a1230e8">
      <path d="M 488 210 L 669 210 L 669 500.542969 L 488 500.542969 Z M 488 210 " clip-rule="nonzero" />
    </clipPath>
    <clipPath id="391c0d8746">
      <path d="M 64 352 L 206 352 L 206 500.542969 L 64 500.542969 Z M 64 352 " clip-rule="nonzero" />
    </clipPath>
  </defs>
  <path fill="#ffffff"
    d="M 440.757812 423.300781 L 454.25 423.300781 C 461.019531 423.300781 466.503906 428.792969 466.503906 435.570312 C 466.503906 442.347656 461.019531 447.84375 454.25 447.84375 L 223.320312 447.84375 C 216.554688 447.84375 211.066406 442.347656 211.066406 435.570312 C 211.066406 428.792969 216.554688 423.300781 223.320312 423.300781 L 440.757812 423.300781 "
    fill-opacity="1" fill-rule="nonzero" />
  <path fill="#ffffff"
    d="M 431.144531 374.253906 L 431.144531 423.332031 L 246.429688 423.332031 L 246.429688 374.253906 L 431.144531 374.253906 "
    fill-opacity="1" fill-rule="nonzero" />
  <path fill="#000000"
    d="M 431.144531 423.875 L 246.429688 423.875 C 246.128906 423.875 245.886719 423.632812 245.886719 423.332031 L 245.886719 374.253906 C 245.886719 373.953125 246.128906 373.710938 246.429688 373.710938 C 246.726562 373.710938 246.972656 373.953125 246.972656 374.253906 L 246.972656 422.789062 L 430.601562 422.789062 L 430.601562 374.253906 C 430.601562 373.953125 430.84375 373.710938 431.144531 373.710938 C 431.441406 373.710938 431.683594 373.953125 431.683594 374.253906 L 431.683594 423.332031 C 431.683594 423.632812 431.441406 423.875 431.144531 423.875 "
    fill-opacity="1" fill-rule="nonzero" />
  <path fill="#000000"
    d="M 454.25 448.382812 L 223.320312 448.382812 C 216.265625 448.382812 210.527344 442.636719 210.527344 435.570312 C 210.527344 428.507812 216.265625 422.761719 223.320312 422.761719 L 235.738281 422.761719 C 236.035156 422.761719 236.277344 423 236.277344 423.300781 C 236.277344 423.601562 236.035156 423.84375 235.738281 423.84375 L 223.320312 423.84375 C 216.863281 423.84375 211.609375 429.105469 211.609375 435.570312 C 211.609375 442.035156 216.863281 447.296875 223.320312 447.296875 L 454.25 447.296875 C 460.707031 447.296875 465.960938 442.035156 465.960938 435.570312 C 465.960938 429.105469 460.707031 423.84375 454.25 423.84375 L 440.757812 423.84375 C 440.457031 423.84375 440.214844 423.601562 440.214844 423.300781 C 440.214844 423 440.457031 422.761719 440.757812 422.761719 L 454.25 422.761719 C 461.304688 422.761719 467.046875 428.507812 467.046875 435.570312 C 467.046875 442.632812 461.304688 448.382812 454.25 448.382812 "
    fill-opacity="1" fill-rule="nonzero" />
  <path fill="#000000"
    d="M 424.261719 386.324219 L 253.308594 386.324219 C 253.011719 386.324219 252.769531 386.082031 252.769531 385.78125 C 252.769531 385.480469 253.011719 385.242188 253.308594 385.242188 L 424.261719 385.242188 C 424.558594 385.242188 424.804688 385.480469 424.804688 385.78125 C 424.804688 386.082031 424.558594 386.324219 424.261719 386.324219 "
    fill-opacity="1" fill-rule="nonzero" />
  <path fill="#ffffff"
    d="M 559.929688 348.136719 C 559.929688 362.554688 548.230469 374.238281 533.816406 374.226562 L 105.484375 373.773438 C 96.785156 373.773438 89.734375 366.710938 89.734375 358 L 89.734375 66.890625 C 89.734375 58.179688 96.785156 51.117188 105.484375 51.117188 L 544.175781 51.117188 C 552.875 51.117188 559.929688 58.179688 559.929688 66.890625 L 559.929688 348.136719 "
    fill-opacity="1" fill-rule="nonzero" />
  <path fill="#000000"
    d="M 559.929688 76.09375 L 89.734375 76.09375 C 89.433594 76.09375 89.191406 75.855469 89.191406 75.554688 C 89.191406 75.253906 89.433594 75.011719 89.734375 75.011719 L 559.929688 75.011719 C 560.226562 75.011719 560.46875 75.253906 560.46875 75.554688 C 560.46875 75.855469 560.226562 76.09375 559.929688 76.09375 "
    fill-opacity="1" fill-rule="nonzero" />
  <path fill="#000000"
    d="M 104.144531 60.5625 C 102.046875 60.5625 100.339844 62.269531 100.339844 64.371094 C 100.339844 66.472656 102.046875 68.183594 104.144531 68.183594 C 106.242188 68.183594 107.945312 66.472656 107.945312 64.371094 C 107.945312 62.269531 106.242188 60.5625 104.144531 60.5625 Z M 104.144531 69.265625 C 101.449219 69.265625 99.257812 67.070312 99.257812 64.371094 C 99.257812 61.671875 101.449219 59.476562 104.144531 59.476562 C 106.835938 59.476562 109.027344 61.671875 109.027344 64.371094 C 109.027344 67.070312 106.835938 69.265625 104.144531 69.265625 "
    fill-opacity="1" fill-rule="nonzero" />
  <path fill="#000000"
    d="M 116.824219 60.5625 C 114.726562 60.5625 113.019531 62.269531 113.019531 64.371094 C 113.019531 66.472656 114.726562 68.183594 116.824219 68.183594 C 118.917969 68.183594 120.625 66.472656 120.625 64.371094 C 120.625 62.269531 118.917969 60.5625 116.824219 60.5625 Z M 116.824219 69.265625 C 114.128906 69.265625 111.9375 67.070312 111.9375 64.371094 C 111.9375 61.671875 114.128906 59.476562 116.824219 59.476562 C 119.515625 59.476562 121.710938 61.671875 121.710938 64.371094 C 121.710938 67.070312 119.515625 69.265625 116.824219 69.265625 "
    fill-opacity="1" fill-rule="nonzero" />
  <path fill="#000000"
    d="M 129.5 60.5625 C 127.40625 60.5625 125.699219 62.269531 125.699219 64.371094 C 125.699219 66.472656 127.40625 68.183594 129.5 68.183594 C 131.597656 68.183594 133.304688 66.472656 133.304688 64.371094 C 133.304688 62.269531 131.597656 60.5625 129.5 60.5625 Z M 129.5 69.265625 C 126.808594 69.265625 124.617188 67.070312 124.617188 64.371094 C 124.617188 61.671875 126.808594 59.476562 129.5 59.476562 C 132.195312 59.476562 134.386719 61.671875 134.386719 64.371094 C 134.386719 67.070312 132.195312 69.265625 129.5 69.265625 "
    fill-opacity="1" fill-rule="nonzero" />
  <g clip-path="url(#ae31d4d770)">
    <path fill="#000000"
      d="M 522.695312 374.796875 L 105.484375 374.3125 C 96.5 374.3125 89.191406 366.996094 89.191406 358 L 89.191406 66.890625 C 89.191406 57.894531 96.5 50.574219 105.484375 50.574219 L 544.175781 50.574219 C 553.160156 50.574219 560.46875 57.894531 560.46875 66.890625 L 560.46875 215.789062 C 560.46875 216.089844 560.226562 216.332031 559.929688 216.332031 C 559.628906 216.332031 559.386719 216.089844 559.386719 215.789062 L 559.386719 66.890625 C 559.386719 58.492188 552.5625 51.660156 544.175781 51.660156 L 105.484375 51.660156 C 97.097656 51.660156 90.277344 58.492188 90.277344 66.890625 L 90.277344 358 C 90.277344 366.398438 97.097656 373.234375 105.484375 373.234375 L 522.695312 373.710938 C 522.996094 373.710938 523.238281 373.953125 523.238281 374.253906 C 523.238281 374.554688 522.996094 374.796875 522.695312 374.796875 "
      fill-opacity="1" fill-rule="nonzero" />
  </g>
  <path fill="#000000"
    d="M 441.320312 313.375 L 216.246094 313.375 C 215.945312 313.375 215.703125 313.132812 215.703125 312.832031 C 215.703125 312.535156 215.945312 312.292969 216.246094 312.292969 L 441.320312 312.292969 C 441.617188 312.292969 441.859375 312.535156 441.859375 312.832031 C 441.859375 313.132812 441.617188 313.375 441.320312 313.375 "
    fill-opacity="1" fill-rule="nonzero" />
  <path fill="#ffffff"
    d="M 635.636719 210.59375 L 637.085938 212.324219 C 653.496094 231.902344 662.800781 256.472656 663.480469 282.027344 C 665.0625 341.546875 667.792969 451.316406 667.449219 489.359375 C 667.398438 495.113281 662.726562 499.742188 656.980469 499.742188 L 597.382812 499.742188 C 593.347656 499.742188 591.09375 495.082031 593.597656 491.910156 L 602.339844 480.832031 L 613.734375 345.671875 L 567.796875 492.738281 C 566.3125 496.9375 562.347656 499.742188 557.902344 499.742188 L 494.347656 499.742188 C 490.183594 499.742188 487.972656 494.8125 490.738281 491.695312 L 502.496094 478.46875 L 587.417969 250.683594 L 635.636719 210.59375 "
    fill-opacity="1" fill-rule="nonzero" />
  <g clip-path="url(#972a1230e8)">
    <path fill="#000000"
      d="M 502.496094 478.46875 L 502.5 478.46875 Z M 613.730469 345.128906 C 613.769531 345.128906 613.800781 345.132812 613.835938 345.140625 C 614.105469 345.191406 614.292969 345.441406 614.273438 345.714844 L 602.878906 480.875 C 602.871094 480.984375 602.832031 481.082031 602.765625 481.167969 L 594.023438 492.25 C 592.976562 493.570312 592.792969 495.265625 593.527344 496.785156 C 594.261719 498.296875 595.703125 499.203125 597.382812 499.203125 L 656.980469 499.203125 C 662.40625 499.203125 666.859375 494.785156 666.910156 489.355469 C 667.246094 451.523438 664.566406 343.230469 662.9375 282.039062 C 662.265625 256.714844 652.9375 232.082031 636.671875 212.671875 L 635.566406 211.351562 L 587.875 251.011719 L 503 478.65625 C 502.980469 478.722656 502.945312 478.777344 502.898438 478.828125 L 491.144531 492.054688 C 490.007812 493.335938 489.738281 495.105469 490.441406 496.667969 C 491.140625 498.230469 492.636719 499.203125 494.347656 499.203125 L 557.902344 499.203125 C 562.113281 499.203125 565.882812 496.53125 567.285156 492.558594 L 613.214844 345.507812 C 613.285156 345.277344 613.5 345.128906 613.730469 345.128906 Z M 656.980469 500.285156 L 597.382812 500.285156 C 595.3125 500.285156 593.460938 499.125 592.554688 497.257812 C 591.648438 495.386719 591.882812 493.207031 593.171875 491.578125 L 601.8125 480.625 L 612.777344 350.542969 L 568.3125 492.902344 C 566.753906 497.328125 562.570312 500.285156 557.902344 500.285156 L 494.347656 500.285156 C 492.207031 500.285156 490.328125 499.070312 489.453125 497.113281 C 488.570312 495.15625 488.910156 492.941406 490.335938 491.335938 L 502.023438 478.183594 L 586.910156 250.496094 C 586.941406 250.40625 586.996094 250.332031 587.070312 250.269531 L 635.289062 210.175781 C 635.519531 209.988281 635.859375 210.019531 636.050781 210.246094 L 637.503906 211.976562 C 653.921875 231.570312 663.34375 256.445312 664.023438 282.011719 C 665.652344 343.207031 668.332031 451.515625 667.992188 489.363281 C 667.941406 495.386719 662.996094 500.285156 656.980469 500.285156 "
      fill-opacity="1" fill-rule="nonzero" />
  </g>
  <path fill="#000000"
    d="M 568.753906 483.464844 C 568.746094 483.464844 568.738281 483.464844 568.730469 483.464844 C 548.214844 482.597656 527.457031 481.039062 507.042969 478.835938 C 506.746094 478.800781 506.53125 478.535156 506.5625 478.238281 C 506.59375 477.9375 506.871094 477.722656 507.160156 477.757812 C 527.550781 479.960938 548.28125 481.519531 568.777344 482.382812 C 569.074219 482.394531 569.308594 482.648438 569.292969 482.949219 C 569.28125 483.238281 569.042969 483.464844 568.753906 483.464844 "
    fill-opacity="1" fill-rule="nonzero" />
  <path fill="#000000"
    d="M 646.730469 482.988281 C 633.144531 482.988281 619.515625 482.617188 606.019531 481.878906 C 605.722656 481.859375 605.492188 481.605469 605.511719 481.308594 C 605.527344 481.007812 605.792969 480.765625 606.078125 480.796875 C 626.035156 481.890625 646.28125 482.175781 666.253906 481.648438 C 666.53125 481.640625 666.804688 481.878906 666.8125 482.175781 C 666.820312 482.476562 666.582031 482.722656 666.285156 482.730469 C 659.789062 482.902344 653.265625 482.988281 646.730469 482.988281 "
    fill-opacity="1" fill-rule="nonzero" />
  <path fill="#000000"
    d="M 614.007812 344.390625 C 613.960938 344.390625 613.914062 344.382812 613.867188 344.371094 C 613.582031 344.296875 613.40625 344 613.484375 343.710938 L 626.082031 295.722656 C 627.457031 290.480469 629.171875 285.128906 633.636719 282.335938 C 633.890625 282.175781 634.222656 282.253906 634.382812 282.507812 C 634.539062 282.761719 634.464844 283.097656 634.210938 283.253906 C 630.078125 285.839844 628.503906 290.757812 627.128906 295.996094 L 614.53125 343.988281 C 614.464844 344.230469 614.246094 344.390625 614.007812 344.390625 "
    fill-opacity="1" fill-rule="nonzero" />
  <path fill="#ffffff"
    d="M 582.9375 116.746094 C 582.9375 116.746094 575.449219 141.148438 585.148438 143.238281 C 592.640625 144.851562 601.585938 141.097656 601.824219 140.539062 C 602.058594 139.980469 605.378906 124.667969 605.378906 124.667969 L 582.9375 116.746094 "
    fill-opacity="1" fill-rule="nonzero" />
  <path fill="#000000"
    d="M 583.296875 117.445312 C 582.460938 120.394531 578.710938 134.527344 582.140625 140.375 C 582.890625 141.65625 583.914062 142.417969 585.265625 142.710938 C 592.222656 144.207031 600.453125 140.886719 601.347656 140.25 C 601.640625 139.234375 603.480469 130.859375 604.746094 125.015625 Z M 589.105469 144.171875 C 587.722656 144.171875 586.34375 144.050781 585.035156 143.769531 C 583.394531 143.414062 582.105469 142.457031 581.207031 140.921875 C 577.148438 134.003906 582.203125 117.292969 582.421875 116.585938 C 582.464844 116.445312 582.5625 116.328125 582.695312 116.261719 C 582.828125 116.195312 582.980469 116.183594 583.117188 116.234375 L 605.558594 124.15625 C 605.816406 124.246094 605.964844 124.515625 605.90625 124.78125 C 605.351562 127.34375 602.566406 140.171875 602.324219 140.746094 C 601.949219 141.628906 595.476562 144.171875 589.105469 144.171875 "
    fill-opacity="1" fill-rule="nonzero" />
  <path fill="#ffffff"
    d="M 588.171875 137.347656 L 590.554688 155.992188 L 609.898438 155.207031 L 604.578125 127.488281 L 588.171875 137.347656 "
    fill-opacity="1" fill-rule="nonzero" />
  <path fill="#000000"
    d="M 590.550781 156.535156 C 590.28125 156.535156 590.050781 156.332031 590.015625 156.058594 L 587.636719 137.414062 C 587.597656 137.117188 587.808594 136.847656 588.105469 136.808594 C 588.402344 136.773438 588.671875 136.980469 588.710938 137.277344 L 591.027344 155.429688 L 609.246094 154.691406 L 604.046875 127.589844 C 603.992188 127.296875 604.183594 127.011719 604.476562 126.957031 C 604.773438 126.898438 605.054688 127.089844 605.109375 127.386719 L 610.429688 155.105469 C 610.457031 155.261719 610.417969 155.421875 610.320312 155.546875 C 610.222656 155.667969 610.074219 155.742188 609.917969 155.75 L 590.574219 156.535156 C 590.566406 156.535156 590.558594 156.535156 590.550781 156.535156 "
    fill-opacity="1" fill-rule="nonzero" />
  <path fill="#000000"
    d="M 602.335938 107.121094 C 602.335938 107.121094 599.777344 100.574219 589.003906 100.6875 C 584.957031 100.730469 582.648438 100.390625 581.34375 99.957031 C 578.691406 99.066406 575.75 100.382812 574.851562 103.035156 C 574.230469 104.882812 574.632812 107.222656 577.515625 109.972656 C 577.515625 109.972656 572.96875 114.039062 580.160156 117.875 C 580.160156 117.875 578.167969 123.675781 587.097656 124.957031 C 587.097656 124.957031 588.480469 122.054688 591.296875 123.6875 C 592.957031 124.644531 593.097656 128.503906 590.136719 131.925781 C 590.136719 131.925781 594.84375 141.332031 603.308594 141.230469 C 611.769531 141.128906 611.785156 131.195312 611.847656 127.933594 C 611.910156 124.667969 616.566406 115.863281 611 109.34375 C 607.65625 105.425781 602.335938 107.121094 602.335938 107.121094 "
    fill-opacity="1" fill-rule="nonzero" />
  <path fill="#ffffff"
    d="M 590.648438 125.429688 C 590.648438 125.429688 587.777344 123.664062 588.238281 129.210938 L 590.648438 125.429688 "
    fill-opacity="1" fill-rule="nonzero" />
  <path fill="#000000"
    d="M 588.238281 129.753906 C 587.960938 129.753906 587.722656 129.539062 587.699219 129.257812 C 587.5 126.882812 587.863281 125.449219 588.800781 124.871094 C 589.578125 124.390625 590.507812 124.707031 590.933594 124.964844 C 591.1875 125.125 591.265625 125.457031 591.109375 125.710938 C 590.953125 125.964844 590.621094 126.046875 590.367188 125.890625 C 590.355469 125.882812 589.761719 125.546875 589.363281 125.796875 C 589.117188 125.949219 588.5625 126.589844 588.777344 129.167969 C 588.800781 129.464844 588.578125 129.726562 588.28125 129.75 C 588.265625 129.753906 588.253906 129.753906 588.238281 129.753906 "
    fill-opacity="1" fill-rule="nonzero" />
  <path fill="#ffffff"
    d="M 549.539062 183.035156 L 544.222656 180.941406 L 536.191406 189.476562 C 536.191406 189.476562 510.382812 171.84375 497.414062 160.183594 C 484.449219 148.523438 472.050781 141.738281 468.960938 142.488281 C 465.875 143.246094 467.039062 147.539062 473.484375 151.257812 C 473.484375 151.257812 467.867188 152.800781 468.960938 157.53125 C 468.960938 157.53125 464.960938 157.621094 465.863281 163.359375 C 465.863281 163.359375 461.296875 165.816406 463.335938 170.90625 C 465.375 176 471.03125 176.144531 471.03125 176.144531 C 471.03125 176.144531 486.402344 194.285156 502.566406 210.097656 C 517.410156 224.617188 539.875 228.121094 558.339844 218.636719 C 564.105469 215.679688 569.445312 210.199219 573.140625 206.140625 L 549.539062 183.035156 "
    fill-opacity="1" fill-rule="nonzero" />
  <path fill="#000000"
    d="M 469.527344 142.972656 C 469.363281 142.972656 469.21875 142.988281 469.09375 143.015625 C 468.375 143.195312 467.96875 143.578125 467.886719 144.15625 C 467.679688 145.601562 469.429688 148.292969 473.757812 150.789062 C 473.945312 150.894531 474.046875 151.109375 474.019531 151.324219 C 473.996094 151.539062 473.839844 151.71875 473.628906 151.777344 C 473.417969 151.839844 468.527344 153.25 469.488281 157.410156 C 469.527344 157.570312 469.488281 157.734375 469.390625 157.863281 C 469.292969 157.992188 469.140625 158.070312 468.972656 158.074219 C 468.933594 158.074219 467.84375 158.121094 467.066406 159.066406 C 466.324219 159.964844 466.101562 161.382812 466.398438 163.277344 C 466.433594 163.503906 466.320312 163.730469 466.121094 163.839844 C 465.953125 163.929688 462.007812 166.136719 463.839844 170.707031 C 465.71875 175.398438 470.828125 175.597656 471.046875 175.605469 C 471.203125 175.605469 471.347656 175.675781 471.445312 175.792969 C 471.601562 175.976562 486.984375 194.097656 502.945312 209.710938 C 517.6875 224.132812 539.851562 227.523438 558.09375 218.15625 C 563.601562 215.328125 568.828125 210.046875 572.386719 206.160156 L 549.238281 183.5 L 544.363281 181.578125 L 536.585938 189.847656 C 536.402344 190.042969 536.105469 190.074219 535.886719 189.921875 C 535.628906 189.746094 509.898438 172.132812 497.054688 160.585938 C 484.632812 149.417969 472.925781 142.972656 469.527344 142.972656 Z M 536.414062 224.488281 C 523.925781 224.488281 511.582031 219.675781 502.1875 210.484375 C 487.039062 195.664062 472.410156 178.59375 470.769531 176.671875 C 469.601562 176.578125 464.753906 175.910156 462.832031 171.109375 C 460.980469 166.480469 464.203125 163.820312 465.277344 163.089844 C 465.011719 161.035156 465.335938 159.445312 466.246094 158.359375 C 466.925781 157.546875 467.765625 157.21875 468.328125 157.082031 C 467.910156 153.933594 470.273438 152.007812 472.238281 151.132812 C 468.621094 148.820312 466.515625 146.085938 466.8125 144.003906 C 466.960938 142.972656 467.679688 142.246094 468.835938 141.964844 C 472.230469 141.136719 484.953125 148.246094 497.777344 159.777344 C 509.714844 170.511719 532.863281 186.527344 536.117188 188.765625 L 543.828125 180.570312 C 543.980469 180.410156 544.214844 180.355469 544.421875 180.4375 L 549.738281 182.53125 C 549.804688 182.558594 549.867188 182.597656 549.917969 182.652344 L 573.519531 205.753906 C 573.722656 205.957031 573.734375 206.289062 573.539062 206.503906 C 569.921875 210.480469 564.4375 216.117188 558.589844 219.117188 C 551.5625 222.726562 543.957031 224.488281 536.414062 224.488281 "
    fill-opacity="1" fill-rule="nonzero" />
  <path fill="#000000"
    d="M 471.210938 176.9375 C 471.035156 176.9375 470.871094 176.859375 470.765625 176.707031 C 469.113281 174.335938 467.578125 171.851562 466.195312 169.3125 C 466.054688 169.050781 466.148438 168.71875 466.414062 168.578125 C 466.675781 168.4375 467.003906 168.53125 467.148438 168.796875 C 468.507812 171.296875 470.023438 173.753906 471.652344 176.085938 C 471.824219 176.332031 471.761719 176.671875 471.519531 176.839844 C 471.421875 176.90625 471.316406 176.9375 471.210938 176.9375 "
    fill-opacity="1" fill-rule="nonzero" />
  <path fill="#000000"
    d="M 471.734375 166.128906 C 471.605469 166.128906 471.480469 166.085938 471.375 165.996094 C 469.824219 164.644531 467.765625 163.925781 465.699219 164.015625 C 465.691406 164.015625 465.683594 164.015625 465.675781 164.015625 C 465.386719 164.015625 465.144531 163.789062 465.132812 163.5 C 465.121094 163.203125 465.351562 162.949219 465.652344 162.933594 C 467.972656 162.832031 470.328125 163.648438 472.085938 165.179688 C 472.3125 165.375 472.335938 165.71875 472.140625 165.941406 C 472.03125 166.066406 471.882812 166.128906 471.734375 166.128906 "
    fill-opacity="1" fill-rule="nonzero" />
  <path fill="#000000"
    d="M 476.125 161.542969 C 475.992188 161.542969 475.855469 161.492188 475.75 161.394531 C 473.902344 159.632812 471.496094 158.480469 468.96875 158.152344 C 468.671875 158.113281 468.460938 157.84375 468.5 157.542969 C 468.539062 157.25 468.808594 157.035156 469.105469 157.078125 C 471.863281 157.4375 474.484375 158.691406 476.496094 160.609375 C 476.714844 160.816406 476.722656 161.160156 476.515625 161.375 C 476.410156 161.484375 476.265625 161.542969 476.125 161.542969 "
    fill-opacity="1" fill-rule="nonzero" />
  <path fill="#000000"
    d="M 479.773438 155.832031 C 479.65625 155.832031 479.539062 155.792969 479.4375 155.714844 C 477.492188 154.1875 475.359375 152.902344 473.097656 151.902344 C 472.820312 151.78125 472.699219 151.460938 472.820312 151.1875 C 472.941406 150.917969 473.257812 150.789062 473.535156 150.910156 C 475.878906 151.949219 478.09375 153.277344 480.109375 154.863281 C 480.34375 155.050781 480.386719 155.386719 480.199219 155.625 C 480.09375 155.761719 479.933594 155.832031 479.773438 155.832031 "
    fill-opacity="1" fill-rule="nonzero" />
  <path fill="#ffffff"
    d="M 607.890625 100.328125 C 605.441406 99.03125 603.171875 98.441406 601.96875 100.011719 C 600.769531 101.578125 601.695312 104.464844 603.785156 105.683594 C 602.332031 104.757812 600.832031 103.804688 599.222656 103.433594 C 597.613281 103.0625 595.855469 103.425781 595.234375 104.691406 C 594.691406 105.808594 595.15625 107.347656 596.039062 108.550781 C 596.476562 109.140625 597 109.671875 597.566406 110.164062 C 596.492188 109.824219 595.28125 109.980469 594.617188 110.683594 C 593.492188 111.886719 593.472656 113.785156 594.613281 115.414062 C 595.578125 116.792969 597.328125 118.285156 599.003906 119.59375 C 600.863281 121.140625 602.304688 122.226562 604.957031 124.082031 C 601.949219 123.613281 596.773438 123.09375 597.199219 126.78125 C 597.800781 131.914062 620.699219 134.898438 624.273438 137.089844 C 630.960938 141.191406 636.144531 144.191406 636.144531 144.191406 C 639.210938 143.96875 650.984375 128.914062 652.855469 123.898438 C 650.042969 121.574219 626.445312 106.125 616.785156 100.402344 C 615.167969 99.441406 613.46875 98.464844 611.710938 98.226562 C 609.953125 97.988281 608.125 98.738281 607.890625 100.328125 "
    fill-opacity="1" fill-rule="nonzero" />
  <path fill="#000000"
    d="M 601.410156 124.292969 C 600.125 124.292969 598.859375 124.480469 598.199219 125.117188 C 597.808594 125.492188 597.660156 126.015625 597.738281 126.71875 C 598.089844 129.730469 608.679688 132.296875 615.6875 134 C 619.921875 135.027344 623.269531 135.839844 624.554688 136.628906 C 630.507812 140.277344 635.316406 143.085938 636.25 143.628906 C 639 142.964844 649.871094 129.625 652.207031 124.070312 C 648.304688 121.078125 625.960938 106.46875 616.511719 100.871094 C 615.101562 100.03125 613.347656 98.996094 611.636719 98.765625 C 610.207031 98.566406 608.613281 99.132812 608.425781 100.40625 C 608.398438 100.582031 608.289062 100.730469 608.136719 100.808594 C 607.976562 100.890625 607.789062 100.886719 607.636719 100.804688 C 604.960938 99.390625 603.246094 99.234375 602.398438 100.339844 C 602.011719 100.847656 601.886719 101.570312 602.046875 102.375 C 602.253906 103.429688 602.90625 104.425781 603.785156 105.042969 C 603.882812 105.101562 603.980469 105.167969 604.078125 105.230469 C 604.324219 105.386719 604.398438 105.714844 604.246094 105.964844 C 604.09375 106.21875 603.769531 106.300781 603.511719 106.152344 C 603.402344 106.089844 603.292969 106.019531 603.1875 105.945312 C 601.929688 105.144531 600.527344 104.289062 599.101562 103.960938 C 597.84375 103.671875 596.25 103.851562 595.722656 104.929688 C 595.316406 105.757812 595.613281 107.054688 596.476562 108.226562 C 596.84375 108.726562 597.316406 109.230469 597.921875 109.757812 C 598.113281 109.925781 598.164062 110.203125 598.039062 110.429688 C 597.910156 110.652344 597.644531 110.753906 597.402344 110.683594 C 596.472656 110.386719 595.492188 110.542969 595.011719 111.054688 C 594.058594 112.074219 594.078125 113.699219 595.058594 115.105469 C 596.050781 116.519531 597.976562 118.101562 599.339844 119.167969 C 601.175781 120.699219 602.617188 121.78125 605.269531 123.636719 C 605.476562 123.78125 605.554688 124.050781 605.460938 124.285156 C 605.367188 124.515625 605.125 124.652344 604.875 124.613281 C 604.195312 124.511719 602.789062 124.292969 601.410156 124.292969 Z M 636.144531 144.730469 C 636.050781 144.730469 635.953125 144.707031 635.871094 144.660156 C 635.820312 144.628906 630.609375 141.609375 623.988281 137.554688 C 622.847656 136.851562 619.410156 136.019531 615.433594 135.050781 C 605.046875 132.53125 597.070312 130.328125 596.664062 126.84375 C 596.542969 125.796875 596.804688 124.953125 597.445312 124.335938 C 598.605469 123.222656 600.8125 123.109375 602.890625 123.28125 C 601.234375 122.09375 600.0625 121.179688 598.65625 120.007812 C 597.136719 118.816406 595.234375 117.242188 594.171875 115.726562 C 592.886719 113.894531 592.910156 111.71875 594.222656 110.3125 C 594.671875 109.832031 595.34375 109.542969 596.089844 109.46875 C 595.914062 109.269531 595.75 109.070312 595.601562 108.871094 C 594.726562 107.683594 594.042969 105.898438 594.75 104.457031 C 595.539062 102.835938 597.625 102.507812 599.34375 102.90625 C 600.015625 103.0625 600.671875 103.3125 601.304688 103.613281 C 601.160156 103.28125 601.050781 102.9375 600.984375 102.585938 C 600.761719 101.46875 600.957031 100.4375 601.539062 99.679688 C 603.113281 97.625 606.03125 98.789062 607.550781 99.542969 C 608.203125 98.050781 610.097656 97.464844 611.785156 97.691406 C 613.710938 97.949219 615.570312 99.050781 617.0625 99.9375 C 626.828125 105.722656 650.363281 121.136719 653.203125 123.480469 C 653.378906 123.625 653.445312 123.871094 653.367188 124.085938 C 651.460938 129.179688 639.660156 144.480469 636.183594 144.730469 C 636.167969 144.730469 636.15625 144.730469 636.144531 144.730469 "
    fill-opacity="1" fill-rule="nonzero" />
  <path fill="#000000"
    d="M 615.613281 131.253906 C 615.515625 131.253906 615.417969 131.230469 615.332031 131.175781 C 615.253906 131.128906 607.332031 126.328125 604.65625 124.53125 C 604.40625 124.363281 604.339844 124.027344 604.507812 123.78125 C 604.671875 123.53125 605.011719 123.464844 605.257812 123.632812 C 607.917969 125.410156 615.8125 130.203125 615.890625 130.25 C 616.148438 130.40625 616.230469 130.738281 616.078125 130.992188 C 615.972656 131.164062 615.792969 131.253906 615.613281 131.253906 "
    fill-opacity="1" fill-rule="nonzero" />
  <path fill="#000000"
    d="M 610.773438 120.628906 C 610.660156 120.628906 610.542969 120.589844 610.445312 120.511719 C 606.65625 117.558594 601.804688 114.011719 597.90625 111.160156 L 597.195312 110.644531 C 596.957031 110.46875 596.90625 110.128906 597.078125 109.886719 C 597.253906 109.648438 597.59375 109.59375 597.835938 109.769531 L 598.542969 110.289062 C 602.449219 113.140625 607.3125 116.691406 611.109375 119.65625 C 611.34375 119.84375 611.386719 120.183594 611.203125 120.417969 C 611.097656 120.554688 610.9375 120.628906 610.773438 120.628906 "
    fill-opacity="1" fill-rule="nonzero" />
  <path fill="#000000"
    d="M 615.3125 114.105469 C 615.207031 114.105469 615.097656 114.074219 615.003906 114.007812 L 603.746094 106.195312 C 603.5 106.023438 603.4375 105.6875 603.609375 105.441406 C 603.777344 105.195312 604.117188 105.132812 604.363281 105.304688 L 615.621094 113.117188 C 615.867188 113.289062 615.929688 113.628906 615.757812 113.875 C 615.652344 114.023438 615.484375 114.105469 615.3125 114.105469 "
    fill-opacity="1" fill-rule="nonzero" />
  <path fill="#000000"
    d="M 618.730469 108.117188 C 618.617188 108.117188 618.507812 108.085938 618.414062 108.015625 C 615.113281 105.621094 611.679688 103.320312 608.203125 101.179688 C 607.949219 101.023438 607.871094 100.691406 608.027344 100.4375 C 608.183594 100.179688 608.519531 100.101562 608.773438 100.257812 C 612.269531 102.414062 615.722656 104.726562 619.050781 107.140625 C 619.289062 107.3125 619.34375 107.652344 619.167969 107.894531 C 619.058594 108.039062 618.894531 108.117188 618.730469 108.117188 "
    fill-opacity="1" fill-rule="nonzero" />
  <path fill="#000000"
    d="M 654.230469 241.515625 C 654.015625 241.515625 653.8125 241.386719 653.726562 241.175781 L 647.300781 225.300781 C 647.1875 225.019531 647.324219 224.707031 647.597656 224.59375 C 647.875 224.484375 648.191406 224.613281 648.304688 224.894531 L 654.730469 240.769531 C 654.84375 241.046875 654.710938 241.363281 654.433594 241.476562 C 654.367188 241.503906 654.296875 241.515625 654.230469 241.515625 "
    fill-opacity="1" fill-rule="nonzero" />
  <path fill="#5479f7"
    d="M 641.535156 115.113281 C 641.535156 115.113281 638.894531 126.703125 625.605469 138.464844 C 629.886719 142.542969 646.550781 155.679688 646.550781 155.679688 C 646.550781 155.679688 609.242188 154.242188 598.59375 153.847656 C 580.261719 153.160156 565.410156 157.789062 556.550781 166.621094 L 535.480469 186.492188 L 507.648438 166.363281 L 483.570312 191.355469 L 506.464844 214.066406 C 523.386719 230.035156 549.796875 230.046875 566.730469 214.09375 L 576.449219 205.296875 L 578.992188 258.730469 L 661.28125 246.835938 L 649.835938 191.523438 C 649.835938 191.523438 689.496094 193.800781 691.660156 172.117188 C 694.867188 139.996094 641.535156 115.113281 641.535156 115.113281 "
    fill-opacity="1" fill-rule="nonzero" />
  <path fill="#000000"
    d="M 669.054688 157.105469 C 669.046875 157.105469 669.039062 157.105469 669.03125 157.105469 L 646.53125 156.21875 C 646.230469 156.210938 645.996094 155.957031 646.007812 155.660156 C 646.019531 155.359375 646.300781 155.128906 646.574219 155.136719 L 669.074219 156.023438 C 669.371094 156.035156 669.605469 156.289062 669.59375 156.585938 C 669.585938 156.878906 669.34375 157.105469 669.054688 157.105469 "
    fill-opacity="1" fill-rule="nonzero" />
  <path fill="#000000"
    d="M 576.449219 205.835938 C 576.164062 205.835938 575.925781 205.613281 575.910156 205.320312 L 575.507812 197.476562 C 575.492188 197.175781 575.722656 196.921875 576.019531 196.90625 C 576.320312 196.882812 576.570312 197.121094 576.589844 197.417969 L 576.992188 205.269531 C 577.007812 205.566406 576.777344 205.820312 576.480469 205.835938 C 576.472656 205.835938 576.460938 205.835938 576.449219 205.835938 "
    fill-opacity="1" fill-rule="nonzero" />
  <path fill="#ffffff"
    d="M 179.707031 499.980469 L 83.316406 499.980469 C 83.316406 499.980469 50.195312 487.648438 72.8125 453.363281 C 74.078125 451.445312 77.0625 452.484375 76.839844 454.773438 C 75.769531 465.675781 76.203125 483.785156 89.414062 490.34375 L 89.414062 486.722656 C 89.414062 478.394531 91.917969 470.261719 96.597656 463.375 L 128.40625 416.570312 C 128.40625 416.570312 102.777344 407.433594 146.183594 378.699219 C 146.183594 378.699219 144.964844 363.921875 162.808594 370.339844 C 162.808594 370.339844 192.828125 351.449219 198.550781 353.230469 C 204.277344 355.011719 212.679688 365.492188 186.148438 398.703125 L 181.113281 409.695312 C 180.238281 411.605469 179.785156 413.683594 179.785156 415.789062 L 179.785156 483.875 C 179.785156 486.808594 181.609375 489.375 184.316406 490.496094 C 186.527344 491.414062 188.316406 493.144531 186.304688 496.398438 C 184.898438 498.664062 182.371094 499.980469 179.707031 499.980469 "
    fill-opacity="1" fill-rule="nonzero" />
  <g clip-path="url(#391c0d8746)">
    <path fill="#000000"
      d="M 83.417969 499.433594 L 179.707031 499.433594 C 182.222656 499.433594 184.574219 498.160156 185.84375 496.113281 C 186.566406 494.949219 186.796875 493.9375 186.53125 493.117188 C 186.257812 492.265625 185.441406 491.550781 184.109375 490.996094 C 181.152344 489.773438 179.242188 486.976562 179.242188 483.875 L 179.242188 415.789062 C 179.242188 413.59375 179.707031 411.464844 180.621094 409.46875 L 185.65625 398.476562 C 185.675781 398.4375 185.699219 398.398438 185.726562 398.363281 C 203.492188 376.125 205.160156 364.742188 203.433594 359.109375 C 202.273438 355.324219 199.519531 354.101562 198.390625 353.75 C 193.890625 352.339844 171.386719 365.582031 163.09375 370.796875 C 162.953125 370.886719 162.78125 370.90625 162.625 370.851562 C 156.789062 368.75 152.460938 368.730469 149.761719 370.792969 C 146.34375 373.40625 146.71875 378.601562 146.722656 378.652344 C 146.738281 378.851562 146.648438 379.039062 146.480469 379.152344 C 124.691406 393.574219 120.867188 402.773438 121.496094 407.949219 C 122.199219 413.71875 128.523438 416.039062 128.585938 416.0625 C 128.746094 416.121094 128.867188 416.246094 128.917969 416.40625 C 128.972656 416.5625 128.949219 416.738281 128.855469 416.875 L 97.042969 463.679688 C 92.40625 470.503906 89.957031 478.472656 89.957031 486.722656 L 89.957031 490.339844 C 89.957031 490.53125 89.859375 490.703125 89.699219 490.804688 C 89.542969 490.902344 89.34375 490.910156 89.175781 490.828125 C 75.550781 484.066406 75.261719 465.304688 76.300781 454.722656 C 76.390625 453.769531 75.773438 453.203125 75.214844 453.003906 C 74.648438 452.804688 73.796875 452.855469 73.265625 453.660156 C 66.101562 464.523438 63.847656 474.25 66.566406 482.578125 C 70.285156 493.972656 82.269531 498.980469 83.417969 499.433594 Z M 179.707031 500.519531 L 83.316406 500.519531 C 83.25 500.519531 83.1875 500.507812 83.125 500.484375 C 82.992188 500.4375 69.585938 495.320312 65.535156 482.914062 C 62.710938 474.257812 65.007812 464.214844 72.363281 453.066406 C 73.070312 451.988281 74.363281 451.554688 75.578125 451.980469 C 76.777344 452.410156 77.503906 453.550781 77.378906 454.828125 C 76.386719 464.921875 76.605469 482.640625 88.875 489.445312 L 88.875 486.722656 C 88.875 478.253906 91.390625 470.074219 96.148438 463.070312 L 127.582031 416.820312 C 125.828125 416.027344 121.074219 413.421875 120.421875 408.078125 C 119.457031 400.152344 127.9375 390.171875 145.625 378.417969 C 145.589844 377.144531 145.699219 372.542969 149.097656 369.9375 C 152.066406 367.664062 156.65625 367.597656 162.742188 369.742188 C 166.734375 367.238281 193.03125 350.953125 198.714844 352.714844 C 200.007812 353.117188 203.15625 354.515625 204.46875 358.789062 C 206.273438 364.667969 204.632812 376.417969 186.613281 398.988281 L 181.609375 409.921875 C 180.757812 411.773438 180.328125 413.75 180.328125 415.789062 L 180.328125 483.875 C 180.328125 486.535156 181.972656 488.941406 184.523438 489.996094 C 186.164062 490.675781 187.1875 491.613281 187.566406 492.78125 C 187.929688 493.921875 187.660156 495.238281 186.761719 496.683594 C 185.296875 499.050781 182.59375 500.519531 179.707031 500.519531 "
      fill-opacity="1" fill-rule="nonzero" />
  </g>
  <path fill="#000000"
    d="M 179.082031 499.707031 C 179.039062 499.707031 178.996094 499.703125 178.953125 499.695312 C 178.664062 499.621094 178.484375 499.328125 178.554688 499.035156 C 179.046875 497.039062 177.398438 495 175.59375 494.257812 C 173.601562 493.4375 171.289062 493.648438 169.089844 494 L 168.261719 494.132812 C 166.242188 494.472656 164.148438 494.816406 162.074219 494.464844 C 161.859375 494.425781 161.6875 494.265625 161.636719 494.050781 C 161.589844 493.839844 161.671875 493.617188 161.847656 493.492188 C 168.609375 488.636719 173.519531 481.191406 175.328125 473.0625 C 176.058594 469.761719 176.160156 466.929688 175.628906 464.402344 C 175 461.398438 173.390625 458.820312 171.214844 457.328125 C 166.984375 454.421875 161.300781 455.601562 157.277344 457.105469 C 150.1875 459.753906 143.933594 464.277344 139.195312 470.191406 C 139.011719 470.425781 138.671875 470.464844 138.433594 470.273438 C 138.203125 470.089844 138.164062 469.746094 138.351562 469.515625 C 143.210938 463.445312 149.625 458.804688 156.902344 456.089844 C 161.164062 454.496094 167.210938 453.265625 171.828125 456.433594 C 174.230469 458.085938 176.003906 460.90625 176.6875 464.179688 C 177.25 466.859375 177.148438 469.84375 176.382812 473.296875 C 174.621094 481.222656 170 488.519531 163.609375 493.523438 C 165.09375 493.5625 166.605469 493.3125 168.085938 493.066406 L 168.917969 492.929688 C 171.277344 492.554688 173.765625 492.335938 176.003906 493.257812 C 178.273438 494.1875 180.242188 496.703125 179.609375 499.296875 C 179.546875 499.542969 179.328125 499.707031 179.082031 499.707031 "
    fill-opacity="1" fill-rule="nonzero" />
  <path fill="#000000"
    d="M 165.726562 455.09375 C 165.65625 455.09375 165.585938 455.082031 165.515625 455.050781 C 165.242188 454.933594 165.113281 454.613281 165.230469 454.339844 L 171.550781 439.628906 C 171.667969 439.351562 171.988281 439.226562 172.261719 439.34375 C 172.539062 439.464844 172.664062 439.78125 172.546875 440.054688 L 166.226562 454.765625 C 166.136719 454.972656 165.9375 455.09375 165.726562 455.09375 "
    fill-opacity="1" fill-rule="nonzero" />
  <path fill="#000000"
    d="M 202.632812 365.628906 C 202.609375 365.628906 202.585938 365.628906 202.5625 365.625 C 200.136719 365.296875 197.84375 364.03125 196.277344 362.144531 C 194.707031 360.261719 193.878906 357.777344 193.996094 355.332031 C 194.011719 355.03125 194.265625 354.792969 194.5625 354.8125 C 194.863281 354.828125 195.09375 355.082031 195.078125 355.382812 C 194.976562 357.5625 195.714844 359.777344 197.109375 361.453125 C 198.503906 363.128906 200.546875 364.261719 202.707031 364.550781 C 203 364.59375 203.210938 364.863281 203.167969 365.160156 C 203.132812 365.433594 202.902344 365.628906 202.632812 365.628906 "
    fill-opacity="1" fill-rule="nonzero" />
  <path fill="#000000"
    d="M 159.273438 429.445312 C 158.53125 429.445312 157.796875 429.382812 157.082031 429.257812 C 152.34375 428.441406 148.480469 424.820312 147.691406 420.453125 C 147.019531 416.746094 148.546875 413 149.953125 410.148438 C 153.117188 403.734375 157.3125 397.941406 162.417969 392.933594 C 162.632812 392.722656 162.976562 392.726562 163.183594 392.941406 C 163.394531 393.15625 163.390625 393.5 163.175781 393.707031 C 158.15625 398.628906 154.035156 404.320312 150.921875 410.628906 C 149.59375 413.328125 148.140625 416.867188 148.757812 420.261719 C 149.457031 424.125 153.035156 427.460938 157.261719 428.191406 C 161.132812 428.859375 165.484375 427.53125 168.90625 424.640625 C 171.84375 422.15625 174.164062 418.597656 175.800781 414.066406 C 177.265625 410.003906 178.019531 405.660156 178.75 401.464844 C 178.800781 401.171875 179.078125 400.972656 179.375 401.023438 C 179.667969 401.074219 179.867188 401.355469 179.816406 401.648438 C 179.078125 405.894531 178.316406 410.28125 176.816406 414.433594 C 175.117188 419.144531 172.691406 422.859375 169.605469 425.46875 C 166.570312 428.03125 162.839844 429.445312 159.273438 429.445312 "
    fill-opacity="1" fill-rule="nonzero" />
  <path fill="#000000"
    d="M 129.171875 416.109375 C 129.0625 416.109375 128.949219 416.074219 128.851562 416.003906 C 128.613281 415.824219 128.5625 415.484375 128.738281 415.246094 L 141.382812 398.140625 C 141.5625 397.902344 141.898438 397.851562 142.140625 398.027344 C 142.382812 398.207031 142.433594 398.546875 142.253906 398.785156 L 129.609375 415.890625 C 129.503906 416.035156 129.339844 416.109375 129.171875 416.109375 "
    fill-opacity="1" fill-rule="nonzero" />
  <path fill="#000000"
    d="M 146.644531 395.265625 C 146.628906 395.265625 146.613281 395.261719 146.597656 395.261719 C 144.183594 395.042969 141.996094 393.46875 141.023438 391.25 C 140.046875 389.03125 140.371094 386.355469 141.839844 384.425781 C 143.101562 382.777344 145.109375 381.800781 147.167969 381.777344 L 146.152344 379.960938 C 146.007812 379.699219 146.101562 379.371094 146.363281 379.226562 C 146.625 379.078125 146.953125 379.171875 147.097656 379.433594 L 148.597656 382.125 C 148.699219 382.304688 148.6875 382.523438 148.570312 382.695312 C 148.449219 382.863281 148.25 382.949219 148.042969 382.921875 C 146.058594 382.621094 143.917969 383.492188 142.703125 385.085938 C 141.484375 386.675781 141.207031 388.980469 142.015625 390.8125 C 142.820312 392.648438 144.699219 394.003906 146.695312 394.183594 C 146.992188 394.210938 147.210938 394.472656 147.183594 394.769531 C 147.160156 395.054688 146.921875 395.265625 146.644531 395.265625 "
    fill-opacity="1" fill-rule="nonzero" />
  <path fill="#000000"
    d="M 171.402344 391.015625 C 171.382812 391.015625 171.367188 391.015625 171.347656 391.011719 C 171.050781 390.980469 170.832031 390.714844 170.863281 390.417969 C 171.5625 383.382812 168.710938 376.097656 163.417969 371.417969 C 163.195312 371.21875 163.171875 370.875 163.371094 370.652344 C 163.570312 370.429688 163.914062 370.410156 164.136719 370.605469 C 169.683594 375.515625 172.675781 383.148438 171.941406 390.527344 C 171.914062 390.804688 171.675781 391.015625 171.402344 391.015625 "
    fill-opacity="1" fill-rule="nonzero" />
  <path fill="#000000"
    d="M 166.078125 423.992188 C 165.785156 423.992188 165.542969 423.757812 165.535156 423.460938 C 165.347656 414.570312 169.085938 405.601562 175.527344 399.480469 C 175.746094 399.269531 176.089844 399.28125 176.292969 399.5 C 176.5 399.714844 176.492188 400.054688 176.273438 400.261719 C 170.046875 406.179688 166.4375 414.847656 166.621094 423.4375 C 166.625 423.738281 166.386719 423.984375 166.089844 423.992188 C 166.085938 423.992188 166.082031 423.992188 166.078125 423.992188 "
    fill-opacity="1" fill-rule="nonzero" />
  <path fill="#5479f7"
    d="M 310.761719 71.675781 L 201.726562 260.667969 C 194.265625 273.601562 203.597656 289.769531 218.535156 289.769531 L 436.601562 289.769531 C 451.535156 289.769531 460.871094 273.601562 453.40625 260.667969 L 344.375 71.675781 C 336.90625 58.730469 318.230469 58.730469 310.761719 71.675781 "
    fill-opacity="1" fill-rule="nonzero" />
  <path fill="#ffffff"
    d="M 319.335938 87.582031 L 219.789062 260.132812 C 216.132812 266.46875 220.707031 274.382812 228.019531 274.382812 L 427.113281 274.382812 C 434.429688 274.382812 439 266.46875 435.34375 260.132812 L 335.796875 87.582031 C 332.140625 81.242188 322.992188 81.242188 319.335938 87.582031 "
    fill-opacity="1" fill-rule="nonzero" />
  <path fill="#000000"
    d="M 282.976562 197.007812 L 295.695312 197.007812 L 295.695312 176.9375 L 295.078125 178.058594 Z M 300.917969 197.007812 L 306.589844 197.007812 L 306.589844 201.253906 L 300.917969 201.253906 L 300.917969 210.757812 L 295.695312 210.757812 L 295.695312 201.253906 L 277.082031 201.253906 L 277.082031 198.191406 L 295.386719 169.824219 L 300.917969 169.824219 L 300.917969 197.007812 "
    fill-opacity="1" fill-rule="nonzero" />
  <path fill="#000000"
    d="M 331.71875 186.1875 C 331.71875 181.78125 331.097656 178.570312 329.863281 176.554688 C 328.628906 174.542969 326.671875 173.535156 323.996094 173.535156 C 321.339844 173.535156 319.402344 174.539062 318.1875 176.542969 C 316.96875 178.546875 316.339844 181.628906 316.304688 185.789062 L 316.304688 194.113281 C 316.304688 198.535156 316.945312 201.800781 318.226562 203.910156 C 319.511719 206.019531 321.453125 207.074219 324.050781 207.074219 C 326.617188 207.074219 328.523438 206.078125 329.765625 204.09375 C 331.011719 202.105469 331.664062 198.976562 331.71875 194.703125 Z M 336.910156 193.296875 C 336.910156 199.390625 335.875 203.914062 333.796875 206.875 C 331.71875 209.839844 328.472656 211.320312 324.050781 211.320312 C 319.691406 211.320312 316.464844 209.871094 314.367188 206.976562 C 312.273438 204.078125 311.183594 199.753906 311.113281 194 L 311.113281 187.054688 C 311.113281 181.039062 312.148438 176.570312 314.226562 173.648438 C 316.304688 170.722656 319.5625 169.261719 323.996094 169.261719 C 328.394531 169.261719 331.632812 170.671875 333.710938 173.492188 C 335.789062 176.3125 336.855469 180.667969 336.910156 186.550781 L 336.910156 193.296875 "
    fill-opacity="1" fill-rule="nonzero" />
  <path fill="#000000"
    d="M 347.550781 197.007812 L 360.269531 197.007812 L 360.269531 176.9375 L 359.652344 178.058594 Z M 365.496094 197.007812 L 371.164062 197.007812 L 371.164062 201.253906 L 365.496094 201.253906 L 365.496094 210.757812 L 360.269531 210.757812 L 360.269531 201.253906 L 341.65625 201.253906 L 341.65625 198.191406 L 359.964844 169.824219 L 365.496094 169.824219 L 365.496094 197.007812 "
    fill-opacity="1" fill-rule="nonzero" />
  <path fill="#000000"
    d="M 289.492188 239.015625 L 278.863281 239.015625 L 278.863281 247.71875 L 291.210938 247.71875 L 291.210938 250.367188 L 275.628906 250.367188 L 275.628906 225.808594 L 291.042969 225.808594 L 291.042969 228.457031 L 278.863281 228.457031 L 278.863281 236.367188 L 289.492188 236.367188 L 289.492188 239.015625 "
    fill-opacity="1" fill-rule="nonzero" />
  <path fill="#000000"
    d="M 298.472656 237.785156 L 303.441406 237.785156 C 305.046875 237.785156 306.324219 237.367188 307.273438 236.53125 C 308.222656 235.699219 308.695312 234.585938 308.695312 233.1875 C 308.695312 231.667969 308.246094 230.5 307.339844 229.691406 C 306.4375 228.878906 305.132812 228.46875 303.421875 228.457031 L 298.472656 228.457031 Z M 304.230469 240.433594 L 298.472656 240.433594 L 298.472656 250.367188 L 295.222656 250.367188 L 295.222656 225.808594 L 303.339844 225.808594 C 306.101562 225.808594 308.226562 226.4375 309.71875 227.695312 C 311.203125 228.957031 311.945312 230.789062 311.945312 233.195312 C 311.945312 234.726562 311.535156 236.058594 310.710938 237.195312 C 309.882812 238.332031 308.738281 239.179688 307.265625 239.742188 L 313.027344 250.167969 L 313.027344 250.367188 L 309.554688 250.367188 L 304.230469 240.433594 "
    fill-opacity="1" fill-rule="nonzero" />
  <path fill="#000000"
    d="M 319.714844 237.785156 L 324.683594 237.785156 C 326.289062 237.785156 327.566406 237.367188 328.515625 236.53125 C 329.464844 235.699219 329.9375 234.585938 329.9375 233.1875 C 329.9375 231.667969 329.488281 230.5 328.582031 229.691406 C 327.679688 228.878906 326.375 228.46875 324.667969 228.457031 L 319.714844 228.457031 Z M 325.472656 240.433594 L 319.714844 240.433594 L 319.714844 250.367188 L 316.464844 250.367188 L 316.464844 225.808594 L 324.582031 225.808594 C 327.34375 225.808594 329.46875 226.4375 330.957031 227.695312 C 332.445312 228.957031 333.191406 230.789062 333.191406 233.195312 C 333.191406 234.726562 332.777344 236.058594 331.953125 237.195312 C 331.125 238.332031 329.976562 239.179688 328.507812 239.742188 L 334.269531 250.167969 L 334.269531 250.367188 L 330.800781 250.367188 L 325.472656 240.433594 "
    fill-opacity="1" fill-rule="nonzero" />
  <path fill="#000000"
    d="M 353.371094 237.296875 C 353.371094 234.382812 352.785156 232.148438 351.617188 230.589844 C 350.449219 229.03125 348.816406 228.253906 346.714844 228.253906 C 344.671875 228.253906 343.066406 229.03125 341.890625 230.589844 C 340.71875 232.148438 340.113281 234.3125 340.082031 237.078125 L 340.082031 238.882812 C 340.082031 241.703125 340.671875 243.921875 341.859375 245.535156 C 343.042969 247.148438 344.671875 247.957031 346.75 247.957031 C 348.839844 247.957031 350.457031 247.195312 351.605469 245.667969 C 352.75 244.144531 353.335938 241.960938 353.371094 239.117188 Z M 356.589844 238.882812 C 356.589844 241.289062 356.183594 243.386719 355.375 245.179688 C 354.566406 246.976562 353.421875 248.34375 351.941406 249.289062 C 350.457031 250.234375 348.726562 250.707031 346.75 250.707031 C 344.820312 250.707031 343.105469 250.230469 341.613281 249.277344 C 340.121094 248.332031 338.960938 246.976562 338.132812 245.214844 C 337.308594 243.453125 336.882812 241.417969 336.863281 239.101562 L 336.863281 237.328125 C 336.863281 234.964844 337.273438 232.882812 338.089844 231.070312 C 338.914062 229.261719 340.070312 227.875 341.570312 226.914062 C 343.070312 225.949219 344.785156 225.472656 346.714844 225.472656 C 348.683594 225.472656 350.414062 225.945312 351.914062 226.894531 C 353.414062 227.847656 354.566406 229.222656 355.375 231.027344 C 356.183594 232.832031 356.589844 234.933594 356.589844 237.328125 L 356.589844 238.882812 "
    fill-opacity="1" fill-rule="nonzero" />
  <path fill="#000000"
    d="M 364.675781 237.785156 L 369.644531 237.785156 C 371.25 237.785156 372.527344 237.367188 373.476562 236.53125 C 374.425781 235.699219 374.902344 234.585938 374.902344 233.1875 C 374.902344 231.667969 374.449219 230.5 373.542969 229.691406 C 372.640625 228.878906 371.335938 228.46875 369.628906 228.457031 L 364.675781 228.457031 Z M 370.4375 240.433594 L 364.675781 240.433594 L 364.675781 250.367188 L 361.421875 250.367188 L 361.421875 225.808594 L 369.542969 225.808594 C 372.304688 225.808594 374.429688 226.4375 375.917969 227.695312 C 377.40625 228.957031 378.152344 230.789062 378.152344 233.195312 C 378.152344 234.726562 377.738281 236.058594 376.910156 237.195312 C 376.085938 238.332031 374.9375 239.179688 373.46875 239.742188 L 379.230469 250.167969 L 379.230469 250.367188 L 375.757812 250.367188 L 370.4375 240.433594 "
    fill-opacity="1" fill-rule="nonzero" />
  <path fill="#e2eaff"
    d="M 171.234375 100.496094 L 74.859375 100.496094 C 64.582031 100.496094 56.25 108.839844 56.25 119.132812 L 56.25 149.335938 C 56.25 159.628906 64.582031 167.972656 74.859375 167.972656 L 171.234375 167.972656 C 181.511719 167.972656 189.84375 159.628906 189.84375 149.335938 L 189.84375 119.132812 C 189.84375 108.839844 181.511719 100.496094 171.234375 100.496094 "
    fill-opacity="1" fill-rule="nonzero" />
  <path fill="#ffffff"
    d="M 148.027344 134.234375 C 148.027344 148.050781 136.84375 159.25 123.046875 159.25 C 109.25 159.25 98.066406 148.050781 98.066406 134.234375 C 98.066406 120.417969 109.25 109.21875 123.046875 109.21875 C 136.84375 109.21875 148.027344 120.417969 148.027344 134.234375 "
    fill-opacity="1" fill-rule="nonzero" />
  <path fill="#000000"
    d="M 116.128906 128.289062 C 116.128906 129.566406 115.09375 130.597656 113.820312 130.597656 C 112.546875 130.597656 111.515625 129.566406 111.515625 128.289062 C 111.515625 127.015625 112.546875 125.984375 113.820312 125.984375 C 115.09375 125.984375 116.128906 127.015625 116.128906 128.289062 "
    fill-opacity="1" fill-rule="nonzero" />
  <path fill="#000000"
    d="M 134.582031 128.289062 C 134.582031 129.566406 133.550781 130.597656 132.273438 130.597656 C 131 130.597656 129.96875 129.566406 129.96875 128.289062 C 129.96875 127.015625 131 125.984375 132.273438 125.984375 C 133.550781 125.984375 134.582031 127.015625 134.582031 128.289062 "
    fill-opacity="1" fill-rule="nonzero" />
  <path fill="#000000"
    d="M 112.582031 145.199219 C 112.507812 145.199219 112.429688 145.183594 112.355469 145.148438 C 112.085938 145.023438 111.96875 144.703125 112.09375 144.433594 C 112.121094 144.367188 115.140625 138.03125 122.875 138.03125 C 130.703125 138.03125 133.839844 144.3125 133.871094 144.378906 C 134.003906 144.648438 133.890625 144.972656 133.621094 145.101562 C 133.355469 145.234375 133.03125 145.121094 132.898438 144.851562 C 132.785156 144.617188 130.007812 139.113281 122.875 139.113281 C 115.847656 139.113281 113.1875 144.652344 113.074219 144.886719 C 112.984375 145.082031 112.789062 145.199219 112.582031 145.199219 "
    fill-opacity="1" fill-rule="nonzero" />
  <path fill="#000000"
    d="M 191.46875 201.914062 C 174.804688 201.914062 161.242188 188.335938 161.242188 171.648438 C 161.242188 171.347656 161.488281 171.105469 161.785156 171.105469 C 162.085938 171.105469 162.328125 171.347656 162.328125 171.648438 C 162.328125 187.742188 175.402344 200.828125 191.46875 200.828125 C 191.769531 200.828125 192.011719 201.070312 192.011719 201.371094 C 192.011719 201.671875 191.769531 201.914062 191.46875 201.914062 "
    fill-opacity="1" fill-rule="nonzero" />
  <path fill="#000000"
    d="M 502.117188 140.699219 C 502.066406 140.699219 502.007812 140.6875 501.953125 140.671875 C 501.667969 140.578125 501.511719 140.273438 501.601562 139.988281 L 505.339844 128.296875 C 505.382812 128.164062 505.480469 128.046875 505.609375 127.980469 C 505.738281 127.917969 505.886719 127.90625 506.023438 127.949219 C 511.046875 129.5625 516.390625 129.125 521.082031 126.710938 C 525.777344 124.296875 529.253906 120.1875 530.863281 115.152344 C 534.1875 104.757812 528.449219 93.589844 518.070312 90.253906 C 510.109375 87.691406 501.359375 90.453125 496.304688 97.121094 C 496.125 97.355469 495.785156 97.40625 495.546875 97.222656 C 495.308594 97.042969 495.261719 96.703125 495.441406 96.460938 C 500.773438 89.429688 510.003906 86.519531 518.402344 89.222656 C 529.347656 92.738281 535.402344 104.519531 531.894531 115.480469 C 530.199219 120.796875 526.53125 125.125 521.578125 127.675781 C 516.792969 130.136719 511.355469 130.652344 506.210938 129.140625 L 502.636719 140.320312 C 502.5625 140.550781 502.347656 140.699219 502.117188 140.699219 "
    fill-opacity="1" fill-rule="nonzero" />
  <path fill="#000000"
    d="M 498.898438 150.820312 C 498.84375 150.820312 498.789062 150.816406 498.734375 150.796875 C 498.449219 150.703125 498.289062 150.398438 498.382812 150.113281 L 499.941406 145.242188 C 500.03125 144.957031 500.332031 144.796875 500.621094 144.894531 C 500.90625 144.984375 501.0625 145.289062 500.96875 145.574219 L 499.414062 150.445312 C 499.339844 150.675781 499.128906 150.820312 498.898438 150.820312 "
    fill-opacity="1" fill-rule="nonzero" />
  <path fill="#000000"
    d="M 432.476562 153.539062 C 432.421875 153.539062 432.367188 153.53125 432.3125 153.515625 C 432.027344 153.425781 431.867188 153.117188 431.960938 152.832031 L 435.125 142.941406 C 435.167969 142.808594 435.265625 142.695312 435.394531 142.628906 C 435.519531 142.5625 435.667969 142.550781 435.804688 142.59375 C 440.03125 143.949219 444.535156 143.582031 448.480469 141.550781 C 452.4375 139.515625 455.359375 136.0625 456.714844 131.820312 C 459.511719 123.074219 454.679688 113.671875 445.949219 110.867188 C 439.238281 108.710938 431.878906 111.03125 427.625 116.644531 C 427.445312 116.878906 427.105469 116.929688 426.867188 116.746094 C 426.628906 116.566406 426.582031 116.226562 426.761719 115.988281 C 431.292969 110.011719 439.140625 107.539062 446.277344 109.832031 C 455.578125 112.824219 460.722656 122.835938 457.746094 132.152344 C 456.300781 136.667969 453.1875 140.347656 448.976562 142.515625 C 444.933594 144.59375 440.34375 145.039062 435.992188 143.785156 L 432.992188 153.164062 C 432.917969 153.394531 432.707031 153.539062 432.476562 153.539062 "
    fill-opacity="1" fill-rule="nonzero" />
  <path fill="#000000"
    d="M 429.753906 162.105469 C 429.699219 162.105469 429.640625 162.097656 429.585938 162.082031 C 429.300781 161.988281 429.144531 161.683594 429.234375 161.398438 L 430.554688 157.277344 C 430.644531 156.992188 430.945312 156.832031 431.234375 156.925781 C 431.519531 157.019531 431.675781 157.324219 431.585938 157.609375 L 430.269531 161.730469 C 430.195312 161.957031 429.980469 162.105469 429.753906 162.105469 "
    fill-opacity="1" fill-rule="nonzero" />
  <path fill="#000000"
    d="M 508.753906 320.628906 C 508.699219 320.628906 508.636719 320.621094 508.582031 320.601562 C 508.296875 320.507812 508.144531 320.199219 508.238281 319.914062 L 512.085938 308.515625 C 512.132812 308.375 512.230469 308.261719 512.359375 308.199219 C 512.488281 308.136719 512.636719 308.128906 512.769531 308.171875 C 517.679688 309.828125 522.933594 309.472656 527.570312 307.175781 C 532.210938 304.871094 535.671875 300.902344 537.328125 295.996094 C 540.746094 285.863281 535.289062 274.84375 525.167969 271.425781 C 517.394531 268.804688 508.773438 271.378906 503.714844 277.835938 C 503.53125 278.074219 503.191406 278.113281 502.953125 277.929688 C 502.71875 277.746094 502.679688 277.40625 502.863281 277.171875 C 508.203125 270.351562 517.304688 267.632812 525.511719 270.398438 C 536.203125 274.007812 541.960938 285.644531 538.355469 296.34375 C 536.609375 301.523438 532.949219 305.714844 528.050781 308.144531 C 523.316406 310.492188 517.972656 310.921875 512.941406 309.363281 L 509.265625 320.261719 C 509.191406 320.488281 508.980469 320.628906 508.753906 320.628906 "
    fill-opacity="1" fill-rule="nonzero" />
  <path fill="#000000"
    d="M 505.441406 330.507812 C 505.382812 330.507812 505.324219 330.496094 505.265625 330.476562 C 504.980469 330.386719 504.832031 330.078125 504.925781 329.792969 L 506.53125 325.042969 C 506.625 324.757812 506.933594 324.605469 507.214844 324.703125 C 507.496094 324.796875 507.648438 325.101562 507.554688 325.386719 L 505.949219 330.140625 C 505.875 330.363281 505.664062 330.507812 505.441406 330.507812 "
    fill-opacity="1" fill-rule="nonzero" />
  <path fill="#ffffff"
    d="M 155.566406 274.40625 C 160.589844 312.289062 133.992188 347.078125 96.160156 352.109375 C 58.324219 357.140625 23.582031 330.507812 18.558594 292.625 C 13.53125 254.738281 40.128906 219.949219 77.964844 214.917969 C 115.796875 209.886719 150.542969 236.519531 155.566406 274.40625 "
    fill-opacity="1" fill-rule="nonzero" />
  <path fill="#ffffff"
    d="M 114.476562 312.238281 C 116.1875 311.011719 117.816406 309.636719 119.335938 308.128906 C 119.648438 308.375 119.972656 308.609375 120.320312 308.820312 C 124.984375 311.667969 131.070312 310.191406 133.910156 305.523438 C 136.753906 300.851562 135.28125 294.761719 130.617188 291.914062 C 130.269531 291.703125 129.910156 291.519531 129.550781 291.355469 C 130.773438 287.449219 131.386719 283.433594 131.40625 279.445312 C 131.800781 279.402344 132.195312 279.335938 132.589844 279.242188 C 137.898438 277.953125 141.15625 272.601562 139.871094 267.285156 C 138.585938 261.972656 133.238281 258.707031 127.929688 259.992188 C 127.535156 260.089844 127.15625 260.214844 126.78125 260.355469 C 124.941406 256.820312 122.5625 253.53125 119.6875 250.621094 C 119.929688 250.308594 120.164062 249.984375 120.378906 249.636719 C 123.222656 244.964844 121.746094 238.875 117.082031 236.027344 C 112.417969 233.179688 106.335938 234.65625 103.492188 239.328125 C 103.28125 239.675781 103.097656 240.035156 102.933594 240.394531 C 99.03125 239.167969 95.023438 238.558594 91.042969 238.535156 C 90.996094 238.140625 90.933594 237.746094 90.835938 237.347656 C 89.550781 232.035156 84.203125 228.769531 78.894531 230.058594 C 73.589844 231.347656 70.328125 236.703125 71.617188 242.015625 C 71.710938 242.410156 71.835938 242.792969 71.976562 243.167969 C 70.007812 244.191406 68.121094 245.386719 66.328125 246.738281 L 69.582031 259.324219 L 76.382812 260.078125 L 79.730469 264.519531 C 85.566406 260.109375 93.734375 259.457031 100.355469 263.5 C 109.015625 268.785156 111.753906 280.101562 106.476562 288.773438 C 105.234375 290.8125 103.65625 292.527344 101.863281 293.882812 L 104.125 304.617188 L 109.761719 305.375 L 114.476562 312.238281 "
    fill-opacity="1" fill-rule="nonzero" />
  <path fill="#000000"
    d="M 104.574219 304.132812 L 109.832031 304.839844 C 109.984375 304.859375 110.121094 304.941406 110.207031 305.066406 L 114.609375 311.472656 C 116.140625 310.339844 117.601562 309.085938 118.957031 307.746094 C 119.152344 307.554688 119.460938 307.535156 119.671875 307.703125 C 120.003906 307.964844 120.308594 308.183594 120.601562 308.359375 C 122.734375 309.664062 125.242188 310.054688 127.667969 309.464844 C 130.097656 308.878906 132.148438 307.375 133.449219 305.242188 C 136.132812 300.832031 134.734375 295.0625 130.332031 292.375 C 130.039062 292.195312 129.71875 292.027344 129.324219 291.847656 C 129.078125 291.734375 128.953125 291.457031 129.03125 291.195312 C 130.226562 287.382812 130.84375 283.429688 130.863281 279.445312 C 130.867188 279.167969 131.070312 278.941406 131.34375 278.910156 C 131.757812 278.859375 132.125 278.796875 132.464844 278.714844 C 137.472656 277.5 140.558594 272.425781 139.34375 267.410156 C 138.757812 264.984375 137.257812 262.929688 135.125 261.625 C 132.996094 260.324219 130.484375 259.933594 128.058594 260.519531 C 127.722656 260.605469 127.367188 260.714844 126.972656 260.863281 C 126.714844 260.957031 126.429688 260.847656 126.304688 260.605469 C 124.460938 257.074219 122.105469 253.84375 119.300781 251.003906 C 119.109375 250.808594 119.089844 250.5 119.261719 250.289062 C 119.527344 249.945312 119.738281 249.652344 119.917969 249.355469 C 122.597656 244.949219 121.203125 239.175781 116.800781 236.488281 C 114.667969 235.1875 112.160156 234.792969 109.734375 235.382812 C 107.304688 235.972656 105.253906 237.472656 103.953125 239.609375 C 103.773438 239.902344 103.601562 240.234375 103.425781 240.621094 C 103.3125 240.867188 103.03125 240.992188 102.773438 240.910156 C 98.96875 239.714844 95.023438 239.097656 91.039062 239.078125 C 90.765625 239.074219 90.535156 238.871094 90.503906 238.601562 C 90.453125 238.167969 90.390625 237.8125 90.308594 237.476562 C 89.722656 235.046875 88.222656 232.992188 86.089844 231.691406 C 83.960938 230.386719 81.449219 229.996094 79.023438 230.585938 C 74.015625 231.800781 70.925781 236.871094 72.140625 241.890625 C 72.222656 242.226562 72.332031 242.570312 72.484375 242.976562 C 72.578125 243.230469 72.46875 243.519531 72.226562 243.644531 C 70.386719 244.605469 68.613281 245.71875 66.945312 246.957031 L 70.011719 258.828125 L 76.441406 259.539062 C 76.589844 259.554688 76.726562 259.632812 76.816406 259.75 L 79.839844 263.765625 C 86.023438 259.363281 94.125 259.0625 100.636719 263.039062 C 109.539062 268.472656 112.363281 280.144531 106.9375 289.054688 C 105.75 291.007812 104.242188 292.707031 102.460938 294.101562 Z M 114.476562 312.78125 C 114.449219 312.78125 114.417969 312.777344 114.386719 312.773438 C 114.242188 312.746094 114.117188 312.664062 114.03125 312.542969 L 109.449219 305.878906 L 104.050781 305.15625 C 103.824219 305.125 103.640625 304.953125 103.59375 304.730469 L 101.332031 293.996094 C 101.289062 293.789062 101.367188 293.578125 101.535156 293.449219 C 103.328125 292.097656 104.835938 290.429688 106.015625 288.492188 C 111.128906 280.089844 108.464844 269.085938 100.074219 263.960938 C 93.789062 260.125 85.933594 260.511719 80.054688 264.949219 C 79.941406 265.035156 79.796875 265.078125 79.65625 265.054688 C 79.511719 265.035156 79.382812 264.957031 79.296875 264.84375 L 76.089844 260.589844 L 69.523438 259.863281 C 69.300781 259.839844 69.113281 259.679688 69.058594 259.460938 L 65.804688 246.875 C 65.75 246.664062 65.828125 246.4375 66.003906 246.304688 C 67.679688 245.042969 69.460938 243.898438 71.308594 242.90625 C 71.21875 242.636719 71.148438 242.386719 71.089844 242.144531 C 69.734375 236.546875 73.179688 230.890625 78.769531 229.535156 C 81.476562 228.875 84.277344 229.316406 86.65625 230.765625 C 89.035156 232.21875 90.707031 234.511719 91.363281 237.222656 C 91.421875 237.46875 91.472656 237.71875 91.515625 238 C 95.289062 238.0625 99.03125 238.648438 102.648438 239.738281 C 102.773438 239.488281 102.898438 239.261719 103.027344 239.046875 C 104.480469 236.664062 106.769531 234.988281 109.480469 234.332031 C 112.183594 233.675781 114.988281 234.113281 117.367188 235.5625 C 122.273438 238.5625 123.835938 245 120.839844 249.917969 C 120.710938 250.136719 120.566406 250.347656 120.398438 250.578125 C 123.027344 253.300781 125.261719 256.359375 127.042969 259.6875 C 127.304688 259.601562 127.558594 259.53125 127.800781 259.46875 C 130.507812 258.8125 133.3125 259.25 135.691406 260.703125 C 138.070312 262.152344 139.742188 264.445312 140.398438 267.15625 C 141.753906 272.753906 138.308594 278.410156 132.71875 279.765625 C 132.472656 279.828125 132.21875 279.878906 131.941406 279.921875 C 131.878906 283.699219 131.296875 287.445312 130.203125 291.066406 C 130.457031 291.195312 130.683594 291.316406 130.898438 291.449219 C 135.808594 294.449219 137.367188 300.886719 134.375 305.804688 C 132.921875 308.1875 130.632812 309.859375 127.921875 310.519531 C 125.214844 311.175781 122.417969 310.738281 120.039062 309.285156 C 119.824219 309.15625 119.609375 309.007812 119.382812 308.84375 C 117.949219 310.230469 116.40625 311.519531 114.796875 312.679688 C 114.703125 312.746094 114.59375 312.78125 114.476562 312.78125 "
    fill-opacity="1" fill-rule="nonzero" />
  <path fill="#ffffff"
    d="M 93.902344 300.207031 C 88.066406 304.613281 79.898438 305.269531 73.277344 301.226562 C 64.617188 295.9375 61.878906 284.621094 67.15625 275.953125 C 68.398438 273.910156 69.976562 272.199219 71.773438 270.839844 L 68.667969 266.722656 L 61.519531 265.722656 L 58.371094 253.0625 C 56.949219 254.140625 55.585938 255.320312 54.296875 256.597656 C 53.984375 256.351562 53.660156 256.113281 53.3125 255.902344 C 48.648438 253.054688 42.566406 254.535156 39.722656 259.203125 C 36.878906 263.871094 38.355469 269.964844 43.015625 272.8125 C 43.363281 273.023438 43.722656 273.203125 44.082031 273.371094 C 42.859375 277.277344 42.246094 281.289062 42.226562 285.277344 C 41.832031 285.324219 41.4375 285.386719 41.042969 285.484375 C 35.734375 286.773438 32.476562 292.125 33.761719 297.441406 C 35.050781 302.757812 40.394531 306.019531 45.703125 304.730469 C 46.097656 304.632812 46.480469 304.507812 46.851562 304.367188 C 48.691406 307.90625 51.070312 311.195312 53.949219 314.101562 C 53.703125 314.414062 53.46875 314.738281 53.253906 315.089844 C 50.414062 319.757812 51.886719 325.851562 56.550781 328.699219 C 61.214844 331.546875 67.300781 330.066406 70.140625 325.398438 C 70.355469 325.046875 70.535156 324.691406 70.699219 324.332031 C 74.601562 325.558594 78.609375 326.167969 82.59375 326.191406 C 82.636719 326.582031 82.703125 326.980469 82.796875 327.375 C 84.085938 332.691406 89.429688 335.953125 94.738281 334.664062 C 100.046875 333.375 103.304688 328.023438 102.019531 322.707031 C 101.921875 322.3125 101.796875 321.929688 101.660156 321.558594 C 103.339844 320.679688 104.964844 319.679688 106.523438 318.5625 L 101.628906 311.445312 L 96.621094 311.410156 L 93.902344 300.207031 "
    fill-opacity="1" fill-rule="nonzero" />
  <path fill="#000000"
    d="M 70.699219 323.789062 C 70.753906 323.789062 70.808594 323.796875 70.859375 323.8125 C 74.664062 325.011719 78.613281 325.625 82.59375 325.648438 C 82.867188 325.648438 83.097656 325.851562 83.128906 326.125 C 83.179688 326.546875 83.242188 326.914062 83.324219 327.246094 C 83.910156 329.675781 85.410156 331.730469 87.542969 333.035156 C 89.671875 334.335938 92.183594 334.730469 94.609375 334.140625 C 99.621094 332.921875 102.707031 327.851562 101.492188 322.835938 C 101.410156 322.5 101.300781 322.144531 101.148438 321.75 C 101.054688 321.492188 101.164062 321.207031 101.40625 321.078125 C 102.910156 320.292969 104.378906 319.402344 105.773438 318.425781 L 101.34375 311.984375 L 96.617188 311.949219 C 96.367188 311.945312 96.152344 311.777344 96.09375 311.535156 L 93.566406 301.117188 C 87.414062 305.371094 79.429688 305.613281 72.996094 301.6875 C 64.09375 296.253906 61.269531 284.582031 66.695312 275.671875 C 67.851562 273.769531 69.304688 272.117188 71.019531 270.742188 L 68.367188 267.226562 L 61.445312 266.257812 C 61.226562 266.226562 61.050781 266.066406 60.996094 265.851562 L 58.046875 254 C 56.871094 254.925781 55.742188 255.925781 54.675781 256.980469 C 54.484375 257.175781 54.175781 257.191406 53.960938 257.019531 C 53.628906 256.757812 53.324219 256.542969 53.03125 256.363281 C 50.898438 255.0625 48.390625 254.671875 45.964844 255.257812 C 43.539062 255.847656 41.484375 257.347656 40.183594 259.484375 C 37.5 263.890625 38.898438 269.660156 43.300781 272.347656 C 43.59375 272.527344 43.914062 272.695312 44.308594 272.878906 C 44.558594 272.992188 44.683594 273.269531 44.601562 273.53125 C 43.40625 277.339844 42.789062 281.292969 42.769531 285.277344 C 42.769531 285.554688 42.5625 285.785156 42.289062 285.816406 C 41.863281 285.867188 41.507812 285.929688 41.171875 286.011719 C 36.160156 287.226562 33.074219 292.296875 34.289062 297.3125 C 34.878906 299.742188 36.375 301.796875 38.507812 303.101562 C 40.640625 304.402344 43.152344 304.792969 45.574219 304.203125 C 45.914062 304.121094 46.257812 304.011719 46.660156 303.863281 C 46.917969 303.765625 47.203125 303.875 47.332031 304.117188 C 49.171875 307.652344 51.527344 310.882812 54.332031 313.722656 C 54.527344 313.917969 54.542969 314.226562 54.375 314.441406 C 54.105469 314.777344 53.898438 315.074219 53.71875 315.371094 C 51.035156 319.777344 52.429688 325.546875 56.832031 328.234375 C 58.964844 329.535156 61.472656 329.925781 63.898438 329.339844 C 66.324219 328.753906 68.378906 327.25 69.679688 325.117188 C 69.859375 324.820312 70.027344 324.5 70.207031 324.105469 C 70.296875 323.910156 70.492188 323.789062 70.699219 323.789062 Z M 92.390625 335.488281 C 90.496094 335.488281 88.632812 334.96875 86.976562 333.960938 C 84.597656 332.507812 82.925781 330.214844 82.269531 327.503906 C 82.210938 327.257812 82.160156 327 82.117188 326.726562 C 78.347656 326.664062 74.605469 326.078125 70.988281 324.984375 C 70.859375 325.234375 70.738281 325.460938 70.605469 325.679688 C 69.152344 328.0625 66.863281 329.738281 64.152344 330.394531 C 61.445312 331.050781 58.648438 330.609375 56.269531 329.160156 C 51.359375 326.164062 49.796875 319.722656 52.792969 314.804688 C 52.925781 314.589844 53.066406 314.375 53.234375 314.148438 C 50.605469 311.429688 48.375 308.367188 46.589844 305.035156 C 46.324219 305.125 46.074219 305.199219 45.832031 305.257812 C 43.125 305.914062 40.320312 305.476562 37.941406 304.023438 C 35.5625 302.570312 33.894531 300.277344 33.238281 297.566406 C 31.878906 291.972656 35.324219 286.3125 40.914062 284.957031 C 41.15625 284.898438 41.414062 284.847656 41.691406 284.804688 C 41.753906 281.027344 42.335938 277.277344 43.429688 273.65625 C 43.175781 273.53125 42.949219 273.40625 42.734375 273.273438 C 37.824219 270.277344 36.265625 263.835938 39.257812 258.917969 C 40.710938 256.535156 43 254.863281 45.710938 254.207031 C 48.414062 253.550781 51.21875 253.988281 53.597656 255.441406 C 53.808594 255.570312 54.027344 255.714844 54.25 255.882812 C 55.449219 254.722656 56.722656 253.628906 58.046875 252.628906 C 58.191406 252.523438 58.382812 252.488281 58.550781 252.554688 C 58.722656 252.613281 58.855469 252.753906 58.898438 252.933594 L 61.957031 265.234375 L 68.742188 266.1875 C 68.882812 266.203125 69.011719 266.28125 69.097656 266.394531 L 72.203125 270.515625 C 72.382812 270.753906 72.335938 271.09375 72.097656 271.273438 C 70.304688 272.628906 68.796875 274.296875 67.621094 276.234375 C 62.503906 284.636719 65.167969 295.640625 73.558594 300.765625 C 79.84375 304.601562 87.703125 304.210938 93.578125 299.773438 C 93.722656 299.664062 93.914062 299.636719 94.085938 299.695312 C 94.257812 299.757812 94.386719 299.902344 94.429688 300.078125 L 97.046875 310.871094 L 101.632812 310.90625 C 101.8125 310.90625 101.976562 310.992188 102.074219 311.140625 L 106.96875 318.253906 C 107.132812 318.5 107.078125 318.828125 106.835938 319 C 105.398438 320.035156 103.882812 320.980469 102.324219 321.820312 C 102.414062 322.082031 102.484375 322.335938 102.542969 322.582031 C 103.898438 328.175781 100.453125 333.832031 94.867188 335.191406 C 94.042969 335.390625 93.210938 335.488281 92.390625 335.488281 "
    fill-opacity="1" fill-rule="nonzero" />
  <path fill="#5479f7"
    d="M 81.132812 215.109375 C 80.855469 215.109375 80.621094 214.898438 80.59375 214.617188 C 80.570312 214.320312 80.789062 214.054688 81.085938 214.03125 C 83.097656 213.855469 85.136719 213.765625 87.148438 213.765625 L 87.714844 213.769531 C 88.015625 213.769531 88.253906 214.015625 88.253906 214.316406 C 88.25 214.609375 88.007812 214.851562 87.710938 214.851562 C 87.707031 214.851562 87.707031 214.851562 87.707031 214.851562 L 87.148438 214.847656 C 85.167969 214.847656 83.160156 214.9375 81.183594 215.109375 C 81.164062 215.109375 81.148438 215.109375 81.132812 215.109375 Z M 100.785156 216.21875 C 100.75 216.21875 100.710938 216.214844 100.675781 216.207031 C 98.550781 215.773438 96.378906 215.441406 94.222656 215.21875 C 93.925781 215.1875 93.710938 214.921875 93.742188 214.625 C 93.769531 214.324219 94.035156 214.101562 94.335938 214.140625 C 96.523438 214.367188 98.730469 214.707031 100.890625 215.144531 C 101.183594 215.203125 101.375 215.488281 101.316406 215.78125 C 101.261719 216.039062 101.035156 216.21875 100.785156 216.21875 Z M 68.203125 217.472656 C 67.96875 217.472656 67.75 217.320312 67.683594 217.078125 C 67.601562 216.792969 67.769531 216.492188 68.058594 216.410156 C 70.167969 215.8125 72.34375 215.308594 74.515625 214.914062 C 74.808594 214.855469 75.09375 215.054688 75.144531 215.347656 C 75.199219 215.640625 75.003906 215.925781 74.710938 215.976562 C 72.570312 216.367188 70.429688 216.867188 68.351562 217.453125 C 68.300781 217.46875 68.253906 217.472656 68.203125 217.472656 Z M 113.359375 220.050781 C 113.289062 220.050781 113.21875 220.039062 113.152344 220.011719 C 111.148438 219.183594 109.082031 218.441406 107.003906 217.808594 C 106.71875 217.722656 106.558594 217.417969 106.644531 217.132812 C 106.730469 216.847656 107.035156 216.683594 107.320312 216.773438 C 109.429688 217.414062 111.53125 218.167969 113.5625 219.011719 C 113.839844 219.125 113.972656 219.441406 113.859375 219.714844 C 113.773438 219.925781 113.570312 220.050781 113.359375 220.050781 Z M 55.957031 222.242188 C 55.757812 222.242188 55.570312 222.136719 55.472656 221.945312 C 55.339844 221.675781 55.445312 221.351562 55.714844 221.21875 C 57.683594 220.222656 59.71875 219.316406 61.769531 218.519531 C 62.046875 218.40625 62.363281 218.546875 62.472656 218.824219 C 62.578125 219.105469 62.441406 219.417969 62.164062 219.527344 C 60.144531 220.3125 58.136719 221.207031 56.199219 222.183594 C 56.121094 222.222656 56.039062 222.242188 55.957031 222.242188 Z M 124.976562 226.203125 C 124.875 226.203125 124.769531 226.171875 124.679688 226.113281 C 122.867188 224.921875 120.976562 223.800781 119.058594 222.785156 C 118.796875 222.644531 118.695312 222.320312 118.835938 222.054688 C 118.976562 221.789062 119.300781 221.691406 119.566406 221.828125 C 121.511719 222.859375 123.433594 223.996094 125.273438 225.207031 C 125.523438 225.371094 125.59375 225.707031 125.429688 225.957031 C 125.324219 226.117188 125.152344 226.203125 124.976562 226.203125 Z M 44.84375 229.257812 C 44.679688 229.257812 44.519531 229.1875 44.414062 229.046875 C 44.230469 228.8125 44.277344 228.472656 44.511719 228.289062 C 46.253906 226.9375 48.082031 225.660156 49.941406 224.484375 C 50.195312 224.328125 50.53125 224.402344 50.6875 224.65625 C 50.847656 224.90625 50.773438 225.242188 50.519531 225.402344 C 48.6875 226.558594 46.890625 227.816406 45.175781 229.144531 C 45.074219 229.21875 44.960938 229.257812 44.84375 229.257812 Z M 135.226562 234.429688 C 135.089844 234.429688 134.953125 234.378906 134.847656 234.277344 C 133.296875 232.765625 131.648438 231.308594 129.957031 229.953125 C 129.722656 229.765625 129.6875 229.425781 129.875 229.195312 C 130.0625 228.960938 130.402344 228.921875 130.636719 229.109375 C 132.351562 230.488281 134.023438 231.96875 135.605469 233.5 C 135.816406 233.710938 135.824219 234.050781 135.613281 234.265625 C 135.507812 234.378906 135.367188 234.429688 135.226562 234.429688 Z M 35.257812 238.253906 C 35.132812 238.253906 35.003906 238.210938 34.902344 238.117188 C 34.675781 237.921875 34.65625 237.578125 34.851562 237.355469 C 36.308594 235.703125 37.859375 234.097656 39.464844 232.589844 C 39.6875 232.386719 40.027344 232.398438 40.234375 232.617188 C 40.4375 232.835938 40.425781 233.175781 40.207031 233.382812 C 38.628906 234.867188 37.097656 236.441406 35.664062 238.070312 C 35.558594 238.191406 35.410156 238.253906 35.257812 238.253906 Z M 143.742188 244.441406 C 143.570312 244.441406 143.402344 244.363281 143.296875 244.207031 C 142.058594 242.4375 140.714844 240.695312 139.308594 239.042969 C 139.113281 238.816406 139.144531 238.472656 139.371094 238.277344 C 139.597656 238.085938 139.9375 238.109375 140.132812 238.34375 C 141.5625 240.023438 142.925781 241.789062 144.183594 243.589844 C 144.355469 243.835938 144.296875 244.171875 144.050781 244.34375 C 143.957031 244.410156 143.847656 244.441406 143.742188 244.441406 Z M 27.539062 248.894531 C 27.445312 248.894531 27.351562 248.867188 27.265625 248.816406 C 27.007812 248.664062 26.921875 248.332031 27.074219 248.078125 C 28.191406 246.179688 29.417969 244.3125 30.710938 242.53125 C 30.882812 242.289062 31.222656 242.230469 31.464844 242.410156 C 31.707031 242.585938 31.761719 242.921875 31.585938 243.167969 C 30.3125 244.921875 29.109375 246.757812 28.007812 248.625 C 27.90625 248.796875 27.722656 248.894531 27.539062 248.894531 Z M 150.203125 255.886719 C 149.996094 255.886719 149.796875 255.769531 149.707031 255.566406 C 148.828125 253.585938 147.839844 251.621094 146.773438 249.734375 C 146.625 249.472656 146.71875 249.144531 146.980469 248.996094 C 147.238281 248.851562 147.570312 248.941406 147.71875 249.203125 C 148.800781 251.117188 149.800781 253.113281 150.699219 255.125 C 150.820312 255.398438 150.695312 255.71875 150.421875 255.839844 C 150.351562 255.875 150.277344 255.886719 150.203125 255.886719 Z M 21.960938 260.796875 C 21.898438 260.796875 21.839844 260.789062 21.777344 260.765625 C 21.496094 260.664062 21.351562 260.355469 21.449219 260.074219 C 22.191406 258 23.042969 255.9375 23.976562 253.941406 C 24.105469 253.671875 24.425781 253.554688 24.695312 253.679688 C 24.96875 253.808594 25.085938 254.128906 24.957031 254.398438 C 24.039062 256.363281 23.199219 258.394531 22.472656 260.4375 C 22.390625 260.660156 22.183594 260.796875 21.960938 260.796875 Z M 154.371094 268.351562 C 154.125 268.351562 153.898438 268.183594 153.84375 267.933594 C 153.351562 265.816406 152.757812 263.703125 152.070312 261.652344 C 151.976562 261.367188 152.128906 261.0625 152.414062 260.964844 C 152.695312 260.871094 153.003906 261.023438 153.097656 261.304688 C 153.792969 263.390625 154.398438 265.539062 154.898438 267.691406 C 154.964844 267.980469 154.785156 268.269531 154.492188 268.339844 C 154.449219 268.347656 154.410156 268.351562 154.371094 268.351562 Z M 18.742188 273.542969 C 18.710938 273.542969 18.683594 273.542969 18.65625 273.535156 C 18.363281 273.492188 18.160156 273.214844 18.203125 272.917969 C 18.539062 270.742188 18.980469 268.554688 19.519531 266.417969 C 19.59375 266.128906 19.890625 265.957031 20.179688 266.027344 C 20.46875 266.097656 20.644531 266.394531 20.570312 266.683594 C 20.039062 268.785156 19.601562 270.941406 19.273438 273.085938 C 19.234375 273.351562 19.003906 273.542969 18.742188 273.542969 Z M 156.125 281.503906 C 155.835938 281.503906 155.597656 281.273438 155.585938 280.984375 C 155.503906 278.820312 155.316406 276.632812 155.03125 274.476562 L 155.011719 274.351562 C 154.976562 274.054688 155.183594 273.785156 155.480469 273.746094 C 155.777344 273.707031 156.046875 273.914062 156.085938 274.210938 L 156.101562 274.332031 C 156.394531 276.523438 156.582031 278.746094 156.667969 280.941406 C 156.679688 281.238281 156.445312 281.492188 156.148438 281.503906 C 156.140625 281.503906 156.132812 281.503906 156.125 281.503906 Z M 18 286.667969 C 17.710938 286.667969 17.472656 286.441406 17.460938 286.148438 C 17.425781 285.242188 17.40625 284.324219 17.40625 283.425781 C 17.40625 282.125 17.441406 280.808594 17.515625 279.515625 C 17.535156 279.214844 17.789062 278.988281 18.085938 279.003906 C 18.386719 279.023438 18.613281 279.277344 18.597656 279.578125 C 18.527344 280.851562 18.488281 282.144531 18.488281 283.425781 C 18.488281 284.3125 18.507812 285.210938 18.539062 286.105469 C 18.554688 286.402344 18.320312 286.65625 18.019531 286.667969 C 18.015625 286.667969 18.007812 286.667969 18 286.667969 Z M 155.375 294.628906 C 155.347656 294.628906 155.320312 294.625 155.292969 294.621094 C 154.996094 294.574219 154.792969 294.300781 154.839844 294.003906 C 155.167969 291.863281 155.398438 289.679688 155.523438 287.511719 C 155.539062 287.210938 155.800781 286.992188 156.09375 287 C 156.394531 287.015625 156.621094 287.273438 156.605469 287.574219 C 156.480469 289.773438 156.246094 291.996094 155.910156 294.167969 C 155.867188 294.4375 155.636719 294.628906 155.375 294.628906 Z M 19.738281 299.695312 C 19.492188 299.695312 19.269531 299.53125 19.210938 299.277344 C 18.71875 297.136719 18.320312 294.945312 18.027344 292.753906 C 17.988281 292.460938 18.195312 292.1875 18.492188 292.148438 C 18.789062 292.109375 19.0625 292.316406 19.101562 292.609375 C 19.390625 294.769531 19.78125 296.929688 20.269531 299.035156 C 20.335938 299.328125 20.152344 299.617188 19.863281 299.683594 C 19.820312 299.695312 19.78125 299.695312 19.738281 299.695312 Z M 152.144531 307.371094 C 152.082031 307.371094 152.019531 307.359375 151.960938 307.339844 C 151.679688 307.238281 151.53125 306.929688 151.632812 306.648438 C 152.363281 304.601562 153.007812 302.503906 153.539062 300.402344 C 153.609375 300.113281 153.90625 299.9375 154.195312 300.007812 C 154.484375 300.082031 154.660156 300.378906 154.589844 300.667969 C 154.046875 302.804688 153.394531 304.9375 152.652344 307.011719 C 152.574219 307.234375 152.363281 307.371094 152.144531 307.371094 Z M 23.894531 312.167969 C 23.6875 312.167969 23.492188 312.046875 23.402344 311.84375 C 22.507812 309.835938 21.703125 307.753906 21.007812 305.664062 C 20.910156 305.378906 21.066406 305.070312 21.347656 304.976562 C 21.632812 304.882812 21.941406 305.035156 22.035156 305.316406 C 22.71875 307.378906 23.511719 309.425781 24.390625 311.40625 C 24.511719 311.679688 24.390625 312 24.113281 312.121094 C 24.042969 312.152344 23.96875 312.167969 23.894531 312.167969 Z M 146.550781 319.269531 C 146.457031 319.269531 146.363281 319.246094 146.277344 319.195312 C 146.019531 319.042969 145.933594 318.710938 146.085938 318.457031 C 147.191406 316.582031 148.21875 314.644531 149.140625 312.683594 C 149.265625 312.410156 149.589844 312.296875 149.859375 312.421875 C 150.132812 312.546875 150.246094 312.871094 150.121094 313.140625 C 149.183594 315.136719 148.140625 317.109375 147.019531 319.003906 C 146.917969 319.175781 146.738281 319.269531 146.550781 319.269531 Z M 30.347656 323.617188 C 30.175781 323.617188 30.007812 323.535156 29.902344 323.386719 C 28.640625 321.578125 27.457031 319.6875 26.375 317.773438 C 26.230469 317.511719 26.320312 317.179688 26.582031 317.035156 C 26.839844 316.886719 27.171875 316.980469 27.320312 317.242188 C 28.382812 319.125 29.550781 320.984375 30.792969 322.765625 C 30.960938 323.011719 30.902344 323.351562 30.65625 323.519531 C 30.5625 323.585938 30.453125 323.617188 30.347656 323.617188 Z M 138.824219 329.902344 C 138.695312 329.902344 138.566406 329.859375 138.464844 329.765625 C 138.242188 329.570312 138.21875 329.226562 138.417969 329.003906 C 139.851562 327.378906 141.226562 325.667969 142.5 323.910156 C 142.675781 323.667969 143.015625 323.617188 143.257812 323.789062 C 143.5 323.96875 143.554688 324.304688 143.378906 324.546875 C 142.082031 326.328125 140.6875 328.070312 139.230469 329.71875 C 139.121094 329.839844 138.972656 329.902344 138.824219 329.902344 Z M 38.851562 333.636719 C 38.714844 333.636719 38.582031 333.585938 38.476562 333.484375 C 36.894531 331.945312 35.371094 330.316406 33.949219 328.640625 C 33.753906 328.410156 33.78125 328.066406 34.011719 327.875 C 34.238281 327.683594 34.582031 327.710938 34.773438 327.9375 C 36.175781 329.585938 37.675781 331.195312 39.230469 332.707031 C 39.445312 332.917969 39.449219 333.257812 39.242188 333.476562 C 39.132812 333.582031 38.996094 333.636719 38.851562 333.636719 Z M 129.230469 338.890625 C 129.070312 338.890625 128.910156 338.816406 128.804688 338.679688 C 128.621094 338.445312 128.664062 338.101562 128.902344 337.921875 C 130.613281 336.59375 132.285156 335.171875 133.871094 333.6875 C 134.085938 333.484375 134.433594 333.496094 134.636719 333.714844 C 134.839844 333.933594 134.828125 334.273438 134.609375 334.476562 C 133 335.984375 131.304688 337.429688 129.5625 338.777344 C 129.464844 338.851562 129.347656 338.890625 129.230469 338.890625 Z M 49.09375 341.875 C 48.992188 341.875 48.890625 341.847656 48.796875 341.785156 C 46.957031 340.574219 45.152344 339.257812 43.441406 337.878906 C 43.207031 337.691406 43.171875 337.351562 43.355469 337.121094 C 43.546875 336.886719 43.886719 336.847656 44.117188 337.035156 C 45.804688 338.394531 47.582031 339.6875 49.394531 340.882812 C 49.644531 341.046875 49.710938 341.382812 49.546875 341.632812 C 49.441406 341.789062 49.269531 341.875 49.09375 341.875 Z M 118.113281 345.898438 C 117.914062 345.898438 117.722656 345.789062 117.628906 345.597656 C 117.492188 345.332031 117.601562 345.007812 117.867188 344.871094 C 119.804688 343.894531 121.714844 342.816406 123.550781 341.660156 C 123.804688 341.5 124.140625 341.578125 124.296875 341.828125 C 124.457031 342.082031 124.382812 342.414062 124.128906 342.574219 C 122.265625 343.75 120.324219 344.847656 118.355469 345.835938 C 118.277344 345.875 118.195312 345.898438 118.113281 345.898438 Z M 60.707031 348.035156 C 60.640625 348.035156 60.570312 348.023438 60.5 347.992188 C 58.464844 347.148438 56.445312 346.203125 54.5 345.167969 C 54.238281 345.027344 54.136719 344.703125 54.277344 344.4375 C 54.417969 344.171875 54.746094 344.070312 55.007812 344.210938 C 56.925781 345.226562 58.910156 346.164062 60.914062 346.992188 C 61.191406 347.109375 61.324219 347.425781 61.207031 347.703125 C 61.121094 347.910156 60.921875 348.035156 60.707031 348.035156 Z M 105.859375 350.652344 C 105.621094 350.652344 105.40625 350.496094 105.335938 350.257812 C 105.257812 349.972656 105.425781 349.671875 105.710938 349.589844 C 107.804688 349 109.886719 348.304688 111.902344 347.523438 C 112.183594 347.417969 112.496094 347.550781 112.605469 347.832031 C 112.710938 348.109375 112.574219 348.421875 112.296875 348.53125 C 110.246094 349.328125 108.128906 350.035156 106.007812 350.632812 C 105.957031 350.648438 105.90625 350.652344 105.859375 350.652344 Z M 73.28125 351.882812 C 73.246094 351.882812 73.207031 351.878906 73.171875 351.871094 C 71.015625 351.429688 68.855469 350.882812 66.742188 350.234375 C 66.457031 350.152344 66.296875 349.847656 66.382812 349.558594 C 66.472656 349.273438 66.773438 349.113281 67.058594 349.199219 C 69.136719 349.835938 71.265625 350.378906 73.386719 350.808594 C 73.679688 350.871094 73.871094 351.15625 73.808594 351.449219 C 73.757812 351.703125 73.53125 351.882812 73.28125 351.882812 Z M 92.925781 353.003906 C 92.648438 353.003906 92.410156 352.789062 92.386719 352.511719 C 92.359375 352.210938 92.582031 351.949219 92.878906 351.921875 C 93.941406 351.832031 95.019531 351.714844 96.085938 351.570312 C 97.183594 351.425781 98.28125 351.253906 99.351562 351.058594 C 99.652344 351.003906 99.929688 351.203125 99.984375 351.496094 C 100.035156 351.789062 99.839844 352.074219 99.546875 352.125 C 98.457031 352.324219 97.339844 352.496094 96.230469 352.644531 C 95.148438 352.789062 94.050781 352.910156 92.972656 353.003906 C 92.957031 353.003906 92.941406 353.003906 92.925781 353.003906 Z M 86.351562 353.257812 C 86.351562 353.257812 86.347656 353.257812 86.347656 353.257812 C 84.140625 353.238281 81.910156 353.109375 79.726562 352.882812 C 79.429688 352.847656 79.214844 352.585938 79.246094 352.285156 C 79.277344 351.988281 79.542969 351.773438 79.839844 351.804688 C 81.992188 352.03125 84.183594 352.15625 86.355469 352.171875 C 86.65625 352.179688 86.894531 352.421875 86.890625 352.722656 C 86.890625 353.019531 86.648438 353.257812 86.351562 353.257812 "
    fill-opacity="1" fill-rule="nonzero" />
</svg>
