<svg xmlns="http://www.w3.org/2000/svg" xmlns:xlink="http://www.w3.org/1999/xlink" width="940" zoomAndPan="magnify" viewBox="0 0 705 591.000005" height="788" preserveAspectRatio="xMidYMid meet" version="1.0"><defs><clipPath id="a09fac2aa2"><path d="M 0.59375 536 L 704.402344 536 L 704.402344 575.558594 L 0.59375 575.558594 Z M 0.59375 536 " clip-rule="nonzero"/></clipPath><clipPath id="153c4b02f7"><path d="M 192 14.757812 L 513 14.757812 L 513 259 L 192 259 Z M 192 14.757812 " clip-rule="nonzero"/></clipPath><clipPath id="85c8c2f977"><path d="M 192 14.757812 L 513 14.757812 L 513 36 L 192 36 Z M 192 14.757812 " clip-rule="nonzero"/></clipPath></defs><g clip-path="url(#a09fac2aa2)"><path fill="#c5eae2" d="M 704.449219 556.238281 C 704.449219 567.007812 546.894531 575.730469 352.515625 575.730469 C 158.136719 575.730469 0.59375 567.007812 0.59375 556.238281 C 0.59375 545.464844 158.152344 536.730469 352.53125 536.730469 C 546.910156 536.730469 704.464844 545.464844 704.464844 556.238281 Z M 704.449219 556.238281 " fill-opacity="1" fill-rule="nonzero"/></g><path fill="#a2ddd0" d="M 640.429688 553.566406 C 640.429688 553.566406 619.601562 522.667969 632.859375 510.828125 C 641.003906 503.5625 644.972656 526.8125 644.972656 526.8125 C 644.972656 526.8125 649.59375 482.457031 664.59375 491.832031 C 671.929688 496.410156 656.511719 537.304688 656.511719 537.304688 C 656.511719 537.304688 667.476562 516.027344 676.132812 521.875 C 690.105469 531.296875 656.808594 553.257812 656.808594 553.257812 L 640.398438 553.582031 Z M 640.429688 553.566406 " fill-opacity="1" fill-rule="nonzero"/><path fill="#e0fbf0" d="M 648.371094 553.414062 L 659.148438 503.191406 C 659.195312 502.925781 659.039062 502.648438 658.746094 502.570312 C 658.464844 502.523438 658.203125 502.695312 658.140625 502.972656 L 647.316406 553.445312 Z M 648.371094 553.414062 " fill-opacity="1" fill-rule="nonzero"/><path fill="#e0fbf0" d="M 654.09375 553.304688 L 673.929688 529.1875 C 674.113281 528.96875 674.082031 528.644531 673.867188 528.472656 C 673.648438 528.285156 673.324219 528.316406 673.136719 528.535156 L 652.757812 553.320312 Z M 654.09375 553.304688 " fill-opacity="1" fill-rule="nonzero"/><path fill="#e0fbf0" d="M 644.695312 553.488281 L 636.535156 516.691406 C 636.472656 516.414062 636.210938 516.226562 635.914062 516.289062 C 635.621094 516.351562 635.464844 516.617188 635.527344 516.910156 L 643.625 553.488281 L 644.679688 553.460938 Z M 644.695312 553.488281 " fill-opacity="1" fill-rule="nonzero"/><path fill="#a2ddd0" d="M 64.742188 552.699219 C 64.742188 552.699219 91.417969 503.8125 73.707031 497.605469 C 62.011719 493.492188 58.195312 539.210938 58.195312 539.210938 C 58.195312 539.210938 57.140625 488.539062 41.617188 495.011719 C 29.890625 499.902344 45.558594 536.480469 45.558594 536.480469 C 45.558594 536.480469 28.542969 522.667969 26.402344 531.34375 C 22.992188 545.125 42.5625 552.929688 42.5625 552.929688 L 64.710938 552.667969 Z M 64.742188 552.699219 " fill-opacity="1" fill-rule="nonzero"/><path fill="#e0fbf0" d="M 59.265625 552.761719 L 72.1875 512.253906 C 72.25 512.039062 72.140625 511.789062 71.921875 511.726562 C 71.691406 511.664062 71.457031 511.773438 71.378906 511.992188 L 58.382812 552.761719 L 59.28125 552.761719 Z M 59.265625 552.761719 " fill-opacity="1" fill-rule="nonzero"/><path fill="#e0fbf0" d="M 55.902344 552.792969 L 46.640625 508.652344 C 46.597656 508.421875 46.378906 508.265625 46.144531 508.328125 C 45.914062 508.375 45.773438 508.59375 45.820312 508.824219 L 55.03125 552.808594 L 55.902344 552.808594 Z M 55.902344 552.792969 " fill-opacity="1" fill-rule="nonzero"/><path fill="#e0fbf0" d="M 51.140625 552.855469 L 33.550781 537.707031 C 33.367188 537.550781 33.101562 537.582031 32.949219 537.753906 C 32.792969 537.925781 32.824219 538.203125 32.996094 538.34375 L 49.851562 552.871094 Z M 51.140625 552.855469 " fill-opacity="1" fill-rule="nonzero"/><g clip-path="url(#153c4b02f7)"><path fill="#c1e5fd" d="M 198.882812 14.589844 L 506.179688 14.589844 C 509.671875 14.589844 512.507812 17.414062 512.507812 20.921875 L 512.507812 252.734375 C 512.507812 255.917969 509.933594 258.476562 506.769531 258.476562 L 198.324219 258.476562 C 195.144531 258.476562 192.585938 255.902344 192.585938 252.734375 L 192.585938 20.921875 C 192.585938 17.429688 195.40625 14.589844 198.910156 14.589844 Z M 198.882812 14.589844 " fill-opacity="1" fill-rule="nonzero"/></g><g clip-path="url(#85c8c2f977)"><path fill="#2f627c" d="M 198.882812 14.589844 L 506.179688 14.589844 C 509.671875 14.589844 512.507812 17.414062 512.507812 20.921875 L 512.507812 35.414062 L 192.554688 35.414062 L 192.554688 20.921875 C 192.554688 17.429688 195.375 14.589844 198.882812 14.589844 Z M 198.882812 14.589844 " fill-opacity="1" fill-rule="nonzero"/></g><path fill="#98d4fc" d="M 228.9375 25.015625 C 228.9375 27.5 230.953125 29.519531 233.4375 29.519531 C 235.917969 29.519531 237.933594 27.5 237.933594 25.015625 C 237.933594 22.535156 235.917969 20.515625 233.4375 20.515625 C 230.953125 20.515625 228.9375 22.535156 228.9375 25.015625 Z M 228.9375 25.015625 " fill-opacity="1" fill-rule="nonzero"/><path fill="#ffd471" d="M 214.125 25 C 214.125 27.484375 216.144531 29.503906 218.625 29.503906 C 221.105469 29.503906 223.121094 27.484375 223.121094 25 C 223.121094 22.519531 221.105469 20.5 218.625 20.5 C 216.144531 20.5 214.125 22.519531 214.125 25 Z M 214.125 25 " fill-opacity="1" fill-rule="nonzero"/><path fill="#a2ddd0" d="M 199.316406 24.972656 C 199.316406 27.453125 201.332031 29.472656 203.8125 29.472656 C 206.292969 29.472656 208.3125 27.453125 208.3125 24.972656 C 208.3125 22.488281 206.292969 20.46875 203.8125 20.46875 C 201.332031 20.46875 199.316406 22.488281 199.316406 24.972656 Z M 199.316406 24.972656 " fill-opacity="1" fill-rule="nonzero"/><path fill="#2f627c" d="M 284.878906 159.960938 C 284.445312 159.960938 284.105469 159.617188 284.105469 159.183594 L 284.105469 144.410156 L 255.398438 144.410156 C 254.992188 144.410156 254.652344 144.082031 254.621094 143.695312 L 253.984375 134.710938 C 253.984375 134.539062 254.015625 134.382812 254.09375 134.230469 L 284.074219 86.847656 C 284.210938 86.613281 284.460938 86.492188 284.726562 86.492188 L 299.148438 86.492188 C 299.582031 86.492188 299.921875 86.832031 299.921875 87.265625 L 299.921875 131.34375 L 307.289062 131.34375 C 307.726562 131.34375 308.066406 131.683594 308.066406 132.117188 L 308.066406 143.632812 C 308.066406 144.066406 307.726562 144.410156 307.289062 144.410156 L 299.921875 144.410156 L 299.921875 159.183594 C 299.921875 159.617188 299.582031 159.960938 299.148438 159.960938 Z M 284.105469 131.3125 L 284.105469 109.523438 L 270.394531 131.3125 Z M 284.105469 131.3125 " fill-opacity="1" fill-rule="nonzero"/><path fill="#2f627c" d="M 419.6875 160.953125 C 412.351562 160.953125 406.269531 158.980469 401.585938 155.085938 C 396.871094 151.160156 394.46875 145.898438 394.46875 139.457031 C 394.46875 139.023438 394.808594 138.683594 395.242188 138.683594 L 409.511719 138.683594 C 409.945312 138.683594 410.289062 139.023438 410.289062 139.457031 C 410.289062 141.941406 411.203125 143.914062 413.046875 145.496094 C 414.910156 147.078125 417.265625 147.871094 420.027344 147.871094 C 423.207031 147.871094 425.703125 147.03125 427.472656 145.386719 C 429.253906 143.742188 430.109375 141.585938 430.109375 138.824219 C 430.109375 132.101562 426.480469 128.828125 419.035156 128.828125 L 411.480469 128.828125 C 411.046875 128.828125 410.707031 128.488281 410.707031 128.050781 L 410.707031 116.878906 C 410.707031 116.441406 411.046875 116.101562 411.480469 116.101562 L 419.082031 116.101562 C 422.460938 116.101562 424.972656 115.265625 426.570312 113.617188 C 428.183594 111.941406 428.960938 109.769531 428.960938 106.945312 C 428.960938 104.121094 428.183594 102.226562 426.617188 100.753906 C 425.050781 99.277344 422.835938 98.535156 420.011719 98.535156 C 417.484375 98.535156 415.328125 99.230469 413.636719 100.613281 C 411.976562 101.964844 411.15625 103.6875 411.15625 105.859375 C 411.15625 106.292969 410.816406 106.636719 410.378906 106.636719 L 396.113281 106.636719 C 395.675781 106.636719 395.335938 106.292969 395.335938 105.859375 C 395.335938 101.964844 396.390625 98.425781 398.515625 95.320312 C 400.609375 92.234375 403.570312 89.796875 407.324219 88.058594 C 411.046875 86.335938 415.203125 85.464844 419.671875 85.464844 C 427.425781 85.464844 433.613281 87.359375 438.050781 91.117188 C 442.53125 94.886719 444.796875 100.164062 444.796875 106.757812 C 444.796875 110.203125 443.742188 113.417969 441.632812 116.320312 C 439.894531 118.726562 437.660156 120.679688 435.007812 122.140625 C 438.390625 123.628906 441.011719 125.691406 442.808594 128.300781 C 444.886719 131.328125 445.925781 134.925781 445.925781 139.023438 C 445.925781 145.636719 443.476562 151.003906 438.652344 154.992188 C 433.863281 158.953125 427.488281 160.953125 419.65625 160.953125 Z M 419.6875 160.953125 " fill-opacity="1" fill-rule="nonzero"/><path fill="#91cfe8" d="M 320.273438 135.671875 C 327.421875 169.441406 376.988281 169.394531 383.582031 135.5 C 384.015625 133.265625 384.261719 130.96875 384.261719 128.609375 C 384.308594 119.46875 381.082031 111.074219 375.6875 104.570312 C 371.53125 99.558594 368.753906 93.566406 367.542969 87.234375 C 367.21875 85.558594 366.070312 84.210938 364.566406 83.648438 L 338.945312 83.726562 C 337.441406 84.285156 336.277344 85.589844 335.96875 87.265625 C 335.640625 89.003906 335.175781 90.867188 334.570312 92.652344 C 334.570312 92.683594 334.539062 92.714844 334.539062 92.746094 C 333.066406 97.074219 330.847656 101.140625 327.917969 104.726562 C 322.628906 111.199219 319.464844 119.46875 319.496094 128.472656 C 319.496094 130.921875 319.761719 133.328125 320.273438 135.65625 Z M 320.273438 135.671875 " fill-opacity="1" fill-rule="nonzero"/><path fill="#4693b9" d="M 364.410156 83.648438 L 364.378906 74.820312 L 364.378906 70.613281 C 364.378906 68.085938 362.347656 66.035156 359.820312 65.941406 C 359.882812 65.941406 359.882812 65.570312 359.882812 65.570312 C 359.882812 60.992188 356.128906 57.265625 351.554688 57.28125 C 346.980469 57.28125 343.257812 61.039062 343.273438 65.601562 L 343.273438 65.988281 L 343.550781 65.988281 C 341.023438 66.082031 339.023438 68.144531 339.039062 70.691406 L 339.039062 74.898438 L 339.070312 83.726562 Z M 364.410156 83.648438 " fill-opacity="1" fill-rule="nonzero"/><path fill="#387694" d="M 359.449219 65.601562 C 354.222656 65.492188 348.964844 65.492188 343.738281 65.601562 C 343.195312 65.601562 343.195312 66.453125 343.738281 66.453125 C 348.964844 66.347656 354.207031 66.347656 359.449219 66.453125 C 359.992188 66.453125 359.992188 65.617188 359.449219 65.601562 Z M 359.449219 65.601562 " fill-opacity="1" fill-rule="nonzero"/><path fill="#387694" d="M 363.960938 74.679688 C 355.867188 74.679688 347.753906 74.710938 339.644531 74.789062 C 339.101562 74.789062 339.101562 75.640625 339.644531 75.640625 C 347.738281 75.582031 355.851562 75.535156 363.960938 75.535156 C 364.503906 75.535156 364.503906 74.679688 363.960938 74.679688 Z M 363.960938 74.679688 " fill-opacity="1" fill-rule="nonzero"/><path fill="#2f627c" d="M 356.796875 83.695312 C 358.082031 90.679688 359.496094 97.648438 362.9375 103.949219 C 364.90625 107.566406 366.785156 110.949219 367.945312 114.9375 C 369.109375 118.957031 370.257812 123.007812 370.847656 127.152344 C 370.910156 127.570312 371.59375 127.570312 371.53125 127.152344 C 370.476562 119.78125 368.414062 112.207031 364.722656 105.71875 C 360.75 98.75 358.9375 91.519531 357.492188 83.710938 Z M 356.796875 83.695312 " fill-opacity="1" fill-rule="nonzero"/><path fill="#2f627c" d="M 336.074219 133.640625 C 337.128906 134.183594 338.152344 134.804688 339.238281 135.253906 C 339.566406 135.394531 339.859375 135.546875 340.230469 135.515625 C 340.914062 135.46875 341.597656 134.894531 342.140625 134.539062 C 342.417969 134.351562 342.683594 134.105469 342.976562 133.933594 C 344.234375 133.234375 343.90625 133.46875 344.636719 133.824219 C 345.722656 134.351562 346.871094 135.96875 348.21875 135.609375 C 348.933594 135.421875 349.675781 134.773438 350.265625 134.335938 C 350.484375 134.167969 350.667969 133.980469 350.902344 133.824219 C 351.738281 133.25 351.910156 133.28125 352.671875 133.792969 C 353.648438 134.460938 355.382812 136.246094 356.609375 136.027344 C 358.191406 135.765625 359.136719 133.777344 360.582031 133.375 C 361.976562 133.003906 362.734375 135.75 364.148438 135.875 C 365.324219 135.96875 367.078125 133.933594 367.871094 133.203125 C 368.195312 132.910156 367.730469 132.414062 367.390625 132.722656 C 366.722656 133.328125 366.039062 133.902344 365.339844 134.445312 C 364.644531 134.988281 364.347656 135.222656 363.527344 134.648438 C 363.1875 134.414062 362.859375 133.996094 362.550781 133.714844 C 362.070312 133.28125 361.261719 132.289062 360.535156 132.429688 C 360.113281 132.507812 359.679688 133.097656 359.371094 133.34375 C 358.703125 133.886719 357.820312 134.773438 356.980469 135.066406 C 355.058594 135.703125 353.617188 132.925781 351.972656 132.535156 C 351.011719 132.304688 349.988281 133.683594 349.304688 134.152344 C 348.3125 134.832031 347.566406 134.988281 346.496094 134.257812 C 345.847656 133.808594 345.195312 133.296875 344.496094 132.910156 C 343.363281 132.289062 342.699219 133.28125 341.753906 133.902344 C 340.929688 134.445312 340.277344 134.832031 339.285156 134.492188 C 338.308594 134.167969 337.300781 133.484375 336.402344 133.019531 C 336.011719 132.816406 335.65625 133.40625 336.042969 133.59375 Z M 336.074219 133.640625 " fill-opacity="1" fill-rule="nonzero"/><path fill="#2f627c" d="M 334.089844 127.492188 C 334.585938 123.332031 335.609375 119.253906 336.679688 115.21875 C 337.734375 111.214844 339.535156 107.769531 341.410156 104.121094 C 344.699219 97.757812 345.925781 90.742188 347.039062 83.726562 L 346.34375 83.726562 C 345.085938 91.582031 343.457031 98.859375 339.660156 105.921875 C 336.121094 112.515625 334.277344 120.121094 333.394531 127.523438 C 333.347656 127.957031 334.011719 127.941406 334.074219 127.523438 Z M 334.089844 127.492188 " fill-opacity="1" fill-rule="nonzero"/><path fill="#ea3e46" d="M 265.804688 209.015625 L 259.226562 209.015625 L 257.972656 212.773438 L 253.984375 212.773438 L 260.761719 194.570312 L 264.238281 194.570312 L 271.046875 212.773438 L 267.058594 212.773438 L 265.789062 209.015625 Z M 260.234375 205.976562 L 264.78125 205.976562 L 262.484375 199.164062 L 260.21875 205.976562 Z M 260.234375 205.976562 " fill-opacity="1" fill-rule="nonzero"/><path fill="#ea3e46" d="M 286.773438 206.71875 C 286.632812 208.675781 285.902344 210.210938 284.617188 211.34375 C 283.3125 212.476562 281.589844 213.039062 279.453125 213.039062 C 277.125 213.039062 275.28125 212.261719 273.945312 210.679688 C 272.613281 209.109375 271.929688 206.953125 271.929688 204.207031 L 271.929688 203.089844 C 271.929688 201.335938 272.238281 199.800781 272.84375 198.464844 C 273.449219 197.128906 274.347656 196.105469 275.496094 195.390625 C 276.628906 194.675781 277.960938 194.320312 279.484375 194.320312 C 281.578125 194.320312 283.265625 194.878906 284.554688 196.011719 C 285.839844 197.144531 286.570312 198.710938 286.789062 200.746094 L 283.035156 200.746094 C 282.941406 199.566406 282.617188 198.726562 282.042969 198.183594 C 281.484375 197.65625 280.613281 197.394531 279.46875 197.394531 C 278.210938 197.394531 277.28125 197.84375 276.660156 198.742188 C 276.039062 199.644531 275.730469 201.039062 275.699219 202.917969 L 275.699219 204.285156 C 275.699219 206.253906 275.992188 207.683594 276.597656 208.597656 C 277.203125 209.515625 278.132812 209.949219 279.421875 209.949219 C 280.566406 209.949219 281.4375 209.683594 282.027344 209.15625 C 282.617188 208.628906 282.925781 207.808594 283.019531 206.707031 L 286.773438 206.707031 Z M 286.773438 206.71875 " fill-opacity="1" fill-rule="nonzero"/><path fill="#ea3e46" d="M 303.507812 206.71875 C 303.367188 208.675781 302.636719 210.210938 301.351562 211.34375 C 300.046875 212.476562 298.328125 213.039062 296.1875 213.039062 C 293.859375 213.039062 292.015625 212.261719 290.679688 210.679688 C 289.347656 209.109375 288.664062 206.953125 288.664062 204.207031 L 288.664062 203.089844 C 288.664062 201.335938 288.972656 199.800781 289.578125 198.464844 C 290.183594 197.128906 291.082031 196.105469 292.230469 195.390625 C 293.363281 194.675781 294.695312 194.320312 296.21875 194.320312 C 298.3125 194.320312 300 194.878906 301.289062 196.011719 C 302.574219 197.144531 303.304688 198.710938 303.523438 200.746094 L 299.769531 200.746094 C 299.675781 199.566406 299.351562 198.726562 298.777344 198.183594 C 298.21875 197.65625 297.347656 197.394531 296.203125 197.394531 C 294.945312 197.394531 294.015625 197.84375 293.394531 198.742188 C 292.773438 199.644531 292.464844 201.039062 292.433594 202.917969 L 292.433594 204.285156 C 292.433594 206.253906 292.726562 207.683594 293.332031 208.597656 C 293.9375 209.515625 294.867188 209.949219 296.15625 209.949219 C 297.300781 209.949219 298.171875 209.683594 298.761719 209.15625 C 299.335938 208.628906 299.660156 207.808594 299.753906 206.707031 L 303.507812 206.707031 Z M 303.507812 206.71875 " fill-opacity="1" fill-rule="nonzero"/><path fill="#ea3e46" d="M 316.921875 204.890625 L 309.726562 204.890625 L 309.726562 209.761719 L 318.179688 209.761719 L 318.179688 212.773438 L 305.988281 212.773438 L 305.988281 194.570312 L 318.164062 194.570312 L 318.164062 197.609375 L 309.742188 197.609375 L 309.742188 201.957031 L 316.9375 201.957031 L 316.9375 204.890625 Z M 316.921875 204.890625 " fill-opacity="1" fill-rule="nonzero"/><path fill="#ea3e46" d="M 329.808594 207.992188 C 329.808594 207.292969 329.546875 206.734375 329.050781 206.363281 C 328.554688 205.976562 327.652344 205.585938 326.351562 205.152344 C 325.046875 204.71875 324.023438 204.316406 323.265625 203.910156 C 321.203125 202.792969 320.164062 201.289062 320.164062 199.394531 C 320.164062 198.402344 320.441406 197.53125 321 196.757812 C 321.542969 195.980469 322.351562 195.390625 323.390625 194.957031 C 324.429688 194.523438 325.589844 194.304688 326.878906 194.304688 C 328.164062 194.304688 329.328125 194.539062 330.351562 195.003906 C 331.359375 195.484375 332.152344 196.136719 332.726562 197.003906 C 333.300781 197.875 333.5625 198.835938 333.5625 199.9375 L 329.808594 199.9375 C 329.808594 199.101562 329.546875 198.449219 329.019531 198 C 328.492188 197.53125 327.746094 197.300781 326.800781 197.300781 C 325.855469 197.300781 325.171875 197.488281 324.660156 197.875 C 324.148438 198.261719 323.886719 198.773438 323.886719 199.410156 C 323.886719 200 324.179688 200.496094 324.785156 200.902344 C 325.390625 201.304688 326.257812 201.675781 327.421875 202.035156 C 329.5625 202.671875 331.113281 203.460938 332.074219 204.421875 C 333.050781 205.371094 333.53125 206.566406 333.53125 207.976562 C 333.53125 209.546875 332.925781 210.800781 331.734375 211.6875 C 330.539062 212.570312 328.941406 213.039062 326.925781 213.039062 C 325.53125 213.039062 324.257812 212.773438 323.09375 212.261719 C 321.929688 211.75 321.078125 211.050781 320.457031 210.152344 C 319.851562 209.25 319.542969 208.226562 319.542969 207.046875 L 323.3125 207.046875 C 323.3125 209.0625 324.519531 210.058594 326.910156 210.058594 C 327.808594 210.058594 328.492188 209.871094 328.988281 209.515625 C 329.484375 209.15625 329.746094 208.644531 329.746094 207.992188 Z M 329.808594 207.992188 " fill-opacity="1" fill-rule="nonzero"/><path fill="#ea3e46" d="M 345.550781 207.992188 C 345.550781 207.292969 345.289062 206.734375 344.792969 206.363281 C 344.296875 205.976562 343.394531 205.585938 342.09375 205.152344 C 340.789062 204.71875 339.765625 204.316406 339.007812 203.910156 C 336.945312 202.792969 335.90625 201.289062 335.90625 199.394531 C 335.90625 198.402344 336.183594 197.53125 336.742188 196.757812 C 337.285156 195.980469 338.09375 195.390625 339.132812 194.957031 C 340.171875 194.523438 341.332031 194.304688 342.621094 194.304688 C 343.90625 194.304688 345.070312 194.539062 346.09375 195.003906 C 347.101562 195.484375 347.894531 196.136719 348.46875 197.003906 C 349.042969 197.875 349.304688 198.835938 349.304688 199.9375 L 345.550781 199.9375 C 345.550781 199.101562 345.289062 198.449219 344.761719 198 C 344.234375 197.546875 343.488281 197.300781 342.542969 197.300781 C 341.597656 197.300781 340.914062 197.488281 340.402344 197.875 C 339.890625 198.261719 339.628906 198.773438 339.628906 199.410156 C 339.628906 200 339.921875 200.496094 340.527344 200.902344 C 341.132812 201.304688 342 201.675781 343.164062 202.035156 C 345.304688 202.671875 346.855469 203.460938 347.816406 204.421875 C 348.792969 205.371094 349.273438 206.566406 349.273438 207.976562 C 349.273438 209.546875 348.667969 210.800781 347.476562 211.6875 C 346.28125 212.570312 344.683594 213.039062 342.667969 213.039062 C 341.269531 213.039062 340 212.773438 338.835938 212.261719 C 337.6875 211.75 336.820312 211.050781 336.199219 210.152344 C 335.59375 209.25 335.285156 208.226562 335.285156 207.046875 L 339.054688 207.046875 C 339.054688 209.0625 340.261719 210.058594 342.652344 210.058594 C 343.550781 210.058594 344.234375 209.871094 344.746094 209.515625 C 345.257812 209.15625 345.503906 208.644531 345.503906 207.992188 Z M 345.550781 207.992188 " fill-opacity="1" fill-rule="nonzero"/><path fill="#ea3e46" d="M 358.222656 212.773438 L 358.222656 194.570312 L 363.820312 194.570312 C 365.417969 194.570312 366.863281 194.925781 368.101562 195.640625 C 369.375 196.355469 370.351562 197.378906 371.066406 198.710938 C 371.777344 200.046875 372.121094 201.550781 372.121094 203.246094 L 372.121094 204.082031 C 372.121094 205.773438 371.777344 207.28125 371.066406 208.597656 C 370.367188 209.917969 369.390625 210.941406 368.117188 211.65625 C 366.847656 212.386719 365.417969 212.742188 363.835938 212.757812 Z M 361.976562 197.609375 L 361.976562 209.761719 L 363.789062 209.761719 C 365.265625 209.761719 366.378906 209.28125 367.15625 208.335938 C 367.933594 207.371094 368.320312 206.007812 368.351562 204.222656 L 368.351562 203.261719 C 368.351562 201.398438 367.960938 200 367.203125 199.054688 C 366.441406 198.105469 365.324219 197.625 363.835938 197.625 L 361.976562 197.625 Z M 361.976562 197.609375 " fill-opacity="1" fill-rule="nonzero"/><path fill="#ea3e46" d="M 385.796875 204.890625 L 378.601562 204.890625 L 378.601562 209.761719 L 387.054688 209.761719 L 387.054688 212.773438 L 374.863281 212.773438 L 374.863281 194.570312 L 387.039062 194.570312 L 387.039062 197.609375 L 378.617188 197.609375 L 378.617188 201.957031 L 385.8125 201.957031 L 385.8125 204.890625 Z M 385.796875 204.890625 " fill-opacity="1" fill-rule="nonzero"/><path fill="#ea3e46" d="M 404.050781 212.773438 L 400.300781 212.773438 L 393.011719 200.792969 L 393.011719 212.773438 L 389.257812 212.773438 L 389.257812 194.570312 L 393.011719 194.570312 L 400.316406 206.582031 L 400.316406 194.570312 L 404.050781 194.570312 Z M 404.050781 212.773438 " fill-opacity="1" fill-rule="nonzero"/><path fill="#ea3e46" d="M 407.558594 194.570312 L 411.3125 194.570312 L 411.3125 212.773438 L 407.558594 212.773438 Z M 407.558594 194.570312 " fill-opacity="1" fill-rule="nonzero"/><path fill="#ea3e46" d="M 425.734375 204.890625 L 418.539062 204.890625 L 418.539062 209.761719 L 426.992188 209.761719 L 426.992188 212.773438 L 414.800781 212.773438 L 414.800781 194.570312 L 426.976562 194.570312 L 426.976562 197.609375 L 418.554688 197.609375 L 418.554688 201.957031 L 425.75 201.957031 L 425.75 204.890625 Z M 425.734375 204.890625 " fill-opacity="1" fill-rule="nonzero"/><path fill="#ea3e46" d="M 429.175781 212.773438 L 429.175781 194.570312 L 434.777344 194.570312 C 436.375 194.570312 437.816406 194.925781 439.058594 195.640625 C 440.328125 196.355469 441.304688 197.378906 442.019531 198.710938 C 442.734375 200.046875 443.074219 201.550781 443.074219 203.246094 L 443.074219 204.082031 C 443.074219 205.773438 442.734375 207.28125 442.019531 208.597656 C 441.320312 209.917969 440.34375 210.941406 439.074219 211.65625 C 437.800781 212.386719 436.375 212.742188 434.792969 212.757812 L 429.164062 212.757812 Z M 432.929688 197.609375 L 432.929688 209.761719 L 434.746094 209.761719 C 436.21875 209.761719 437.335938 209.28125 438.109375 208.335938 C 438.886719 207.371094 439.273438 206.007812 439.304688 204.222656 L 439.304688 203.261719 C 439.304688 201.398438 438.917969 200 438.15625 199.054688 C 437.398438 198.105469 436.28125 197.625 434.792969 197.625 L 432.929688 197.625 Z M 432.929688 197.609375 " fill-opacity="1" fill-rule="nonzero"/><path fill="#ea3e46" d="M 447.757812 209.15625 C 448.378906 209.15625 448.859375 209.34375 449.230469 209.699219 C 449.601562 210.058594 449.773438 210.523438 449.773438 211.066406 C 449.773438 211.609375 449.585938 212.058594 449.230469 212.417969 C 448.859375 212.773438 448.378906 212.960938 447.757812 212.960938 C 447.136719 212.960938 446.671875 212.773438 446.300781 212.417969 C 445.925781 212.058594 445.757812 211.609375 445.757812 211.066406 C 445.757812 210.523438 445.941406 210.058594 446.300781 209.699219 C 446.671875 209.34375 447.152344 209.15625 447.757812 209.15625 Z M 449.261719 207.1875 L 446.269531 207.1875 L 445.851562 194.570312 L 449.695312 194.570312 L 449.277344 207.1875 Z M 449.261719 207.1875 " fill-opacity="1" fill-rule="nonzero"/><path fill="#ffa18a" d="M 217.738281 308.03125 C 217.136719 307.410156 215.105469 305.503906 214.359375 306.835938 C 214.203125 307.101562 214.203125 307.425781 214.265625 307.753906 C 213.722656 307.070312 212.980469 306.480469 212.140625 306.292969 C 211.148438 306.0625 210.527344 306.789062 210.683594 307.738281 C 210.527344 307.582031 210.359375 307.457031 210.15625 307.347656 C 209.753906 307.117188 209.273438 306.835938 208.808594 306.820312 C 207.8125 306.761719 207.644531 307.863281 207.828125 308.621094 C 207.519531 308.4375 207.210938 308.296875 206.835938 308.359375 C 206.480469 308.421875 206.21875 308.683594 206.125 309.042969 C 205.875 310.019531 206.730469 310.964844 207.257812 311.679688 C 207.394531 311.867188 207.519531 312.082031 207.644531 312.269531 C 206.929688 312.503906 206.203125 312.65625 205.457031 312.734375 C 203.984375 312.84375 202.558594 312.765625 201.082031 312.441406 C 199.875 312.175781 198.726562 311.945312 197.484375 312.113281 C 194.894531 312.503906 192.722656 314.210938 190.628906 315.652344 C 185.542969 319.207031 180.300781 322.480469 174.917969 325.507812 L 179.835938 333.59375 C 183.820312 330.472656 187.792969 327.277344 192.101562 324.621094 C 194.195312 323.335938 196.414062 322.21875 198.773438 321.503906 C 201.144531 320.789062 203.503906 320.664062 205.96875 320.726562 C 208.21875 320.804688 210.542969 320.929688 212.730469 320.230469 C 214.652344 319.625 216.234375 318.367188 217.617188 316.910156 C 218.6875 315.777344 220.390625 314.269531 220.300781 312.546875 C 220.207031 310.917969 218.808594 309.179688 217.726562 308.046875 Z M 217.738281 308.03125 " fill-opacity="1" fill-rule="nonzero"/><path fill="#ffa18a" d="M 136.378906 514.863281 L 152.804688 514.863281 C 152.695312 512.984375 152.617188 511.089844 152.617188 509.183594 C 152.648438 502.695312 153.390625 496.191406 154.214844 489.75 C 155.019531 483.542969 156.292969 477.476562 158.496094 471.625 C 159.671875 468.503906 160.960938 465.417969 161.675781 462.140625 C 162.21875 459.613281 162.355469 457.050781 162.15625 454.492188 L 138.78125 454.492188 C 139.0625 459.085938 139.324219 463.679688 137.835938 468.132812 C 137.015625 470.523438 136.128906 472.882812 135.527344 475.347656 C 134.953125 477.738281 134.5625 480.175781 134.316406 482.628906 C 133.292969 492.933594 134.828125 503.332031 136.175781 513.527344 C 136.222656 513.960938 136.300781 514.394531 136.363281 514.847656 Z M 136.378906 514.863281 " fill-opacity="1" fill-rule="nonzero"/><path fill="#ffd471" d="M 153.035156 514.863281 C 153.222656 513.230469 153.390625 511.601562 153.546875 509.988281 C 153.546875 509.988281 148.570312 510.53125 135 509.800781 C 135 509.800781 135.199219 512.070312 135.464844 514.878906 Z M 153.035156 514.863281 " fill-opacity="1" fill-rule="nonzero"/><path fill="#091317" d="M 172.34375 547.792969 C 171.941406 545.699219 170.484375 544.273438 168.824219 543.167969 C 165.644531 541.027344 155.71875 538.1875 154.664062 537.242188 C 152.632812 535.425781 152.246094 532.445312 152.351562 529.839844 C 152.539062 524.3125 153.269531 518.757812 153.71875 513.246094 C 153.71875 513.246094 146.722656 514.953125 134.765625 513.015625 C 134.765625 513.015625 135.574219 522.902344 135.976562 527.851562 C 136.175781 530.273438 136.378906 532.695312 136.207031 535.128906 C 136.039062 537.257812 135.585938 539.335938 135.152344 541.414062 C 134.734375 543.496094 134.316406 545.589844 134.238281 547.71875 L 134.238281 548.878906 C 135.558594 550.230469 138.675781 550.105469 140.148438 550.027344 C 143.871094 549.875 147.4375 549.316406 151.191406 549.546875 C 156.011719 549.859375 160.789062 550.632812 165.628906 550.820312 C 167.289062 550.882812 168.871094 550.867188 170.359375 550.632812 C 172.28125 550.136719 172.453125 548.335938 172.328125 547.777344 Z M 172.34375 547.792969 " fill-opacity="1" fill-rule="nonzero"/><path fill="#ffa18a" d="M 108.292969 514.863281 L 124.714844 514.863281 C 124.605469 512.984375 124.515625 511.089844 124.53125 509.183594 C 124.5625 502.695312 125.304688 496.191406 126.128906 489.75 C 126.933594 483.542969 128.207031 477.476562 130.40625 471.625 C 131.585938 468.503906 132.875 465.417969 133.585938 462.140625 C 134.128906 459.613281 134.269531 457.050781 134.066406 454.492188 L 110.710938 454.492188 C 110.988281 459.085938 111.253906 463.679688 109.765625 468.132812 C 108.941406 470.523438 108.058594 472.882812 107.453125 475.347656 C 106.878906 477.738281 106.492188 480.175781 106.246094 482.628906 C 105.222656 492.933594 106.757812 503.332031 108.105469 513.527344 C 108.167969 513.960938 108.230469 514.394531 108.292969 514.863281 Z M 108.292969 514.863281 " fill-opacity="1" fill-rule="nonzero"/><path fill="#ffd471" d="M 124.933594 514.863281 C 125.117188 513.230469 125.289062 511.601562 125.445312 509.988281 C 125.445312 509.988281 120.464844 510.53125 106.894531 509.800781 C 106.894531 509.800781 107.097656 512.070312 107.359375 514.878906 Z M 124.933594 514.863281 " fill-opacity="1" fill-rule="nonzero"/><path fill="#12252e" d="M 144.242188 547.792969 C 143.839844 545.699219 142.382812 544.273438 140.722656 543.167969 C 137.542969 541.027344 127.617188 538.1875 126.5625 537.242188 C 124.53125 535.425781 124.140625 532.445312 124.25 529.839844 C 124.4375 524.3125 125.148438 518.757812 125.617188 513.246094 C 125.617188 513.246094 118.621094 514.953125 106.664062 513.015625 C 106.664062 513.015625 107.484375 522.902344 107.871094 527.851562 C 108.074219 530.273438 108.277344 532.695312 108.089844 535.128906 C 107.933594 537.257812 107.46875 539.335938 107.035156 541.414062 C 106.617188 543.496094 106.199219 545.589844 106.121094 547.71875 L 106.121094 548.878906 C 107.4375 550.230469 110.554688 550.105469 112.03125 550.027344 C 115.734375 549.875 119.320312 549.316406 123.070312 549.546875 C 127.894531 549.859375 132.671875 550.632812 137.511719 550.820312 C 139.171875 550.882812 140.753906 550.867188 142.242188 550.632812 C 144.164062 550.136719 144.320312 548.335938 144.226562 547.777344 Z M 144.242188 547.792969 " fill-opacity="1" fill-rule="nonzero"/><path fill="#ffa18a" d="M 127.167969 298.75 C 132.6875 298.347656 144.707031 283.464844 143.917969 283.527344 C 138.75 282.113281 136.921875 282.394531 133.464844 281.773438 C 131.648438 281.449219 130.222656 279.988281 130.066406 278.140625 L 129.757812 274.820312 C 133.789062 274.277344 137.183594 270.613281 139.496094 266.144531 C 141.402344 262.46875 142.96875 257.902344 142.832031 253.234375 C 142.832031 253.234375 142.800781 252.691406 142.800781 252.441406 C 142.117188 240.847656 136.457031 232.09375 125.707031 232.40625 C 116.371094 232.667969 108.957031 242.460938 108.246094 254.039062 C 107.917969 259.472656 111.503906 267.542969 112.664062 268.628906 L 113.582031 279.429688 C 113.734375 281.246094 112.542969 282.472656 110.929688 283.574219 C 108.835938 285.015625 103.824219 286.753906 100.878906 287.609375 C 100.878906 287.609375 115.253906 299.621094 127.167969 298.75 L 127.183594 298.75 Z M 127.167969 298.75 " fill-opacity="1" fill-rule="nonzero"/><path fill="#98d4fc" d="M 179.851562 322.527344 C 175.941406 322.605469 174.375 324.171875 172.40625 322.929688 C 170.390625 321.644531 169.042969 319.53125 167.769531 317.578125 C 165.039062 313.308594 163.273438 308.558594 160.652344 304.246094 C 159.410156 302.179688 158 300.242188 156.804688 298.148438 C 155.546875 295.988281 154.429688 293.769531 153.113281 291.644531 C 152.695312 290.652344 152.214844 289.6875 151.546875 288.757812 C 148.105469 283.960938 140.410156 282.007812 135.433594 282.066406 C 135.992188 286.117188 133.136719 291.550781 126.546875 292.3125 C 118.605469 293.226562 110.539062 291.738281 106.183594 285.777344 C 106.183594 285.777344 96.519531 288.292969 94.457031 292.125 C 91.914062 296.875 92.875 302.617188 94.660156 307.441406 C 95.699219 310.234375 100.117188 321.363281 100.800781 324.328125 C 101.839844 328.8125 102.722656 333.5 104.878906 337.597656 C 104.179688 351.96875 100.863281 366.058594 99.171875 380.339844 C 97.3125 396.167969 95.574219 440.800781 96.347656 455.1875 C 96.347656 455.1875 116.714844 458.199219 126.46875 459.332031 C 136.535156 460.496094 146.382812 459.535156 156.355469 458.105469 C 162.25 457.269531 168.109375 456.398438 174.003906 455.546875 C 172.3125 440.195312 168.328125 425.28125 164.527344 410.367188 C 160.667969 395.175781 157.410156 379.871094 155.703125 364.261719 C 155.394531 361.433594 154.742188 352.308594 154.554688 350.570312 C 154.292969 346.273438 154.152344 341.957031 154.074219 337.660156 C 154.074219 337.332031 154.804688 330.953125 155.59375 329.324219 C 159.316406 334.011719 163.859375 338.265625 169.957031 339.179688 C 173.042969 339.644531 176.363281 339.117188 179 337.378906 C 182.207031 335.253906 184.378906 331.421875 186.644531 328.472656 C 182.613281 327.960938 179.820312 322.511719 179.820312 322.511719 Z M 179.851562 322.527344 " fill-opacity="1" fill-rule="nonzero"/><path fill="#a55852" d="M 143.589844 239.46875 C 142.753906 236.347656 140.722656 233.523438 137.695312 232.40625 C 135.324219 228.695312 130.65625 227.347656 126.484375 227.003906 C 121.769531 226.601562 115.691406 225.886719 110.960938 229.039062 C 108.925781 230.386719 106.894531 232.078125 103.933594 237.667969 C 101.730469 241.808594 99.964844 248.714844 101.046875 253.0625 C 101.652344 255.453125 102.660156 257.765625 104.257812 259.640625 C 104.320312 259.71875 104.414062 259.796875 104.492188 259.875 C 102.117188 260.199219 99.917969 262.140625 98.613281 263.988281 C 96.96875 266.347656 95.929688 269.902344 97.078125 272.664062 C 97.699219 274.136719 98.984375 275.253906 100.367188 275.984375 C 101.886719 276.777344 103.40625 276.855469 105.082031 276.605469 C 106.800781 276.339844 111.90625 274.183594 113.023438 272.804688 L 112.679688 268.613281 C 113.378906 266.59375 112.554688 262.25 112.433594 261.535156 C 112.976562 259.007812 114.402344 256.710938 115.875 254.566406 C 116.929688 253.03125 118.03125 251.558594 119.613281 250.546875 C 121.023438 249.632812 122.605469 248.996094 124.109375 248.28125 C 128.671875 246.09375 133.386719 242.957031 134.859375 237.992188 C 136.410156 239.652344 137.851562 241.390625 138.921875 243.472656 C 140.441406 246.464844 141.960938 251.371094 142.832031 254.613281 C 142.832031 254.613281 143.464844 253.480469 143.527344 252.90625 C 143.960938 248.5 144.800781 243.828125 143.636719 239.46875 Z M 143.589844 239.46875 " fill-opacity="1" fill-rule="nonzero"/><path fill="#7abde1" d="M 105.359375 337.691406 C 107.066406 340.964844 110.183594 343.417969 113.84375 344.101562 C 117.984375 344.875 122.667969 343.632812 126.546875 342.160156 C 133.324219 339.597656 138.300781 333.855469 143.046875 328.597656 C 146.042969 325.257812 148.800781 321.722656 151.035156 317.824219 C 151.144531 317.640625 151.421875 317.792969 151.296875 317.980469 C 147.5 324.667969 142.117188 330.179688 136.734375 335.609375 C 133.773438 338.574219 130.59375 340.964844 126.625 342.453125 C 122.808594 343.898438 118.234375 345.09375 114.136719 344.457031 C 110.246094 343.851562 106.878906 341.304688 105.082031 337.84375 C 104.988281 337.660156 105.265625 337.503906 105.359375 337.691406 Z M 105.359375 337.691406 " fill-opacity="1" fill-rule="nonzero"/><path fill="#7abde1" d="M 105.5 290.945312 C 109.796875 295.304688 112.601562 300.863281 114.183594 306.746094 C 115.085938 310.066406 115.441406 313.527344 116.683594 316.753906 C 117.9375 320.011719 119.769531 323.023438 120.886719 326.359375 C 120.945312 326.5625 120.636719 326.640625 120.574219 326.4375 C 119.519531 323.257812 117.796875 320.371094 116.558594 317.28125 C 115.300781 314.179688 114.898438 310.902344 114.109375 307.675781 C 112.585938 301.53125 109.75 295.695312 105.28125 291.164062 C 105.144531 291.023438 105.375 290.804688 105.5 290.945312 Z M 105.5 290.945312 " fill-opacity="1" fill-rule="nonzero"/><path fill="#7abde1" d="M 115.84375 331.453125 C 118.433594 326.578125 123.878906 324.933594 128.46875 322.574219 C 133.648438 319.90625 138.195312 316.179688 142.257812 312.019531 C 142.394531 311.867188 142.613281 312.097656 142.488281 312.238281 C 138.734375 316.101562 134.5625 319.5625 129.863281 322.1875 C 125.058594 324.855469 118.914062 326.390625 116.140625 331.589844 C 116.046875 331.777344 115.765625 331.621094 115.859375 331.4375 Z M 115.84375 331.453125 " fill-opacity="1" fill-rule="nonzero"/><path fill="#7abde1" d="M 155.285156 329.09375 C 157.035156 325.523438 155.394531 321.613281 153.671875 318.398438 C 153.5625 318.214844 153.84375 318.058594 153.933594 318.230469 C 155.734375 321.566406 157.347656 325.570312 155.546875 329.246094 C 155.457031 329.433594 155.191406 329.277344 155.285156 329.09375 Z M 155.285156 329.09375 " fill-opacity="1" fill-rule="nonzero"/><path fill="#7abde1" d="M 140.828125 283.867188 C 142.96875 286.257812 144.894531 288.898438 145.886719 292 C 147.003906 295.476562 147.3125 299.25 147.871094 302.863281 C 147.902344 303.066406 147.59375 303.144531 147.5625 302.941406 C 147.035156 299.542969 146.722656 296.050781 145.777344 292.730469 C 144.832031 289.394531 142.894531 286.632812 140.613281 284.085938 C 140.488281 283.929688 140.707031 283.714844 140.828125 283.867188 Z M 140.828125 283.867188 " fill-opacity="1" fill-rule="nonzero"/><path fill="#7abde1" d="M 172.808594 323.457031 C 172.808594 323.457031 172.777344 323.429688 172.777344 323.414062 C 172.824219 323.445312 172.871094 323.472656 172.917969 323.488281 C 172.6875 323.457031 172.21875 324.019531 172.082031 324.15625 C 171.847656 324.375 171.648438 324.605469 171.445312 324.855469 C 171.011719 325.382812 170.625 325.957031 170.3125 326.5625 C 169.691406 327.773438 169.304688 329.09375 169.210938 330.457031 C 169.210938 330.660156 168.886719 330.660156 168.886719 330.457031 C 168.996094 328.890625 169.460938 327.339844 170.265625 325.988281 C 170.53125 325.539062 172.5625 322.589844 173.089844 323.304688 C 173.199219 323.472656 172.933594 323.628906 172.808594 323.457031 Z M 172.808594 323.457031 " fill-opacity="1" fill-rule="nonzero"/><path fill="#7abde1" d="M 157.394531 457.066406 C 154.585938 436.207031 151.949219 415.335938 149.453125 394.429688 C 148.753906 388.515625 148.042969 382.589844 147.375 376.660156 C 147.34375 376.457031 147.667969 376.472656 147.699219 376.660156 C 150.105469 397.566406 152.664062 418.453125 155.378906 439.328125 C 156.152344 445.242188 156.929688 451.152344 157.71875 457.066406 C 157.75 457.269531 157.425781 457.269531 157.394531 457.066406 Z M 157.394531 457.066406 " fill-opacity="1" fill-rule="nonzero"/><path fill="#7abde1" d="M 140.582031 459.164062 C 140.84375 447.398438 140.660156 435.617188 140.023438 423.886719 C 140.023438 423.683594 140.332031 423.683594 140.347656 423.886719 C 140.96875 435.632812 141.171875 447.398438 140.890625 459.164062 C 140.890625 459.363281 140.566406 459.363281 140.566406 459.164062 Z M 140.582031 459.164062 " fill-opacity="1" fill-rule="nonzero"/><path fill="#7abde1" d="M 114.152344 456.304688 C 114.109375 435.511719 114.046875 414.683594 113.984375 393.871094 C 113.984375 387.988281 113.953125 382.109375 113.9375 376.226562 C 113.9375 376.023438 114.261719 376.023438 114.261719 376.226562 C 114.308594 397.039062 114.371094 417.847656 114.449219 438.660156 C 114.449219 444.558594 114.480469 450.425781 114.496094 456.304688 C 114.496094 456.507812 114.167969 456.507812 114.167969 456.304688 Z M 114.152344 456.304688 " fill-opacity="1" fill-rule="nonzero"/><path fill="#254d62" d="M 160.867188 313.960938 C 158.136719 313.960938 155.625 312.488281 154.277344 310.113281 C 152.941406 307.738281 152.988281 304.804688 154.417969 302.476562 L 204.046875 220.953125 C 205.410156 218.6875 207.828125 217.320312 210.496094 217.320312 C 213.164062 217.320312 215.570312 218.671875 216.949219 220.953125 L 266.5625 302.460938 C 267.988281 304.773438 268.035156 307.707031 266.703125 310.097656 C 265.367188 312.488281 262.855469 313.945312 260.113281 313.945312 Z M 160.867188 313.960938 " fill-opacity="1" fill-rule="nonzero"/><path fill="#ffd471" d="M 160.867188 308.46875 L 260.113281 308.46875 C 261.722656 308.46875 262.71875 306.699219 261.863281 305.332031 L 212.25 223.808594 C 211.445312 222.488281 209.535156 222.488281 208.730469 223.808594 L 159.101562 305.332031 C 158.261719 306.714844 159.253906 308.46875 160.867188 308.46875 Z M 160.867188 308.46875 " fill-opacity="1" fill-rule="nonzero"/><path fill="#254d62" d="M 210.496094 286.210938 C 212.203125 286.210938 213.582031 284.832031 213.582031 283.125 L 213.582031 248.375 C 213.582031 246.667969 212.203125 245.285156 210.496094 245.285156 C 208.792969 245.285156 207.410156 246.667969 207.410156 248.375 L 207.410156 283.125 C 207.410156 284.832031 208.792969 286.210938 210.496094 286.210938 Z M 210.496094 286.210938 " fill-opacity="1" fill-rule="nonzero"/><path fill="#254d62" d="M 207.101562 295.910156 C 207.101562 297.789062 208.621094 299.308594 210.496094 299.308594 C 212.375 299.308594 213.894531 297.789062 213.894531 295.910156 C 213.894531 294.035156 212.375 292.511719 210.496094 292.511719 C 208.621094 292.511719 207.101562 294.035156 207.101562 295.910156 Z M 207.101562 295.910156 " fill-opacity="1" fill-rule="nonzero"/><path fill="#ffa18a" d="M 169.398438 290.652344 C 169.242188 290.386719 169.027344 290.214844 168.777344 290.136719 C 168.777344 289.953125 168.777344 289.78125 168.667969 289.59375 C 168.453125 289.238281 168.09375 288.972656 167.675781 288.851562 L 167.550781 288.851562 C 167.644531 288.523438 167.613281 288.152344 167.273438 287.949219 C 167.023438 287.808594 166.730469 287.765625 166.453125 287.75 L 166.421875 287.75 C 166.589844 286.769531 165.289062 286.617188 164.574219 286.570312 C 160.929688 286.382812 157.128906 287.5625 154.507812 290.167969 C 153.332031 291.332031 152.398438 292.761719 151.855469 294.3125 C 151.175781 296.253906 151.453125 298.316406 150.800781 300.226562 C 149.6875 303.421875 143.3125 310.78125 142.410156 311.957031 C 142.410156 311.957031 148.304688 314.054688 151.296875 317.730469 C 152.351562 315.871094 153.421875 314.007812 154.476562 312.128906 C 155.53125 310.265625 156.511719 308.542969 158.324219 307.335938 C 160.773438 305.6875 163.226562 303.996094 164.0625 300.988281 C 164.496094 299.417969 164.328125 297.648438 165.148438 296.191406 C 165.925781 294.792969 167.445312 294.296875 168.546875 293.242188 C 169.164062 292.636719 169.910156 291.550781 169.398438 290.652344 L 169.398438 290.621094 Z M 169.398438 290.652344 " fill-opacity="1" fill-rule="nonzero"/><path fill="#29566d" d="M 286.382812 380.710938 L 418.664062 380.710938 L 418.664062 554.421875 L 286.382812 554.421875 Z M 286.382812 380.710938 " fill-opacity="1" fill-rule="nonzero"/><path fill="#4693b9" d="M 282.273438 376.195312 L 422.757812 376.195312 C 425.515625 376.195312 427.765625 378.445312 427.765625 381.207031 L 427.765625 401.289062 C 427.765625 404.050781 425.515625 406.300781 422.757812 406.300781 L 282.257812 406.300781 C 279.496094 406.300781 277.25 404.050781 277.25 401.289062 L 277.25 381.207031 C 277.25 378.445312 279.496094 376.195312 282.273438 376.195312 Z M 282.273438 376.195312 " fill-opacity="1" fill-rule="nonzero"/><path fill="#98d4fc" d="M 287.546875 388.734375 L 378.851562 388.734375 C 379.96875 388.734375 380.867188 389.632812 380.867188 390.75 L 380.867188 391.746094 C 380.867188 392.863281 379.96875 393.761719 378.851562 393.761719 L 287.546875 393.761719 C 286.429688 393.761719 285.53125 392.863281 285.53125 391.746094 L 285.53125 390.75 C 285.53125 389.632812 286.429688 388.734375 287.546875 388.734375 Z M 287.546875 388.734375 " fill-opacity="1" fill-rule="nonzero"/><path fill="#ffd471" d="M 397.988281 391.265625 C 397.988281 392.644531 396.855469 393.777344 395.476562 393.777344 C 394.097656 393.777344 392.964844 392.644531 392.964844 391.265625 C 392.964844 389.882812 394.097656 388.75 395.476562 388.75 C 396.855469 388.75 397.988281 389.882812 397.988281 391.265625 Z M 397.988281 391.265625 " fill-opacity="1" fill-rule="nonzero"/><path fill="#a2ddd0" d="M 408.378906 391.265625 C 408.378906 392.644531 407.246094 393.777344 405.867188 393.777344 C 404.488281 393.777344 403.355469 392.644531 403.355469 391.265625 C 403.355469 389.882812 404.488281 388.75 405.867188 388.75 C 407.246094 388.75 408.378906 389.882812 408.378906 391.265625 Z M 408.378906 391.265625 " fill-opacity="1" fill-rule="nonzero"/><path fill="#2f627c" d="M 418.769531 391.265625 C 418.769531 392.644531 417.640625 393.777344 416.257812 393.777344 C 414.878906 393.777344 413.746094 392.644531 413.746094 391.265625 C 413.746094 389.882812 414.878906 388.75 416.257812 388.75 C 417.640625 388.75 418.769531 389.882812 418.769531 391.265625 Z M 418.769531 391.265625 " fill-opacity="1" fill-rule="nonzero"/><path fill="#4693b9" d="M 282.273438 410.089844 L 422.773438 410.089844 C 425.53125 410.089844 427.78125 412.339844 427.78125 415.101562 L 427.78125 435.183594 C 427.78125 437.945312 425.53125 440.195312 422.773438 440.195312 L 282.273438 440.195312 C 279.511719 440.195312 277.265625 437.945312 277.265625 435.183594 L 277.265625 415.101562 C 277.265625 412.339844 279.511719 410.089844 282.273438 410.089844 Z M 282.273438 410.089844 " fill-opacity="1" fill-rule="nonzero"/><path fill="#98d4fc" d="M 287.546875 422.644531 L 378.867188 422.644531 C 379.980469 422.644531 380.882812 423.542969 380.882812 424.660156 L 380.882812 425.671875 C 380.882812 426.789062 379.980469 427.6875 378.867188 427.6875 L 287.5625 427.6875 C 286.445312 427.6875 285.546875 426.789062 285.546875 425.671875 L 285.546875 424.660156 C 285.546875 423.558594 286.445312 422.644531 287.5625 422.644531 Z M 287.546875 422.644531 " fill-opacity="1" fill-rule="nonzero"/><path fill="#a2ddd0" d="M 397.988281 425.144531 C 397.988281 426.523438 396.855469 427.65625 395.476562 427.65625 C 394.097656 427.65625 392.964844 426.523438 392.964844 425.144531 C 392.964844 423.761719 394.097656 422.628906 395.476562 422.628906 C 396.855469 422.628906 397.988281 423.761719 397.988281 425.144531 Z M 397.988281 425.144531 " fill-opacity="1" fill-rule="nonzero"/><path fill="#98d4fc" d="M 408.378906 425.144531 C 408.378906 426.523438 407.246094 427.65625 405.867188 427.65625 C 404.488281 427.65625 403.355469 426.523438 403.355469 425.144531 C 403.355469 423.761719 404.488281 422.628906 405.867188 422.628906 C 407.246094 422.628906 408.378906 423.761719 408.378906 425.144531 Z M 408.378906 425.144531 " fill-opacity="1" fill-rule="nonzero"/><path fill="#ffd471" d="M 418.769531 425.144531 C 418.769531 426.523438 417.640625 427.65625 416.257812 427.65625 C 414.878906 427.65625 413.746094 426.523438 413.746094 425.144531 C 413.746094 423.761719 414.878906 422.628906 416.257812 422.628906 C 417.640625 422.628906 418.769531 423.761719 418.769531 425.144531 Z M 418.769531 425.144531 " fill-opacity="1" fill-rule="nonzero"/><path fill="#4693b9" d="M 282.273438 443.96875 L 422.773438 443.96875 C 425.53125 443.96875 427.78125 446.21875 427.78125 448.980469 L 427.78125 469.0625 C 427.78125 471.828125 425.53125 474.078125 422.773438 474.078125 L 282.273438 474.078125 C 279.511719 474.078125 277.265625 471.828125 277.265625 469.0625 L 277.265625 448.980469 C 277.265625 446.21875 279.511719 443.96875 282.273438 443.96875 Z M 282.273438 443.96875 " fill-opacity="1" fill-rule="nonzero"/><path fill="#98d4fc" d="M 287.5625 456.523438 L 378.867188 456.523438 C 379.980469 456.523438 380.882812 457.425781 380.882812 458.542969 L 380.882812 459.519531 C 380.882812 460.636719 379.980469 461.535156 378.867188 461.535156 L 287.5625 461.535156 C 286.445312 461.535156 285.546875 460.636719 285.546875 459.519531 L 285.546875 458.542969 C 285.546875 457.425781 286.445312 456.523438 287.5625 456.523438 Z M 287.5625 456.523438 " fill-opacity="1" fill-rule="nonzero"/><path fill="#2a817d" d="M 397.988281 459.039062 C 397.988281 460.417969 396.855469 461.550781 395.476562 461.550781 C 394.097656 461.550781 392.964844 460.417969 392.964844 459.039062 C 392.964844 457.65625 394.097656 456.523438 395.476562 456.523438 C 396.855469 456.523438 397.988281 457.65625 397.988281 459.039062 Z M 397.988281 459.039062 " fill-opacity="1" fill-rule="nonzero"/><path fill="#2f627c" d="M 408.378906 459.039062 C 408.378906 460.417969 407.246094 461.550781 405.867188 461.550781 C 404.488281 461.550781 403.355469 460.417969 403.355469 459.039062 C 403.355469 457.65625 404.488281 456.523438 405.867188 456.523438 C 407.246094 456.523438 408.378906 457.65625 408.378906 459.039062 Z M 408.378906 459.039062 " fill-opacity="1" fill-rule="nonzero"/><path fill="#ffd471" d="M 418.769531 459.039062 C 418.769531 460.417969 417.640625 461.550781 416.257812 461.550781 C 414.878906 461.550781 413.746094 460.417969 413.746094 459.039062 C 413.746094 457.65625 414.878906 456.523438 416.257812 456.523438 C 417.640625 456.523438 418.769531 457.65625 418.769531 459.039062 Z M 418.769531 459.039062 " fill-opacity="1" fill-rule="nonzero"/><path fill="#4693b9" d="M 282.273438 477.878906 L 422.773438 477.878906 C 425.53125 477.878906 427.78125 480.128906 427.78125 482.890625 L 427.78125 502.972656 C 427.78125 505.738281 425.53125 507.988281 422.773438 507.988281 L 282.273438 507.988281 C 279.511719 507.988281 277.265625 505.738281 277.265625 502.972656 L 277.265625 482.875 C 277.265625 480.113281 279.511719 477.863281 282.273438 477.863281 Z M 282.273438 477.878906 " fill-opacity="1" fill-rule="nonzero"/><path fill="#98d4fc" d="M 287.546875 490.417969 L 378.867188 490.417969 C 379.980469 490.417969 380.882812 491.320312 380.882812 492.4375 L 380.882812 493.429688 C 380.882812 494.546875 379.980469 495.445312 378.867188 495.445312 L 287.5625 495.445312 C 286.445312 495.445312 285.546875 494.546875 285.546875 493.429688 L 285.546875 492.4375 C 285.546875 491.320312 286.445312 490.417969 287.5625 490.417969 Z M 287.546875 490.417969 " fill-opacity="1" fill-rule="nonzero"/><path fill="#a2ddd0" d="M 397.988281 492.933594 C 397.988281 494.3125 396.855469 495.445312 395.476562 495.445312 C 394.097656 495.445312 392.964844 494.3125 392.964844 492.933594 C 392.964844 491.550781 394.097656 490.417969 395.476562 490.417969 C 396.855469 490.417969 397.988281 491.550781 397.988281 492.933594 Z M 397.988281 492.933594 " fill-opacity="1" fill-rule="nonzero"/><path fill="#ffd471" d="M 408.378906 492.933594 C 408.378906 494.3125 407.246094 495.445312 405.867188 495.445312 C 404.488281 495.445312 403.355469 494.3125 403.355469 492.933594 C 403.355469 491.550781 404.488281 490.417969 405.867188 490.417969 C 407.246094 490.417969 408.378906 491.550781 408.378906 492.933594 Z M 408.378906 492.933594 " fill-opacity="1" fill-rule="nonzero"/><path fill="#98d4fc" d="M 418.769531 492.933594 C 418.769531 494.3125 417.640625 495.445312 416.257812 495.445312 C 414.878906 495.445312 413.746094 494.3125 413.746094 492.933594 C 413.746094 491.550781 414.878906 490.417969 416.257812 490.417969 C 417.640625 490.417969 418.769531 491.550781 418.769531 492.933594 Z M 418.769531 492.933594 " fill-opacity="1" fill-rule="nonzero"/><path fill="#4693b9" d="M 282.273438 511.757812 L 422.773438 511.757812 C 425.53125 511.757812 427.78125 514.007812 427.78125 516.769531 L 427.78125 536.851562 C 427.78125 539.617188 425.53125 541.867188 422.773438 541.867188 L 282.273438 541.867188 C 279.511719 541.867188 277.265625 539.617188 277.265625 536.851562 L 277.265625 516.769531 C 277.265625 514.007812 279.511719 511.757812 282.273438 511.757812 Z M 282.273438 511.757812 " fill-opacity="1" fill-rule="nonzero"/><path fill="#98d4fc" d="M 287.546875 524.3125 L 378.867188 524.3125 C 379.980469 524.3125 380.882812 525.214844 380.882812 526.332031 L 380.882812 527.324219 C 380.882812 528.441406 379.980469 529.339844 378.867188 529.339844 L 287.5625 529.339844 C 286.445312 529.339844 285.546875 528.441406 285.546875 527.324219 L 285.546875 526.316406 C 285.546875 525.214844 286.445312 524.296875 287.5625 524.296875 Z M 287.546875 524.3125 " fill-opacity="1" fill-rule="nonzero"/><path fill="#2a817d" d="M 397.988281 526.8125 C 397.988281 528.191406 396.855469 529.324219 395.476562 529.324219 C 394.097656 529.324219 392.964844 528.191406 392.964844 526.8125 C 392.964844 525.429688 394.097656 524.296875 395.476562 524.296875 C 396.855469 524.296875 397.988281 525.429688 397.988281 526.8125 Z M 397.988281 526.8125 " fill-opacity="1" fill-rule="nonzero"/><path fill="#98d4fc" d="M 408.378906 526.8125 C 408.378906 528.191406 407.246094 529.324219 405.867188 529.324219 C 404.488281 529.324219 403.355469 528.191406 403.355469 526.8125 C 403.355469 525.429688 404.488281 524.296875 405.867188 524.296875 C 407.246094 524.296875 408.378906 525.429688 408.378906 526.8125 Z M 408.378906 526.8125 " fill-opacity="1" fill-rule="nonzero"/><path fill="#a2ddd0" d="M 418.769531 526.8125 C 418.769531 528.191406 417.640625 529.324219 416.257812 529.324219 C 414.878906 529.324219 413.746094 528.191406 413.746094 526.8125 C 413.746094 525.429688 414.878906 524.296875 416.257812 524.296875 C 417.640625 524.296875 418.769531 525.429688 418.769531 526.8125 Z M 418.769531 526.8125 " fill-opacity="1" fill-rule="nonzero"/><path fill="#2f627c" d="M 285.296875 549.425781 L 419.761719 549.425781 C 421.421875 549.425781 422.773438 550.773438 422.773438 552.433594 L 422.773438 554.453125 C 422.773438 556.113281 421.421875 557.464844 419.761719 557.464844 L 285.296875 557.464844 C 283.640625 557.464844 282.289062 556.113281 282.289062 554.453125 L 282.289062 552.433594 C 282.289062 550.773438 283.640625 549.425781 285.296875 549.425781 Z M 285.296875 549.425781 " fill-opacity="1" fill-rule="nonzero"/><path fill="#29566d" d="M 512.972656 499.21875 C 513.996094 495.386719 516.527344 492.171875 519.101562 489.269531 C 524.464844 483.234375 530.203125 477.523438 536.191406 472.089844 L 576.625 472.089844 C 575.367188 475.269531 573.613281 478.265625 571.382812 480.859375 C 569.414062 483.125 567.070312 484.972656 564.636719 486.710938 C 562.105469 488.507812 559.625 490.355469 557.285156 492.4375 C 556.695312 492.933594 556.136719 493.476562 555.5625 494.003906 C 561.550781 496.097656 568.28125 501.902344 574.035156 504.710938 L 572.125 524.25 C 567.257812 523.628906 540.582031 518.105469 535.925781 516.570312 C 535.925781 516.570312 528.714844 515.855469 524.761719 514.800781 C 521.613281 513.976562 515.71875 511.058594 513.9375 508.203125 C 512.261719 505.535156 512.136719 502.199219 512.941406 499.234375 Z M 512.972656 499.21875 " fill-opacity="1" fill-rule="nonzero"/><path fill="#25716d" d="M 471.828125 448.59375 C 480.636719 449.804688 510.894531 451.246094 515.003906 450.84375 C 515.082031 450.59375 525.226562 417.089844 539.339844 406.117188 C 549.003906 412.339844 545.046875 439.53125 545.046875 439.53125 C 543.898438 442.433594 542.300781 447.011719 541.046875 449.882812 C 539.960938 452.316406 539.464844 453.28125 537.183594 454.675781 C 534.734375 456.152344 531.972656 456.910156 529.242188 457.578125 C 526.171875 458.339844 523.179688 459.132812 520.261719 460.371094 C 517.347656 461.597656 514.476562 462.917969 511.515625 464.066406 C 508.570312 465.199219 503.480469 466.519531 500.335938 466.796875 C 497.230469 467.046875 469.316406 461.070312 469.316406 460.808594 C 469.316406 457.144531 471.84375 448.578125 471.84375 448.578125 L 471.84375 448.609375 Z M 471.828125 448.59375 " fill-opacity="1" fill-rule="nonzero"/><path fill="#bf7968" d="M 472.277344 444.835938 C 473.070312 444.652344 473.503906 444.542969 474.574219 444.09375 C 475.347656 443.765625 478.09375 442.585938 478.792969 442.554688 C 479.273438 442.554688 479.863281 442.695312 480.03125 443.191406 C 480.21875 443.703125 479.878906 444.246094 479.550781 444.621094 C 479.070312 445.164062 478.464844 445.550781 477.816406 445.863281 C 477.316406 446.09375 475.070312 447.585938 473.238281 448.78125 C 475.550781 452.273438 479.566406 455.808594 472.015625 452.691406 C 471.5625 453.527344 477.101562 454.847656 475.535156 457.734375 C 475.644531 458.480469 475.984375 460.28125 473.285156 460.046875 C 475.300781 464.035156 460.210938 459.707031 464.695312 452.101562 C 467.003906 449.339844 464.242188 447.832031 472.277344 444.804688 Z M 472.277344 444.835938 " fill-opacity="1" fill-rule="nonzero"/><path fill="#ffd471" d="M 498.332031 519.488281 L 484.808594 431.226562 C 484.5 429.226562 482.714844 427.75 480.621094 427.75 L 468.820312 427.78125 C 466.757812 427.78125 465.003906 429.242188 464.679688 431.195312 L 449.851562 519.625 L 498.332031 519.457031 Z M 498.332031 519.488281 " fill-opacity="1" fill-rule="nonzero"/><path fill="#ffd471" d="M 511.734375 526.828125 L 436.511719 527.089844 C 435.96875 527.089844 435.519531 526.65625 435.519531 526.097656 L 435.519531 520.699219 C 435.488281 520.152344 435.941406 519.703125 436.484375 519.703125 L 511.703125 519.441406 C 512.246094 519.441406 512.695312 519.875 512.695312 520.433594 L 512.695312 525.835938 C 512.695312 526.378906 512.277344 526.828125 511.734375 526.828125 Z M 511.734375 526.828125 " fill-opacity="1" fill-rule="nonzero"/><path fill="#fff6e3" d="M 489.710938 463.273438 L 459.296875 463.367188 L 460.445312 456.476562 L 488.65625 456.382812 Z M 489.710938 463.273438 " fill-opacity="1" fill-rule="nonzero"/><path fill="#fff6e3" d="M 487.445312 448.5 L 461.777344 448.578125 L 462.925781 441.6875 L 486.390625 441.609375 Z M 487.445312 448.5 " fill-opacity="1" fill-rule="nonzero"/><path fill="#ffbc33" d="M 450.085938 519.875 C 455.496094 519.875 460.894531 519.84375 466.292969 519.828125 C 474.898438 519.796875 483.523438 519.765625 492.144531 519.734375 C 494.128906 519.734375 496.101562 519.734375 498.085938 519.703125 C 498.363281 519.703125 498.363281 519.269531 498.085938 519.269531 C 492.6875 519.269531 487.273438 519.300781 481.878906 519.316406 C 473.269531 519.347656 464.648438 519.363281 456.023438 519.410156 C 454.054688 519.410156 452.070312 519.410156 450.085938 519.441406 C 449.804688 519.441406 449.804688 519.890625 450.085938 519.890625 Z M 450.085938 519.875 " fill-opacity="1" fill-rule="nonzero"/><path fill="#bf7968" d="M 477.023438 478.761719 C 469.84375 486.398438 472.992188 487.050781 474.882812 486.027344 C 474.402344 488.648438 476.511719 488.261719 477.226562 487.128906 C 484.21875 485.980469 487.289062 474.835938 494.023438 476.933594 C 494.023438 476.933594 492.65625 473.097656 491.882812 466.796875 C 470.867188 467.203125 473.128906 474.574219 479.179688 472.121094 C 470.726562 480.71875 471.6875 479.183594 470.695312 480.546875 C 469.625 487.4375 476.929688 478.515625 477.023438 478.746094 Z M 477.023438 478.761719 " fill-opacity="1" fill-rule="nonzero"/><path fill="#bf7968" d="M 554.695312 402.144531 C 552.273438 404.003906 544.738281 414.125 540.503906 411.625 L 534.828125 385.554688 L 552.089844 381.578125 C 552.089844 381.578125 552.414062 383.242188 553.050781 385.675781 C 554.058594 389.449219 557.269531 392.769531 559.921875 396.710938 C 560.183594 397.113281 555.097656 401.847656 554.695312 402.144531 Z M 554.695312 402.144531 " fill-opacity="1" fill-rule="nonzero"/><path fill="#bf7968" d="M 552.089844 381.5625 C 547 383.363281 540.628906 368.265625 531.152344 362.863281 C 502.320312 357.601562 523.148438 425.902344 552.089844 381.5625 Z M 552.089844 381.5625 " fill-opacity="1" fill-rule="nonzero"/><path fill="#12252e" d="M 516.632812 369.613281 C 515.238281 368.976562 513.578125 368.976562 512.429688 367.84375 C 511.515625 366.960938 511.082031 365.71875 510.863281 364.507812 C 510.230469 361.015625 509.484375 357.972656 510.710938 354.730469 C 512.539062 349.917969 517.78125 347.296875 520.355469 346.816406 C 526.09375 345.714844 534.347656 345.015625 541.386719 347.453125 C 543.25 348.089844 544.347656 349.859375 546.132812 350.632812 C 557.625 355.648438 552.257812 368.1875 552.800781 370.730469 C 553.714844 375.09375 556.292969 380.199219 554.800781 384.449219 C 554.058594 386.578125 550.226562 388.175781 547.839844 388.394531 C 546.425781 388.515625 545.511719 388.191406 544.800781 387.507812 C 544.628906 387.058594 544.613281 386.59375 544.90625 386.15625 C 537.507812 375 550.195312 380.167969 528.59375 370.078125 C 526.589844 368.777344 522.171875 369.941406 518.402344 368.945312 C 518.464844 369.273438 518 369.785156 516.757812 369.628906 C 516.726562 369.628906 516.726562 369.597656 516.679688 369.582031 L 516.648438 369.582031 Z M 516.632812 369.613281 " fill-opacity="1" fill-rule="nonzero"/><path fill="#bf7968" d="M 543.109375 373.617188 C 543.292969 375.589844 542.550781 377.265625 540.550781 377.5 C 538.75 377.683594 537.027344 376.582031 536.625 374.628906 C 536.222656 372.671875 537.324219 370.855469 539.074219 370.453125 C 542.253906 369.738281 542.9375 371.726562 543.109375 373.617188 Z M 543.109375 373.617188 " fill-opacity="1" fill-rule="nonzero"/><path fill="#2a817d" d="M 490.71875 466.175781 C 497.292969 463.226562 503.558594 462.019531 509.964844 459.9375 C 513.269531 458.882812 530.996094 450.734375 532.734375 450.222656 C 532.734375 450.191406 532.765625 450.175781 532.78125 450.113281 C 532.328125 448.53125 532.207031 446.996094 532.144531 445.195312 C 532.066406 442.945312 533.335938 431.660156 534.082031 427.765625 C 534.875 423.558594 535.632812 419.355469 536.59375 415.210938 C 537.308594 412.074219 538.238281 409.050781 539.371094 406.148438 C 539.617188 407.3125 539.835938 408.382812 540.070312 409.40625 C 542.007812 404.503906 548.707031 399.457031 553.902344 396.992188 C 560.554688 393.824219 566.339844 394.210938 572.359375 398.046875 C 578.75 402.113281 582.609375 407.09375 585.914062 413.828125 C 594.179688 430.636719 596.925781 434.84375 604.152344 451.480469 C 607.75 459.75 611.285156 471.902344 608.199219 482.535156 C 608.09375 482.441406 607.875 482.316406 607.875 482.316406 C 593.359375 473.050781 576.144531 471.703125 560.011719 474.710938 C 555.082031 475.628906 544.9375 477.972656 544.9375 477.972656 C 543.433594 474.574219 541.882812 471.160156 540.332031 467.761719 C 538.316406 468.164062 536.347656 468.597656 534.359375 469.25 C 531.351562 470.242188 528.390625 471.328125 525.351562 472.214844 C 522.3125 473.097656 519.238281 473.875 516.152344 474.527344 C 510.121094 475.816406 503.996094 476.621094 497.820312 476.980469 C 496.054688 477.085938 490.609375 477.570312 490.609375 477.570312 C 492.457031 471.238281 490.515625 466.128906 490.734375 466.207031 Z M 490.71875 466.175781 " fill-opacity="1" fill-rule="nonzero"/><path fill="#2f627c" d="M 550.085938 492.171875 C 550.539062 499.714844 548.007812 507.503906 547.917969 515.03125 L 528.484375 515.03125 C 527.816406 512.113281 522.09375 487.546875 521.738281 482.675781 C 521.738281 482.675781 519.644531 475.738281 519.085938 471.671875 C 518.652344 468.425781 519.085938 461.878906 521.023438 459.132812 C 522.839844 456.570312 525.878906 455.171875 528.933594 454.769531 C 532.855469 454.257812 536.796875 455.359375 540.457031 456.632812 C 548.476562 459.410156 556.335938 462.714844 564 466.378906 C 564.292969 466.457031 564.574219 466.519531 564.867188 466.613281 C 568.464844 467.714844 571.722656 469.558594 575.226562 470.894531 C 578.703125 472.230469 582.363281 472.988281 586.007812 473.78125 C 589.683594 474.574219 593.328125 475.457031 596.847656 476.792969 C 600.695312 478.21875 604.355469 480.066406 607.8125 482.269531 C 603.78125 492.046875 595.328125 499.933594 584.96875 502.398438 C 579.476562 503.703125 573.613281 503.53125 568.25 501.746094 C 565.394531 500.785156 562.804688 499.328125 560.277344 497.742188 C 557.625 496.097656 554.972656 494.515625 552.195312 493.148438 C 551.5 492.824219 550.800781 492.484375 550.085938 492.171875 L 550.054688 492.1875 Z M 550.085938 492.171875 " fill-opacity="1" fill-rule="nonzero"/><path fill="#12252e" d="M 504.523438 553.894531 C 504.988281 551.441406 506.707031 549.78125 508.664062 548.492188 C 512.398438 545.964844 524.046875 542.640625 525.289062 541.539062 C 527.660156 539.398438 528.109375 535.921875 528.019531 532.863281 C 527.785156 526.378906 526.964844 519.859375 526.40625 513.402344 C 526.40625 513.402344 534.609375 515.40625 548.644531 513.140625 C 548.644531 513.140625 547.699219 524.746094 547.21875 530.550781 C 546.984375 533.375 546.738281 536.230469 546.953125 539.089844 C 547.140625 541.585938 547.683594 544.039062 548.179688 546.460938 C 548.675781 548.910156 549.171875 551.347656 549.234375 553.847656 C 549.234375 554.296875 549.234375 555.210938 549.234375 555.210938 C 547.683594 556.78125 544.023438 556.65625 542.300781 556.578125 C 537.945312 556.390625 533.742188 555.726562 529.335938 556.003906 C 523.675781 556.375 518.078125 557.292969 512.398438 557.507812 C 510.460938 557.570312 508.601562 557.539062 506.847656 557.277344 C 504.582031 556.6875 504.398438 554.609375 504.523438 553.925781 Z M 504.523438 553.894531 " fill-opacity="1" fill-rule="nonzero"/><path fill="#12252e" d="M 603.207031 555.679688 C 600.894531 554.683594 599.65625 552.636719 598.816406 550.464844 C 597.171875 546.273438 596.476562 534.167969 595.652344 532.710938 C 594.085938 529.914062 590.785156 528.722656 587.789062 528.164062 C 581.417969 526.96875 574.871094 526.363281 568.449219 525.492188 C 568.449219 525.492188 572.1875 517.917969 573.027344 503.703125 C 573.027344 503.703125 584.144531 507.164062 589.699219 508.886719 C 592.414062 509.726562 595.125 510.609375 597.949219 510.996094 C 600.414062 511.371094 602.925781 511.386719 605.425781 511.417969 C 607.90625 511.449219 610.417969 511.523438 612.855469 511.976562 C 613.289062 512.066406 614.1875 512.269531 614.1875 512.269531 C 615.398438 514.132812 614.449219 517.671875 614 519.347656 C 612.867188 523.554688 611.300781 527.511719 610.621094 531.886719 C 609.75 537.488281 609.410156 543.167969 608.386719 548.757812 C 608.046875 550.695312 607.613281 552.480469 606.960938 554.125 C 605.90625 556.222656 603.8125 555.941406 603.207031 555.679688 L 603.191406 555.648438 Z M 603.207031 555.679688 " fill-opacity="1" fill-rule="nonzero"/><path fill="#a2ddd0" d="M 239.234375 559.820312 C 239.234375 559.820312 209.847656 504.527344 233.714844 505.117188 C 243.53125 505.363281 252 549.316406 252 549.316406 C 252 549.316406 250.078125 509.199219 269.710938 515.5 C 280.335938 518.898438 264.253906 549.316406 264.253906 549.316406 C 264.253906 549.316406 278.800781 529.667969 286.988281 535.253906 C 300.34375 544.332031 275.835938 559.976562 275.835938 559.976562 L 239.203125 559.820312 Z M 239.234375 559.820312 " fill-opacity="1" fill-rule="nonzero"/><path fill="#a2ddd0" d="M 226.347656 559.777344 C 226.347656 559.777344 221.167969 530.503906 209.785156 531.003906 C 201.640625 531.375 208.992188 551.179688 215.894531 559.746094 C 215.894531 559.746094 226.039062 559.746094 226.347656 559.777344 Z M 226.347656 559.777344 " fill-opacity="1" fill-rule="nonzero"/><path fill="#e0fbf0" d="M 246.355469 559.851562 L 234.101562 516.523438 C 234.023438 516.226562 233.714844 516.058594 233.4375 516.132812 C 233.140625 516.210938 232.96875 516.523438 233.046875 516.816406 L 245.207031 559.851562 Z M 246.355469 559.851562 " fill-opacity="1" fill-rule="nonzero"/><path fill="#e0fbf0" d="M 256.511719 559.898438 L 264.996094 524.839844 C 265.058594 524.5625 264.886719 524.25 264.59375 524.171875 C 264.300781 524.113281 264.003906 524.28125 263.925781 524.578125 L 255.398438 559.898438 L 256.527344 559.898438 Z M 256.511719 559.898438 " fill-opacity="1" fill-rule="nonzero"/><path fill="#e0fbf0" d="M 220.964844 559.761719 L 213.132812 540.207031 C 213.027344 539.925781 212.699219 539.785156 212.4375 539.894531 C 212.15625 540.003906 212.015625 540.328125 212.125 540.609375 L 219.789062 559.761719 Z M 220.964844 559.761719 " fill-opacity="1" fill-rule="nonzero"/><path fill="#e0fbf0" d="M 265.507812 559.960938 L 280.925781 542.5625 C 281.125 542.332031 281.109375 542.003906 280.878906 541.789062 C 280.644531 541.570312 280.304688 541.601562 280.101562 541.835938 L 264.050781 559.960938 Z M 265.507812 559.960938 " fill-opacity="1" fill-rule="nonzero"/><path fill="#2f627c" d="M 354.160156 296.6875 C 354.160156 297.585938 353.429688 298.332031 352.515625 298.332031 C 351.601562 298.332031 350.871094 297.601562 350.871094 296.6875 L 350.871094 287.53125 C 350.871094 286.617188 351.601562 285.886719 352.515625 285.886719 C 353.429688 285.886719 354.160156 286.617188 354.160156 287.53125 Z M 354.160156 296.6875 " fill-opacity="1" fill-rule="nonzero"/><path fill="#2f627c" d="M 352.53125 339.179688 C 351.617188 339.179688 350.886719 339.910156 350.886719 340.824219 L 350.886719 349.980469 C 350.886719 350.898438 351.617188 351.625 352.53125 351.625 C 353.445312 351.625 354.175781 350.898438 354.175781 349.980469 L 354.175781 340.824219 C 354.175781 339.910156 353.445312 339.179688 352.53125 339.179688 Z M 352.53125 339.179688 " fill-opacity="1" fill-rule="nonzero"/><path fill="#2f627c" d="M 352.53125 280.4375 C 355.925781 280.4375 358.671875 277.691406 358.671875 274.292969 C 358.671875 270.894531 355.925781 268.148438 352.53125 268.148438 C 349.132812 268.148438 346.390625 270.894531 346.390625 274.292969 C 346.390625 277.691406 349.132812 280.4375 352.53125 280.4375 Z M 352.53125 280.4375 " fill-opacity="1" fill-rule="nonzero"/><path fill="#2f627c" d="M 352.53125 357.074219 C 349.132812 357.074219 346.390625 359.820312 346.390625 363.21875 C 346.390625 366.617188 349.132812 369.367188 352.53125 369.367188 C 355.925781 369.367188 358.671875 366.617188 358.671875 363.21875 C 358.671875 359.820312 355.925781 357.074219 352.53125 357.074219 Z M 352.53125 357.074219 " fill-opacity="1" fill-rule="nonzero"/><path fill="#ea3e46" d="M 368.582031 318.757812 C 368.582031 319.289062 368.558594 319.820312 368.503906 320.351562 C 368.453125 320.882812 368.375 321.410156 368.269531 321.933594 C 368.167969 322.457031 368.039062 322.972656 367.882812 323.480469 C 367.726562 323.992188 367.546875 324.492188 367.34375 324.988281 C 367.140625 325.480469 366.914062 325.960938 366.660156 326.429688 C 366.410156 326.902344 366.136719 327.359375 365.839844 327.800781 C 365.546875 328.246094 365.226562 328.671875 364.890625 329.085938 C 364.550781 329.496094 364.195312 329.890625 363.816406 330.269531 C 363.441406 330.644531 363.046875 331.003906 362.636719 331.339844 C 362.222656 331.679688 361.796875 331.996094 361.351562 332.292969 C 360.910156 332.589844 360.453125 332.863281 359.984375 333.113281 C 359.511719 333.367188 359.03125 333.59375 358.539062 333.796875 C 358.046875 334 357.546875 334.179688 357.035156 334.335938 C 356.527344 334.492188 356.011719 334.621094 355.488281 334.722656 C 354.964844 334.828125 354.4375 334.90625 353.910156 334.957031 C 353.378906 335.011719 352.847656 335.035156 352.3125 335.035156 C 351.78125 335.035156 351.25 335.011719 350.71875 334.957031 C 350.1875 334.90625 349.664062 334.828125 349.140625 334.722656 C 348.617188 334.621094 348.101562 334.492188 347.589844 334.335938 C 347.082031 334.179688 346.582031 334 346.089844 333.796875 C 345.59375 333.59375 345.113281 333.367188 344.644531 333.113281 C 344.175781 332.863281 343.71875 332.589844 343.273438 332.292969 C 342.832031 331.996094 342.40625 331.679688 341.992188 331.339844 C 341.582031 331.003906 341.1875 330.644531 340.808594 330.269531 C 340.433594 329.890625 340.074219 329.496094 339.738281 329.085938 C 339.398438 328.671875 339.082031 328.246094 338.785156 327.800781 C 338.492188 327.359375 338.21875 326.902344 337.964844 326.429688 C 337.714844 325.960938 337.488281 325.480469 337.28125 324.988281 C 337.078125 324.492188 336.898438 323.992188 336.746094 323.480469 C 336.589844 322.972656 336.460938 322.457031 336.355469 321.933594 C 336.253906 321.410156 336.175781 320.882812 336.121094 320.351562 C 336.070312 319.820312 336.042969 319.289062 336.042969 318.757812 C 336.042969 318.222656 336.070312 317.691406 336.121094 317.160156 C 336.175781 316.628906 336.253906 316.101562 336.355469 315.582031 C 336.460938 315.058594 336.589844 314.539062 336.746094 314.03125 C 336.898438 313.519531 337.078125 313.019531 337.28125 312.527344 C 337.488281 312.035156 337.714844 311.550781 337.964844 311.082031 C 338.21875 310.613281 338.492188 310.15625 338.785156 309.710938 C 339.082031 309.269531 339.398438 308.839844 339.738281 308.429688 C 340.074219 308.015625 340.433594 307.621094 340.808594 307.246094 C 341.1875 306.867188 341.582031 306.511719 341.992188 306.171875 C 342.40625 305.832031 342.832031 305.515625 343.273438 305.21875 C 343.71875 304.925781 344.175781 304.648438 344.644531 304.398438 C 345.113281 304.148438 345.59375 303.917969 346.089844 303.714844 C 346.582031 303.511719 347.082031 303.332031 347.589844 303.175781 C 348.101562 303.023438 348.617188 302.894531 349.140625 302.789062 C 349.664062 302.683594 350.1875 302.605469 350.71875 302.554688 C 351.25 302.503906 351.78125 302.476562 352.3125 302.476562 C 352.847656 302.476562 353.378906 302.503906 353.910156 302.554688 C 354.4375 302.605469 354.964844 302.683594 355.488281 302.789062 C 356.011719 302.894531 356.527344 303.023438 357.035156 303.175781 C 357.546875 303.332031 358.046875 303.511719 358.539062 303.714844 C 359.03125 303.917969 359.511719 304.148438 359.984375 304.398438 C 360.453125 304.648438 360.910156 304.925781 361.351562 305.21875 C 361.796875 305.515625 362.222656 305.832031 362.636719 306.171875 C 363.046875 306.511719 363.441406 306.867188 363.816406 307.246094 C 364.195312 307.621094 364.550781 308.015625 364.890625 308.429688 C 365.226562 308.839844 365.546875 309.269531 365.839844 309.710938 C 366.136719 310.15625 366.410156 310.613281 366.660156 311.082031 C 366.914062 311.550781 367.140625 312.035156 367.34375 312.527344 C 367.546875 313.019531 367.726562 313.519531 367.882812 314.03125 C 368.039062 314.539062 368.167969 315.058594 368.269531 315.582031 C 368.375 316.101562 368.453125 316.628906 368.503906 317.160156 C 368.558594 317.691406 368.582031 318.222656 368.582031 318.757812 Z M 368.582031 318.757812 " fill-opacity="1" fill-rule="nonzero"/><path fill="#fbd8da" d="M 358.59375 328.765625 C 358.378906 328.765625 358.175781 328.671875 358.019531 328.519531 L 352.3125 322.808594 L 346.605469 328.519531 C 346.453125 328.671875 346.25 328.765625 346.03125 328.765625 C 345.816406 328.765625 345.613281 328.671875 345.457031 328.519531 L 342.558594 325.617188 C 342.402344 325.460938 342.308594 325.257812 342.308594 325.042969 C 342.308594 324.824219 342.402344 324.621094 342.558594 324.46875 L 348.265625 318.757812 L 342.558594 313.046875 C 342.234375 312.71875 342.234375 312.207031 342.558594 311.882812 L 345.457031 308.980469 C 345.613281 308.824219 345.816406 308.730469 346.03125 308.730469 C 346.25 308.730469 346.453125 308.824219 346.605469 308.980469 L 352.3125 314.691406 L 358.019531 308.980469 C 358.175781 308.824219 358.394531 308.730469 358.59375 308.730469 C 358.796875 308.730469 359.015625 308.808594 359.167969 308.980469 L 362.070312 311.882812 C 362.394531 312.207031 362.394531 312.71875 362.070312 313.046875 L 356.363281 318.757812 L 362.070312 324.46875 C 362.394531 324.792969 362.394531 325.304688 362.070312 325.632812 L 359.167969 328.535156 C 359.015625 328.6875 358.8125 328.78125 358.59375 328.78125 Z M 358.59375 328.765625 " fill-opacity="1" fill-rule="nonzero"/></svg>