<svg xmlns="http://www.w3.org/2000/svg" xmlns:xlink="http://www.w3.org/1999/xlink" width="940" zoomAndPan="magnify" viewBox="0 0 705 591.000005" height="788" preserveAspectRatio="xMidYMid meet" version="1.0"><defs><clipPath id="adc3b902f8"><path d="M 612 358 L 655.273438 358 L 655.273438 376.734375 L 612 376.734375 Z M 612 358 " clip-rule="nonzero"/></clipPath><clipPath id="9f1a15b523"><path d="M 49.792969 357 L 93 357 L 93 376 L 49.792969 376 Z M 49.792969 357 " clip-rule="nonzero"/></clipPath><clipPath id="d08d721810"><path d="M 261 555 L 335.683594 555 L 335.683594 590 L 261 590 Z M 261 555 " clip-rule="nonzero"/></clipPath><clipPath id="56990df784"><path d="M 386.125 555 L 461.070312 555 L 461.070312 590 L 386.125 590 Z M 386.125 555 " clip-rule="nonzero"/></clipPath></defs><path fill="#fb891d" d="M 477.449219 286.714844 C 477.378906 286.980469 466.152344 282.058594 466.589844 282.007812 L 460.59375 292.488281 C 460.78125 292.945312 473.238281 298.347656 473.359375 298.085938 L 477.449219 286.714844 " fill-opacity="1" fill-rule="nonzero"/><path fill="#308f65" d="M 475.273438 284.351562 C 475.273438 284.351562 473.832031 283.78125 472.433594 283.183594 C 471.046875 282.589844 469.710938 281.898438 469.710938 281.898438 L 463.132812 295.554688 C 463.132812 295.554688 464.75 296.328125 466.390625 297.046875 C 468.046875 297.773438 469.683594 298.398438 469.683594 298.398438 L 475.273438 284.351562 " fill-opacity="1" fill-rule="nonzero"/><path fill="#fb891d" d="M 489.113281 290.148438 C 489.113281 290.148438 486.144531 289.507812 483.222656 288.613281 C 480.324219 287.730469 477.449219 286.714844 477.449219 286.714844 L 473.359375 298.085938 C 473.359375 298.085938 476.5625 299.199219 479.824219 300.195312 C 483.082031 301.191406 486.417969 301.90625 486.417969 301.90625 L 489.113281 290.148438 " fill-opacity="1" fill-rule="nonzero"/><path fill="#308f65" d="M 486.648438 288.027344 C 486.648438 288.027344 485.15625 287.683594 483.695312 287.222656 C 482.25 286.765625 480.769531 286.320312 480.769531 286.320312 L 476.050781 300.703125 C 476.050781 300.703125 477.742188 301.183594 479.425781 301.726562 C 481.125 302.269531 482.832031 302.683594 482.832031 302.683594 L 486.648438 288.027344 " fill-opacity="1" fill-rule="nonzero"/><path fill="#fb891d" d="M 501.070312 292.074219 C 501.058594 292.320312 489.074219 290.398438 489.113281 290.148438 L 486.417969 301.90625 C 486.335938 302.199219 499.882812 304.367188 499.921875 304.101562 L 501.070312 292.074219 " fill-opacity="1" fill-rule="nonzero"/><path fill="#308f65" d="M 498.355469 290.332031 L 492.355469 289.332031 L 489.425781 304.195312 L 496.429688 305.367188 L 498.355469 290.332031 " fill-opacity="1" fill-rule="nonzero"/><path fill="#fb891d" d="M 513.085938 292.421875 C 513.085938 292.421875 510.082031 292.378906 507.078125 292.445312 C 505.570312 292.480469 504.070312 292.351562 502.949219 292.25 C 501.824219 292.148438 501.070312 292.074219 501.070312 292.074219 L 499.921875 304.101562 C 499.921875 304.101562 500.785156 304.160156 502.0625 304.285156 C 503.355469 304.410156 505.035156 304.542969 506.777344 304.527344 C 510.238281 304.5 513.683594 304.488281 513.683594 304.488281 L 513.085938 292.421875 " fill-opacity="1" fill-rule="nonzero"/><path fill="#308f65" d="M 510.15625 290.96875 C 510.15625 290.96875 504.140625 291.035156 504.140625 290.859375 L 503.21875 305.953125 C 503.191406 306.148438 510.359375 306.109375 510.359375 306.109375 L 510.15625 290.96875 " fill-opacity="1" fill-rule="nonzero"/><path fill="#fb891d" d="M 524.882812 290.796875 C 524.882812 290.796875 524.167969 290.945312 523.058594 291.171875 C 521.980469 291.390625 520.511719 291.777344 519.03125 291.832031 C 516.0625 292.144531 513.085938 292.421875 513.085938 292.421875 L 513.683594 304.488281 C 513.683594 304.488281 517.125 304.09375 520.554688 303.824219 C 522.28125 303.691406 523.996094 303.339844 525.269531 303.078125 C 526.535156 302.8125 527.398438 302.613281 527.398438 302.613281 L 524.882812 290.796875 " fill-opacity="1" fill-rule="nonzero"/><path fill="#308f65" d="M 521.832031 289.949219 C 521.886719 290.121094 515.898438 290.664062 515.898438 290.664062 L 517.230469 305.738281 C 517.230469 305.738281 524.398438 305.0625 524.371094 304.839844 L 521.832031 289.949219 " fill-opacity="1" fill-rule="nonzero"/><path fill="#fb891d" d="M 536.308594 287.488281 C 536.308594 287.488281 533.453125 288.332031 530.65625 289.355469 C 527.855469 290.382812 524.84375 290.6875 524.882812 290.796875 L 527.398438 302.613281 C 527.398438 302.613281 528.222656 302.410156 529.511719 302.183594 C 530.804688 301.957031 532.464844 301.496094 534.121094 300.914062 C 537.402344 299.757812 540.714844 298.730469 540.714844 298.730469 L 536.308594 287.488281 " fill-opacity="1" fill-rule="nonzero"/><path fill="#308f65" d="M 533.085938 286.980469 C 533.085938 286.980469 527.480469 288.980469 527.425781 288.792969 L 531.160156 303.441406 C 531.191406 303.636719 538.058594 301.273438 538.058594 301.273438 L 533.085938 286.980469 " fill-opacity="1" fill-rule="nonzero"/><path fill="#fb891d" d="M 546.921875 282.136719 C 547.109375 282.539062 536.308594 287.488281 536.308594 287.488281 L 540.714844 298.730469 C 540.714844 298.730469 541.53125 298.417969 542.707031 297.84375 C 543.875 297.277344 545.4375 296.519531 547.019531 295.808594 C 550.207031 294.382812 553.125 292.527344 553.125 292.527344 L 546.921875 282.136719 " fill-opacity="1" fill-rule="nonzero"/><path fill="#308f65" d="M 543.761719 282.351562 L 538.382812 284.890625 L 544.488281 298.757812 L 551.023438 295.625 L 543.761719 282.351562 " fill-opacity="1" fill-rule="nonzero"/><path fill="#fb891d" d="M 556.644531 275.171875 C 556.644531 275.171875 556.09375 275.667969 555.199219 276.382812 C 554.324219 277.085938 553.265625 278.195312 551.949219 278.917969 C 549.4375 280.523438 546.921875 282.136719 546.921875 282.136719 L 553.125 292.527344 C 553.125 292.527344 555.980469 290.59375 558.933594 288.777344 C 560.429688 287.855469 561.660156 286.695312 562.691406 285.859375 C 563.679688 285.058594 564.3125 284.480469 564.3125 284.480469 L 556.644531 275.171875 " fill-opacity="1" fill-rule="nonzero"/><path fill="#308f65" d="M 553.527344 275.871094 C 553.648438 276.066406 548.609375 279.296875 548.609375 279.296875 L 556.871094 291.96875 C 556.871094 291.96875 558.371094 290.96875 559.875 290.042969 C 561.449219 289.074219 562.746094 287.859375 562.746094 287.859375 L 553.527344 275.871094 " fill-opacity="1" fill-rule="nonzero"/><path fill="#fb891d" d="M 565.203125 266.917969 C 565.203125 266.917969 563.222656 269.128906 561.253906 271.304688 C 558.945312 273.242188 556.644531 275.171875 556.644531 275.171875 L 564.3125 284.480469 C 564.3125 284.480469 566.964844 282.257812 569.585938 280.046875 C 571.9375 277.460938 574.296875 274.898438 574.296875 274.898438 L 565.203125 266.917969 " fill-opacity="1" fill-rule="nonzero"/><path fill="#308f65" d="M 562.222656 268 C 562.222656 268 561.238281 269.109375 560.257812 270.191406 C 559.082031 271.167969 557.953125 272.15625 557.953125 272.15625 L 567.972656 283.472656 C 567.972656 283.472656 569.335938 282.296875 570.703125 281.15625 C 571.9375 279.804688 573.152344 278.457031 573.152344 278.457031 L 562.222656 268 " fill-opacity="1" fill-rule="nonzero"/><path fill="#fb891d" d="M 572.101562 257.53125 C 572.101562 257.53125 570.480469 259.929688 568.953125 262.390625 C 567.410156 264.878906 565.082031 266.84375 565.203125 266.917969 L 574.296875 274.898438 C 574.191406 274.789062 576.820312 272.488281 578.742188 269.464844 C 580.640625 266.476562 582.613281 263.527344 582.613281 263.527344 L 572.101562 257.53125 " fill-opacity="1" fill-rule="nonzero"/><path fill="#308f65" d="M 569.335938 259.074219 C 569.335938 259.074219 566.320312 263.992188 566.035156 263.828125 L 577.828125 273.3125 C 578.085938 273.527344 582.070312 267.222656 582.070312 267.222656 L 569.335938 259.074219 " fill-opacity="1" fill-rule="nonzero"/><path fill="#fb891d" d="M 576.59375 247.003906 C 576.59375 247.003906 576.429688 247.707031 576.179688 248.757812 C 575.753906 249.722656 573.484375 255.007812 573.0625 255.992188 C 572.566406 256.933594 572.101562 257.53125 572.101562 257.53125 L 582.613281 263.527344 C 582.613281 263.527344 583.117188 262.796875 583.746094 261.628906 C 584.28125 260.371094 587.117188 253.808594 587.640625 252.59375 C 587.957031 251.28125 588.207031 250.425781 588.207031 250.425781 L 576.59375 247.003906 " fill-opacity="1" fill-rule="nonzero"/><path fill="#308f65" d="M 574.402344 249.132812 L 572.15625 254.371094 L 585.6875 261.105469 L 588.652344 254.234375 L 574.402344 249.132812 " fill-opacity="1" fill-rule="nonzero"/><path fill="#fb891d" d="M 578.480469 235.742188 C 578.480469 235.742188 578.234375 238.601562 577.964844 241.445312 C 577.285156 244.234375 576.59375 247.003906 576.59375 247.003906 L 588.207031 250.425781 C 588.207031 250.425781 589.039062 246.910156 589.902344 243.433594 C 590.320312 239.894531 590.550781 236.316406 590.550781 236.316406 L 578.480469 235.742188 " fill-opacity="1" fill-rule="nonzero"/><path fill="#308f65" d="M 576.773438 238.351562 C 576.773438 238.351562 576.714844 239.789062 576.527344 241.183594 C 576.179688 242.558594 575.835938 243.917969 575.835938 243.917969 L 590.59375 247.292969 C 590.59375 247.292969 591.003906 245.492188 591.449219 243.640625 C 591.71875 241.78125 591.8125 239.910156 591.8125 239.910156 L 576.773438 238.351562 " fill-opacity="1" fill-rule="nonzero"/><path fill="#fb891d" d="M 577.800781 224.15625 C 578.167969 224.140625 578.929688 235.78125 578.480469 235.742188 L 590.550781 236.316406 C 591.085938 236.304688 590.144531 222.148438 589.726562 222.230469 L 577.800781 224.15625 " fill-opacity="1" fill-rule="nonzero"/><path fill="#308f65" d="M 576.773438 227.121094 L 577.113281 232.890625 L 592.253906 232.78125 L 591.800781 225.40625 L 576.773438 227.121094 " fill-opacity="1" fill-rule="nonzero"/><path fill="#fb891d" d="M 574.945312 212.625 C 574.945312 212.625 575.847656 215.46875 576.632812 218.371094 C 577.402344 221.214844 577.800781 224.15625 577.800781 224.15625 L 589.726562 222.230469 C 589.726562 222.230469 589.28125 218.734375 588.367188 215.375 C 587.460938 212.039062 586.390625 208.726562 586.390625 208.726562 L 574.945312 212.625 " fill-opacity="1" fill-rule="nonzero"/><path fill="#308f65" d="M 574.363281 215.808594 C 574.363281 215.808594 574.773438 217.25 575.195312 218.6875 C 575.621094 220.132812 575.824219 221.550781 575.824219 221.550781 L 590.632812 218.503906 C 590.632812 218.503906 590.40625 216.671875 589.875 214.9375 C 589.347656 213.210938 588.839844 211.484375 588.839844 211.484375 L 574.363281 215.808594 " fill-opacity="1" fill-rule="nonzero"/><path fill="#fb891d" d="M 570.230469 201.511719 C 570.230469 201.511719 571.660156 204.234375 572.761719 207.011719 C 573.882812 209.832031 574.945312 212.625 574.945312 212.625 L 586.390625 208.726562 C 586.390625 208.726562 585.183594 205.492188 583.910156 202.320312 C 582.628906 199.136719 581.019531 196.113281 581.019531 196.113281 L 570.230469 201.511719 " fill-opacity="1" fill-rule="nonzero"/><path fill="#308f65" d="M 570.160156 204.769531 C 570.277344 204.738281 572.507812 210.363281 572.507812 210.363281 L 586.640625 204.972656 C 586.640625 204.972656 584.003906 198.328125 583.882812 198.398438 L 570.160156 204.769531 " fill-opacity="1" fill-rule="nonzero"/><path fill="#fb891d" d="M 564.15625 190.96875 C 564.15625 190.96875 565.832031 193.5 567.332031 196.179688 C 568.074219 197.503906 568.867188 198.8125 569.390625 199.820312 C 569.917969 200.828125 570.230469 201.511719 570.230469 201.511719 L 581.019531 196.113281 C 581.019531 196.113281 580.648438 195.355469 580.09375 194.199219 C 579.449219 193.097656 578.605469 191.59375 577.789062 190.109375 C 576.140625 187.125 574.253906 184.324219 574.253906 184.324219 L 564.15625 190.96875 " fill-opacity="1" fill-rule="nonzero"/><path fill="#308f65" d="M 564.46875 194.242188 C 564.46875 194.242188 565.296875 195.523438 566.035156 196.875 C 566.765625 198.214844 567.5625 199.535156 567.5625 199.535156 L 580.855469 192.347656 C 580.855469 192.347656 579.964844 190.855469 579.105469 189.292969 C 578.253906 187.75 577.324219 186.269531 577.324219 186.269531 L 564.46875 194.242188 " fill-opacity="1" fill-rule="nonzero"/><path fill="#fb891d" d="M 556.992188 181.339844 C 556.929688 181.234375 558.835938 183.480469 560.65625 185.957031 C 562.453125 188.402344 564.15625 190.96875 564.15625 190.96875 L 574.253906 184.324219 C 574.253906 184.324219 572.371094 181.480469 570.332031 178.753906 C 569.304688 177.382812 568.304688 176.011719 567.453125 175.007812 C 566.566406 173.964844 565.953125 173.261719 565.953125 173.261719 L 556.992188 181.339844 " fill-opacity="1" fill-rule="nonzero"/><path fill="#308f65" d="M 557.582031 184.375 C 557.582031 184.375 558.542969 185.582031 559.449219 186.8125 C 560.347656 188.039062 561.238281 189.292969 561.238281 189.292969 L 573.625 180.652344 C 573.625 180.652344 572.628906 179.195312 571.574219 177.769531 C 570.519531 176.335938 569.417969 174.957031 569.417969 174.957031 L 557.582031 184.375 " fill-opacity="1" fill-rule="nonzero"/><path fill="#fb891d" d="M 446.453125 340.160156 C 446.175781 340.308594 440.851562 329.601562 441.335938 329.945312 L 429.859375 333.765625 C 429.914062 333.980469 431.226562 337.296875 432.765625 340.386719 C 434.3125 343.492188 436.109375 346.394531 436.109375 346.394531 L 446.453125 340.160156 " fill-opacity="1" fill-rule="nonzero"/><path fill="#308f65" d="M 446.28125 336.984375 C 446.28125 336.984375 445.582031 335.683594 444.898438 334.402344 C 444.285156 333.078125 443.671875 331.769531 443.671875 331.769531 L 429.820312 337.847656 C 429.820312 337.847656 430.609375 339.496094 431.359375 341.144531 C 432.21875 342.71875 433.050781 344.304688 433.050781 344.304688 L 446.28125 336.984375 " fill-opacity="1" fill-rule="nonzero"/><path fill="#fb891d" d="M 453.308594 349.875 C 453.105469 350.007812 446.230469 340.292969 446.453125 340.160156 L 436.109375 346.394531 C 435.859375 346.570312 443.722656 357.679688 443.941406 357.507812 L 453.308594 349.875 " fill-opacity="1" fill-rule="nonzero"/><path fill="#308f65" d="M 452.667969 346.765625 L 449.203125 341.875 L 436.546875 350.128906 L 440.640625 355.90625 L 452.667969 346.765625 " fill-opacity="1" fill-rule="nonzero"/><path fill="#fb891d" d="M 461.457031 358.640625 C 461.457031 358.640625 460.855469 358.164062 460.085938 357.378906 C 459.285156 356.570312 458.285156 355.445312 457.253906 354.386719 C 455.160156 352.234375 453.308594 349.875 453.308594 349.875 L 443.941406 357.507812 C 443.941406 357.507812 446.019531 360.191406 448.433594 362.609375 C 449.617188 363.800781 450.738281 365.085938 451.621094 365.996094 C 452.503906 366.910156 453.1875 367.421875 453.1875 367.421875 L 461.457031 358.640625 " fill-opacity="1" fill-rule="nonzero"/><path fill="#308f65" d="M 460.433594 355.570312 L 456.292969 351.21875 L 444.882812 361.160156 L 449.722656 366.28125 L 460.433594 355.570312 " fill-opacity="1" fill-rule="nonzero"/><path fill="#fb891d" d="M 470.71875 366.191406 C 470.71875 366.191406 468.332031 364.40625 465.9375 362.597656 C 463.691406 360.605469 461.457031 358.640625 461.457031 358.640625 L 453.1875 367.421875 C 453.1875 367.421875 455.75 369.699219 458.261719 371.9375 C 460.9375 374.042969 463.679688 376.007812 463.679688 376.007812 L 470.71875 366.191406 " fill-opacity="1" fill-rule="nonzero"/><path fill="#308f65" d="M 469.3125 363.316406 C 469.3125 363.316406 468.0625 362.441406 466.886719 361.5 C 465.773438 360.484375 464.652344 359.46875 464.652344 359.46875 L 454.667969 370.839844 C 454.667969 370.839844 455.976562 372.035156 457.308594 373.175781 C 458.632812 374.316406 460.113281 375.3125 460.113281 375.3125 L 469.3125 363.316406 " fill-opacity="1" fill-rule="nonzero"/><path fill="#fb891d" d="M 480.867188 372.625 C 480.867188 372.625 470.535156 366.472656 470.71875 366.191406 L 463.679688 376.007812 C 463.503906 376.320312 475.125 383.25 475.125 383.25 L 480.867188 372.625 " fill-opacity="1" fill-rule="nonzero"/><path fill="#308f65" d="M 479.113281 369.847656 L 473.957031 366.746094 L 465.507812 379.28125 L 471.539062 382.925781 L 479.113281 369.847656 " fill-opacity="1" fill-rule="nonzero"/><path fill="#fb891d" d="M 491.808594 377.652344 C 491.714844 377.910156 480.867188 372.625 480.867188 372.625 L 475.125 383.25 C 475.125 383.25 487.253906 389.179688 487.363281 388.894531 L 491.808594 377.652344 " fill-opacity="1" fill-rule="nonzero"/><path fill="#308f65" d="M 489.695312 375.191406 L 484.210938 372.597656 L 477.421875 386.117188 L 483.738281 389.113281 L 489.695312 375.191406 " fill-opacity="1" fill-rule="nonzero"/><path fill="#fb891d" d="M 503.300781 381.433594 C 503.152344 381.785156 491.808594 377.652344 491.808594 377.652344 L 487.363281 388.894531 C 487.363281 388.894531 500.003906 393.484375 500.097656 393.085938 L 503.300781 381.433594 " fill-opacity="1" fill-rule="nonzero"/><path fill="#308f65" d="M 500.894531 379.28125 L 495.140625 377.265625 L 489.957031 391.484375 L 496.539062 393.773438 L 500.894531 379.28125 " fill-opacity="1" fill-rule="nonzero"/><path fill="#fb891d" d="M 515.191406 384.046875 C 515.082031 384.421875 503.300781 381.433594 503.300781 381.433594 L 500.097656 393.085938 C 500.097656 393.085938 513.085938 396.34375 513.136719 395.941406 L 515.191406 384.046875 " fill-opacity="1" fill-rule="nonzero"/><path fill="#308f65" d="M 512.550781 382.171875 L 506.589844 380.714844 L 502.949219 395.386719 L 509.679688 397.023438 L 512.550781 382.171875 " fill-opacity="1" fill-rule="nonzero"/><path fill="#fb891d" d="M 527.300781 385.589844 C 527.300781 385.589844 526.546875 385.550781 525.40625 385.484375 C 524.25 385.335938 515.191406 384.046875 515.191406 384.046875 L 513.136719 395.941406 C 513.136719 395.941406 523.050781 397.335938 524.277344 397.511719 C 525.527344 397.585938 526.351562 397.625 526.351562 397.625 L 527.300781 385.589844 " fill-opacity="1" fill-rule="nonzero"/><path fill="#308f65" d="M 524.527344 383.867188 L 518.398438 383.003906 L 516.199219 397.964844 L 523.007812 398.921875 L 524.527344 383.867188 " fill-opacity="1" fill-rule="nonzero"/><path fill="#fb891d" d="M 539.601562 386.132812 L 527.300781 385.589844 L 526.351562 397.625 L 539.558594 398.207031 L 539.601562 386.132812 " fill-opacity="1" fill-rule="nonzero"/><path fill="#308f65" d="M 536.671875 384.527344 L 530.445312 384.246094 L 529.527344 399.328125 L 536.347656 399.640625 L 536.671875 384.527344 " fill-opacity="1" fill-rule="nonzero"/><path fill="#fb891d" d="M 551.40625 385.226562 C 551.40625 385.226562 550.671875 385.335938 549.585938 385.484375 C 548.476562 385.632812 547.019531 385.871094 545.546875 385.910156 C 544.070312 385.945312 542.566406 386.011719 541.476562 386.078125 C 540.347656 386.144531 539.601562 386.132812 539.601562 386.132812 L 539.558594 398.207031 C 539.558594 398.207031 540.417969 398.230469 541.6875 398.167969 C 542.976562 398.097656 544.671875 398.023438 546.402344 397.964844 C 548.105469 397.902344 549.808594 397.625 551.089844 397.457031 C 552.359375 397.292969 553.199219 397.171875 553.199219 397.171875 L 551.40625 385.226562 " fill-opacity="1" fill-rule="nonzero"/><path fill="#308f65" d="M 548.410156 384.164062 C 548.433594 384.316406 542.496094 384.558594 542.496094 384.558594 L 542.988281 399.683594 C 542.988281 399.683594 550.132812 399.371094 550.105469 399.171875 L 548.410156 384.164062 " fill-opacity="1" fill-rule="nonzero"/><path fill="#fb891d" d="M 562.9375 382.582031 C 562.992188 382.828125 551.476562 385.550781 551.40625 385.226562 L 553.199219 397.171875 C 553.28125 397.535156 566.613281 394.410156 566.523438 394.148438 L 562.9375 382.582031 " fill-opacity="1" fill-rule="nonzero"/><path fill="#308f65" d="M 559.820312 382.039062 L 554.035156 383.339844 L 556.863281 398.207031 L 563.78125 396.617188 L 559.820312 382.039062 " fill-opacity="1" fill-rule="nonzero"/><path fill="#fb891d" d="M 574.027344 378.273438 C 574.132812 378.53125 563.019531 382.828125 562.9375 382.582031 L 566.523438 394.148438 C 566.644531 394.402344 579.34375 389.449219 579.214844 389.179688 L 574.027344 378.273438 " fill-opacity="1" fill-rule="nonzero"/><path fill="#308f65" d="M 570.851562 378.113281 L 565.257812 380.308594 L 570.277344 394.609375 L 576.871094 392.019531 L 570.851562 378.113281 " fill-opacity="1" fill-rule="nonzero"/><path fill="#fb891d" d="M 584.46875 372.4375 C 584.46875 372.4375 582.003906 374.152344 579.34375 375.523438 C 576.773438 377.050781 574.027344 378.273438 574.027344 378.273438 L 579.214844 389.179688 C 579.214844 389.179688 582.261719 387.734375 585.246094 386.078125 C 588.207031 384.433594 591.042969 382.570312 591.042969 382.570312 L 584.46875 372.4375 " fill-opacity="1" fill-rule="nonzero"/><path fill="#308f65" d="M 581.269531 372.71875 L 576.023438 375.675781 L 582.992188 389.136719 L 589.109375 385.679688 L 581.269531 372.71875 " fill-opacity="1" fill-rule="nonzero"/><path fill="#fb891d" d="M 594.136719 365.292969 C 594.136719 365.292969 591.839844 367.25 589.414062 369.050781 C 587.015625 370.832031 584.46875 372.4375 584.46875 372.4375 L 591.042969 382.570312 C 591.042969 382.570312 593.898438 380.765625 596.625 378.746094 C 599.347656 376.730469 601.914062 374.550781 601.914062 374.550781 L 594.136719 365.292969 " fill-opacity="1" fill-rule="nonzero"/><path fill="#308f65" d="M 590.976562 365.984375 C 590.976562 365.984375 589.78125 366.894531 588.585938 367.839844 C 587.347656 368.710938 586.097656 369.585938 586.097656 369.585938 L 594.722656 382 C 594.722656 382 596.15625 380.996094 597.609375 379.992188 C 598.972656 378.902344 600.359375 377.824219 600.359375 377.824219 L 590.976562 365.984375 " fill-opacity="1" fill-rule="nonzero"/><path fill="#fb891d" d="M 602.53125 357.191406 C 603.003906 357.085938 594.273438 365.496094 594.136719 365.292969 L 601.914062 374.550781 C 601.914062 374.550781 604.507812 372.367188 606.964844 370.011719 C 609.425781 367.652344 611.722656 365.03125 611.828125 364.875 L 602.53125 357.191406 " fill-opacity="1" fill-rule="nonzero"/><path fill="#308f65" d="M 599.667969 358.105469 C 599.667969 358.105469 598.648438 359.191406 597.582031 360.226562 C 596.515625 361.265625 595.375 362.273438 595.375 362.273438 L 605.523438 373.488281 C 605.523438 373.488281 606.820312 372.328125 608.09375 371.105469 C 609.371094 369.875 610.609375 368.550781 610.609375 368.550781 L 599.667969 358.105469 " fill-opacity="1" fill-rule="nonzero"/><g clip-path="url(#adc3b902f8)"><path fill="#fbb937" d="M 612.296875 366.152344 C 623.464844 378.664062 642.746094 379.710938 655.269531 368.539062 L 647.152344 359.457031 C 639.636719 366.164062 628.085938 365.550781 621.378906 358.007812 L 612.296875 366.152344 " fill-opacity="1" fill-rule="nonzero"/></g><path fill="#fbb937" d="M 597.097656 356.136719 L 606.183594 348.03125 C 599.480469 340.515625 600.136719 328.988281 607.636719 322.253906 L 599.507812 313.167969 C 587.003906 324.351562 585.90625 343.644531 597.097656 356.136719 " fill-opacity="1" fill-rule="nonzero"/><path fill="#2e9f6f" d="M 597.71875 347.738281 C 591.167969 353.589844 590.59375 363.707031 596.480469 370.28125 C 602.328125 376.855469 612.425781 377.414062 618.996094 371.550781 C 625.570312 365.699219 626.160156 355.570312 620.28125 348.996094 C 614.398438 342.394531 604.304688 341.847656 597.71875 347.738281 " fill-opacity="1" fill-rule="nonzero"/><path fill="#308f65" d="M 560.335938 155.003906 C 560.335938 155.003906 554.796875 138.359375 539.472656 132.46875 C 537.695312 134.3125 534.554688 140.3125 534.554688 140.3125 C 534.554688 140.3125 557.292969 151.136719 554.894531 160.632812 C 557.035156 159.46875 560.335938 155.003906 560.335938 155.003906 " fill-opacity="1" fill-rule="nonzero"/><path fill="#308f65" d="M 553.183594 160.339844 C 553.183594 160.339844 543.585938 144.410156 525.488281 140.246094 C 523.960938 142.292969 521.710938 148.609375 521.710938 148.609375 C 521.710938 148.609375 549.003906 156.828125 548.367188 166.507812 C 550.496094 165.152344 553.183594 160.339844 553.183594 160.339844 " fill-opacity="1" fill-rule="nonzero"/><path fill="#308f65" d="M 548.015625 169.28125 C 548.015625 169.28125 538.476562 155.21875 521.453125 153.496094 C 520.117188 155.644531 518.253906 161.96875 518.253906 161.96875 C 518.253906 161.96875 543.988281 166.417969 543.734375 175.785156 C 545.679688 174.183594 548.015625 169.28125 548.015625 169.28125 " fill-opacity="1" fill-rule="nonzero"/><path fill="#308f65" d="M 545.449219 183.496094 C 545.449219 183.496094 526.84375 187.03125 513.867188 177.523438 C 514.785156 175.226562 519.03125 169.804688 519.03125 169.804688 C 519.03125 169.804688 540.28125 182.902344 548.226562 176.4375 C 548.148438 178.726562 545.449219 183.496094 545.449219 183.496094 " fill-opacity="1" fill-rule="nonzero"/><path fill="#fbb937" d="M 558.777344 151.324219 C 569.90625 159.867188 573.417969 173.699219 566.5625 182.113281 C 559.722656 190.578125 545.144531 190.46875 534.003906 181.894531 L 558.777344 151.324219 " fill-opacity="1" fill-rule="nonzero"/><path fill="#308f65" d="M 318.796875 354.039062 L 318.796875 341.226562 L 330.875 341.226562 L 330.875 354.039062 L 318.796875 354.039062 " fill-opacity="1" fill-rule="nonzero"/><path fill="#fbb937" d="M 317.316406 350.945312 L 317.316406 344.402344 L 332.445312 344.402344 L 332.445312 350.945312 L 317.316406 350.945312 " fill-opacity="1" fill-rule="nonzero"/><path fill="#308f65" d="M 318.796875 366.882812 L 318.796875 354.039062 L 330.875 354.039062 L 330.875 366.882812 L 318.796875 366.882812 " fill-opacity="1" fill-rule="nonzero"/><path fill="#fbb937" d="M 317.316406 363.789062 L 317.316406 357.21875 L 332.445312 357.21875 L 332.445312 363.789062 L 317.316406 363.789062 " fill-opacity="1" fill-rule="nonzero"/><path fill="#308f65" d="M 318.796875 379.699219 L 318.796875 366.882812 L 330.875 366.882812 L 330.875 379.699219 L 318.796875 379.699219 " fill-opacity="1" fill-rule="nonzero"/><path fill="#fbb937" d="M 317.316406 376.613281 L 317.316406 370.0625 L 332.445312 370.0625 L 332.445312 376.613281 L 317.316406 376.613281 " fill-opacity="1" fill-rule="nonzero"/><path fill="#308f65" d="M 318.796875 392.511719 L 318.796875 379.699219 L 330.875 379.699219 L 330.875 392.511719 L 318.796875 392.511719 " fill-opacity="1" fill-rule="nonzero"/><path fill="#fbb937" d="M 317.316406 389.449219 L 317.316406 382.867188 L 332.445312 382.867188 L 332.445312 389.449219 L 317.316406 389.449219 " fill-opacity="1" fill-rule="nonzero"/><path fill="#308f65" d="M 318.796875 405.359375 L 318.796875 392.511719 L 330.875 392.511719 L 330.875 405.359375 L 318.796875 405.359375 " fill-opacity="1" fill-rule="nonzero"/><path fill="#fbb937" d="M 317.316406 402.269531 L 317.316406 395.699219 L 332.445312 395.699219 L 332.445312 402.269531 L 317.316406 402.269531 " fill-opacity="1" fill-rule="nonzero"/><path fill="#308f65" d="M 318.796875 418.171875 L 318.796875 405.359375 L 330.875 405.359375 L 330.875 418.171875 L 318.796875 418.171875 " fill-opacity="1" fill-rule="nonzero"/><path fill="#fbb937" d="M 317.316406 415.09375 L 317.316406 408.53125 L 332.445312 408.53125 L 332.445312 415.09375 L 317.316406 415.09375 " fill-opacity="1" fill-rule="nonzero"/><path fill="#308f65" d="M 318.796875 431.019531 L 318.796875 418.171875 L 330.875 418.171875 L 330.875 431.019531 L 318.796875 431.019531 " fill-opacity="1" fill-rule="nonzero"/><path fill="#fbb937" d="M 317.316406 427.929688 L 317.316406 421.378906 L 332.445312 421.378906 L 332.445312 427.929688 L 317.316406 427.929688 " fill-opacity="1" fill-rule="nonzero"/><path fill="#308f65" d="M 318.796875 443.851562 L 318.796875 431.019531 L 330.875 431.019531 L 330.875 443.851562 L 318.796875 443.851562 " fill-opacity="1" fill-rule="nonzero"/><path fill="#fbb937" d="M 317.316406 440.746094 L 317.316406 434.191406 L 332.445312 434.191406 L 332.445312 440.746094 L 317.316406 440.746094 " fill-opacity="1" fill-rule="nonzero"/><path fill="#308f65" d="M 318.796875 456.675781 L 318.796875 443.851562 L 330.875 443.851562 L 330.875 456.675781 L 318.796875 456.675781 " fill-opacity="1" fill-rule="nonzero"/><path fill="#fbb937" d="M 317.316406 453.59375 L 317.316406 447.046875 L 332.445312 447.046875 L 332.445312 453.59375 L 317.316406 453.59375 " fill-opacity="1" fill-rule="nonzero"/><path fill="#308f65" d="M 318.796875 469.511719 L 318.796875 456.675781 L 330.875 456.675781 L 330.875 469.511719 L 318.796875 469.511719 " fill-opacity="1" fill-rule="nonzero"/><path fill="#fbb937" d="M 317.316406 466.402344 L 317.316406 459.851562 L 332.445312 459.851562 L 332.445312 466.402344 L 317.316406 466.402344 " fill-opacity="1" fill-rule="nonzero"/><path fill="#308f65" d="M 318.796875 482.332031 L 318.796875 469.511719 L 330.875 469.511719 L 330.875 482.332031 L 318.796875 482.332031 " fill-opacity="1" fill-rule="nonzero"/><path fill="#fbb937" d="M 317.316406 479.265625 L 317.316406 472.695312 L 332.445312 472.695312 L 332.445312 479.265625 L 317.316406 479.265625 " fill-opacity="1" fill-rule="nonzero"/><path fill="#308f65" d="M 318.796875 495.175781 L 318.796875 482.332031 L 330.875 482.332031 L 330.875 495.175781 L 318.796875 495.175781 " fill-opacity="1" fill-rule="nonzero"/><path fill="#fbb937" d="M 317.316406 492.066406 L 317.316406 485.527344 L 332.445312 485.527344 L 332.445312 492.066406 L 317.316406 492.066406 " fill-opacity="1" fill-rule="nonzero"/><path fill="#308f65" d="M 318.796875 507.992188 L 318.796875 495.175781 L 330.875 495.175781 L 330.875 507.992188 L 318.796875 507.992188 " fill-opacity="1" fill-rule="nonzero"/><path fill="#fbb937" d="M 317.316406 504.925781 L 317.316406 498.316406 L 332.445312 498.316406 L 332.445312 504.925781 L 317.316406 504.925781 " fill-opacity="1" fill-rule="nonzero"/><path fill="#308f65" d="M 318.796875 520.832031 L 318.796875 507.992188 L 330.875 507.992188 L 330.875 520.832031 L 318.796875 520.832031 " fill-opacity="1" fill-rule="nonzero"/><path fill="#fbb937" d="M 317.316406 517.730469 L 317.316406 511.148438 L 332.445312 511.148438 L 332.445312 517.730469 L 317.316406 517.730469 " fill-opacity="1" fill-rule="nonzero"/><path fill="#308f65" d="M 318.796875 533.664062 L 318.796875 520.832031 L 330.875 520.832031 L 330.875 533.664062 L 318.796875 533.664062 " fill-opacity="1" fill-rule="nonzero"/><path fill="#fbb937" d="M 317.316406 530.570312 L 317.316406 524.007812 L 332.445312 524.007812 L 332.445312 530.570312 L 317.316406 530.570312 " fill-opacity="1" fill-rule="nonzero"/><path fill="#308f65" d="M 318.796875 546.492188 L 318.796875 533.664062 L 330.875 533.664062 L 330.875 546.492188 L 318.796875 546.492188 " fill-opacity="1" fill-rule="nonzero"/><path fill="#fbb937" d="M 317.316406 543.394531 L 317.316406 536.839844 L 332.445312 536.839844 L 332.445312 543.394531 L 317.316406 543.394531 " fill-opacity="1" fill-rule="nonzero"/><path fill="#308f65" d="M 318.796875 559.328125 L 318.796875 546.492188 L 330.875 546.492188 L 330.875 559.328125 L 318.796875 559.328125 " fill-opacity="1" fill-rule="nonzero"/><path fill="#fbb937" d="M 317.316406 556.226562 L 317.316406 549.667969 L 332.445312 549.667969 L 332.445312 556.226562 L 317.316406 556.226562 " fill-opacity="1" fill-rule="nonzero"/><path fill="#308f65" d="M 318.796875 572.144531 L 318.796875 559.328125 L 330.875 559.328125 L 330.875 572.144531 L 318.796875 572.144531 " fill-opacity="1" fill-rule="nonzero"/><path fill="#fbb937" d="M 317.316406 569.070312 L 317.316406 562.496094 L 332.445312 562.496094 L 332.445312 569.070312 L 317.316406 569.070312 " fill-opacity="1" fill-rule="nonzero"/><path fill="#308f65" d="M 318.796875 584.976562 L 318.796875 572.144531 L 330.875 572.144531 L 330.875 584.976562 L 318.796875 584.976562 " fill-opacity="1" fill-rule="nonzero"/><path fill="#fbb937" d="M 317.316406 581.882812 L 317.316406 575.328125 L 332.445312 575.328125 L 332.445312 581.882812 L 317.316406 581.882812 " fill-opacity="1" fill-rule="nonzero"/><path fill="#308f65" d="M 392.597656 355.644531 L 392.597656 342.820312 L 404.679688 342.820312 L 404.679688 355.644531 L 392.597656 355.644531 " fill-opacity="1" fill-rule="nonzero"/><path fill="#fbb937" d="M 391.117188 352.550781 L 391.117188 346.007812 L 406.253906 346.007812 L 406.253906 352.550781 L 391.117188 352.550781 " fill-opacity="1" fill-rule="nonzero"/><path fill="#308f65" d="M 392.597656 368.457031 L 392.597656 355.644531 L 404.679688 355.644531 L 404.679688 368.457031 L 392.597656 368.457031 " fill-opacity="1" fill-rule="nonzero"/><path fill="#fbb937" d="M 391.117188 365.402344 L 391.117188 358.855469 L 406.253906 358.855469 L 406.253906 365.402344 L 391.117188 365.402344 " fill-opacity="1" fill-rule="nonzero"/><path fill="#308f65" d="M 392.597656 381.300781 L 392.597656 368.457031 L 404.679688 368.457031 L 404.679688 381.300781 L 392.597656 381.300781 " fill-opacity="1" fill-rule="nonzero"/><path fill="#fbb937" d="M 391.117188 378.21875 L 391.117188 371.671875 L 406.253906 371.671875 L 406.253906 378.21875 L 391.117188 378.21875 " fill-opacity="1" fill-rule="nonzero"/><path fill="#308f65" d="M 392.597656 394.148438 L 392.597656 381.300781 L 404.679688 381.300781 L 404.679688 394.148438 L 392.597656 394.148438 " fill-opacity="1" fill-rule="nonzero"/><path fill="#fbb937" d="M 391.117188 391.039062 L 391.117188 384.503906 L 406.253906 384.503906 L 406.253906 391.039062 L 391.117188 391.039062 " fill-opacity="1" fill-rule="nonzero"/><path fill="#308f65" d="M 392.597656 406.960938 L 392.597656 394.148438 L 404.679688 394.148438 L 404.679688 406.960938 L 392.597656 406.960938 " fill-opacity="1" fill-rule="nonzero"/><path fill="#fbb937" d="M 391.117188 403.882812 L 391.117188 397.324219 L 406.253906 397.324219 L 406.253906 403.882812 L 391.117188 403.882812 " fill-opacity="1" fill-rule="nonzero"/><path fill="#308f65" d="M 392.597656 419.804688 L 392.597656 406.960938 L 404.679688 406.960938 L 404.679688 419.804688 L 392.597656 419.804688 " fill-opacity="1" fill-rule="nonzero"/><path fill="#fbb937" d="M 391.117188 416.714844 L 391.117188 410.152344 L 406.253906 410.152344 L 406.253906 416.714844 L 391.117188 416.714844 " fill-opacity="1" fill-rule="nonzero"/><path fill="#308f65" d="M 392.597656 432.621094 L 392.597656 419.804688 L 404.679688 419.804688 L 404.679688 432.621094 L 392.597656 432.621094 " fill-opacity="1" fill-rule="nonzero"/><path fill="#fbb937" d="M 391.117188 429.539062 L 391.117188 422.984375 L 406.253906 422.984375 L 406.253906 429.539062 L 391.117188 429.539062 " fill-opacity="1" fill-rule="nonzero"/><path fill="#308f65" d="M 392.597656 445.472656 L 392.597656 432.621094 L 404.679688 432.621094 L 404.679688 445.472656 L 392.597656 445.472656 " fill-opacity="1" fill-rule="nonzero"/><path fill="#fbb937" d="M 391.117188 442.378906 L 391.117188 435.816406 L 406.253906 435.816406 L 406.253906 442.378906 L 391.117188 442.378906 " fill-opacity="1" fill-rule="nonzero"/><path fill="#308f65" d="M 392.597656 458.28125 L 392.597656 445.472656 L 404.679688 445.472656 L 404.679688 458.28125 L 392.597656 458.28125 " fill-opacity="1" fill-rule="nonzero"/><path fill="#fbb937" d="M 391.117188 455.195312 L 391.117188 448.648438 L 406.253906 448.648438 L 406.253906 455.195312 L 391.117188 455.195312 " fill-opacity="1" fill-rule="nonzero"/><path fill="#308f65" d="M 392.597656 471.132812 L 392.597656 458.28125 L 404.679688 458.28125 L 404.679688 471.132812 L 392.597656 471.132812 " fill-opacity="1" fill-rule="nonzero"/><path fill="#fbb937" d="M 391.117188 468.027344 L 391.117188 461.472656 L 406.253906 461.472656 L 406.253906 468.027344 L 391.117188 468.027344 " fill-opacity="1" fill-rule="nonzero"/><path fill="#308f65" d="M 392.597656 483.9375 L 392.597656 471.132812 L 404.679688 471.132812 L 404.679688 483.9375 L 392.597656 483.9375 " fill-opacity="1" fill-rule="nonzero"/><path fill="#fbb937" d="M 391.117188 480.851562 L 391.117188 474.304688 L 406.253906 474.304688 L 406.253906 480.851562 L 391.117188 480.851562 " fill-opacity="1" fill-rule="nonzero"/><path fill="#308f65" d="M 392.597656 496.785156 L 392.597656 483.9375 L 404.679688 483.9375 L 404.679688 496.785156 L 392.597656 496.785156 " fill-opacity="1" fill-rule="nonzero"/><path fill="#fbb937" d="M 391.117188 493.683594 L 391.117188 487.121094 L 406.253906 487.121094 L 406.253906 493.683594 L 391.117188 493.683594 " fill-opacity="1" fill-rule="nonzero"/><path fill="#308f65" d="M 392.597656 509.601562 L 392.597656 496.785156 L 404.679688 496.785156 L 404.679688 509.601562 L 392.597656 509.601562 " fill-opacity="1" fill-rule="nonzero"/><path fill="#fbb937" d="M 391.117188 506.515625 L 391.117188 499.960938 L 406.253906 499.960938 L 406.253906 506.515625 L 391.117188 506.515625 " fill-opacity="1" fill-rule="nonzero"/><path fill="#308f65" d="M 392.597656 522.449219 L 392.597656 509.601562 L 404.679688 509.601562 L 404.679688 522.449219 L 392.597656 522.449219 " fill-opacity="1" fill-rule="nonzero"/><path fill="#fbb937" d="M 391.117188 519.34375 L 391.117188 512.78125 L 406.253906 512.78125 L 406.253906 519.34375 L 391.117188 519.34375 " fill-opacity="1" fill-rule="nonzero"/><path fill="#308f65" d="M 392.597656 535.257812 L 392.597656 522.449219 L 404.679688 522.449219 L 404.679688 535.257812 L 392.597656 535.257812 " fill-opacity="1" fill-rule="nonzero"/><path fill="#fbb937" d="M 391.117188 532.164062 L 391.117188 525.605469 L 406.253906 525.605469 L 406.253906 532.164062 L 391.117188 532.164062 " fill-opacity="1" fill-rule="nonzero"/><path fill="#308f65" d="M 392.597656 548.105469 L 392.597656 535.257812 L 404.679688 535.257812 L 404.679688 548.105469 L 392.597656 548.105469 " fill-opacity="1" fill-rule="nonzero"/><path fill="#fbb937" d="M 391.117188 545.015625 L 391.117188 538.433594 L 406.253906 538.433594 L 406.253906 545.015625 L 391.117188 545.015625 " fill-opacity="1" fill-rule="nonzero"/><path fill="#308f65" d="M 392.597656 560.921875 L 392.597656 548.105469 L 404.679688 548.105469 L 404.679688 560.921875 L 392.597656 560.921875 " fill-opacity="1" fill-rule="nonzero"/><path fill="#fbb937" d="M 391.117188 557.824219 L 391.117188 551.292969 L 406.253906 551.292969 L 406.253906 557.824219 L 391.117188 557.824219 " fill-opacity="1" fill-rule="nonzero"/><path fill="#308f65" d="M 392.597656 573.753906 L 392.597656 560.921875 L 404.679688 560.921875 L 404.679688 573.753906 L 392.597656 573.753906 " fill-opacity="1" fill-rule="nonzero"/><path fill="#fbb937" d="M 391.117188 570.671875 L 391.117188 564.097656 L 406.253906 564.097656 L 406.253906 570.671875 L 391.117188 570.671875 " fill-opacity="1" fill-rule="nonzero"/><path fill="#308f65" d="M 392.597656 586.578125 L 392.597656 573.753906 L 404.679688 573.753906 L 404.679688 586.578125 L 392.597656 586.578125 " fill-opacity="1" fill-rule="nonzero"/><path fill="#fbb937" d="M 391.117188 583.503906 L 391.117188 576.929688 L 406.253906 576.929688 L 406.253906 583.503906 L 391.117188 583.503906 " fill-opacity="1" fill-rule="nonzero"/><path fill="#fb891d" d="M 227.394531 285.886719 C 227.5 286.140625 238.695312 281.210938 238.253906 281.15625 L 244.253906 291.628906 C 244.066406 292.101562 231.613281 297.507812 231.492188 297.238281 L 227.394531 285.886719 " fill-opacity="1" fill-rule="nonzero"/><path fill="#308f65" d="M 229.601562 283.5 C 229.601562 283.5 230.996094 282.902344 232.425781 282.296875 C 233.78125 281.722656 235.148438 281.089844 235.148438 281.089844 L 241.710938 294.703125 C 241.710938 294.703125 240.070312 295.460938 238.457031 296.210938 C 236.800781 296.871094 235.160156 297.5625 235.160156 297.5625 L 229.601562 283.5 " fill-opacity="1" fill-rule="nonzero"/><path fill="#fb891d" d="M 215.753906 289.304688 C 215.753906 289.304688 218.695312 288.679688 221.617188 287.777344 C 224.546875 286.871094 227.394531 285.886719 227.394531 285.886719 L 231.492188 297.238281 C 231.492188 297.238281 228.300781 298.367188 225.042969 299.355469 C 221.769531 300.355469 218.433594 301.101562 218.433594 301.101562 L 215.753906 289.304688 " fill-opacity="1" fill-rule="nonzero"/><path fill="#308f65" d="M 218.199219 287.195312 C 218.199219 287.195312 219.714844 286.804688 221.175781 286.359375 C 222.617188 285.914062 224.097656 285.496094 224.097656 285.496094 L 228.824219 299.863281 C 228.824219 299.863281 227.128906 300.367188 225.429688 300.886719 C 223.746094 301.394531 222.023438 301.832031 222.023438 301.832031 L 218.199219 287.195312 " fill-opacity="1" fill-rule="nonzero"/><path fill="#fb891d" d="M 203.796875 291.238281 C 203.820312 291.460938 215.792969 289.566406 215.753906 289.304688 L 218.433594 301.101562 C 218.503906 301.363281 204.992188 303.519531 204.949219 303.25 L 203.796875 291.238281 " fill-opacity="1" fill-rule="nonzero"/><path fill="#308f65" d="M 206.488281 289.496094 L 212.496094 288.5 L 215.421875 303.359375 L 208.429688 304.527344 L 206.488281 289.496094 " fill-opacity="1" fill-rule="nonzero"/><path fill="#fb891d" d="M 191.761719 291.574219 C 191.761719 291.574219 194.796875 291.558594 197.78125 291.601562 C 199.269531 291.625 200.78125 291.515625 201.914062 291.398438 C 203.03125 291.285156 203.796875 291.238281 203.796875 291.238281 L 204.949219 303.25 C 204.949219 303.25 204.078125 303.316406 202.789062 303.441406 C 201.523438 303.5625 199.804688 303.695312 198.085938 303.664062 C 194.621094 303.59375 191.1875 303.636719 191.1875 303.636719 L 191.761719 291.574219 " fill-opacity="1" fill-rule="nonzero"/><path fill="#308f65" d="M 194.699219 290.121094 C 194.699219 290.121094 200.699219 290.191406 200.699219 290.042969 L 201.621094 305.128906 C 201.648438 305.292969 194.492188 305.25 194.492188 305.25 L 194.699219 290.121094 " fill-opacity="1" fill-rule="nonzero"/><path fill="#fb891d" d="M 179.960938 289.960938 C 179.960938 289.960938 180.683594 290.117188 181.777344 290.332031 C 182.890625 290.550781 184.324219 290.953125 185.816406 290.992188 C 188.796875 291.292969 191.761719 291.574219 191.761719 291.574219 L 191.1875 303.636719 C 191.1875 303.636719 187.734375 303.25 184.285156 302.996094 C 182.5625 302.867188 180.867188 302.484375 179.597656 302.222656 C 178.308594 301.960938 177.46875 301.777344 177.46875 301.777344 L 179.960938 289.960938 " fill-opacity="1" fill-rule="nonzero"/><path fill="#308f65" d="M 183.027344 289.089844 C 182.988281 289.277344 188.972656 289.824219 188.972656 289.824219 L 187.621094 304.878906 C 187.621094 304.878906 180.460938 304.210938 180.472656 304 L 183.027344 289.089844 " fill-opacity="1" fill-rule="nonzero"/><path fill="#fb891d" d="M 168.554688 286.648438 C 168.554688 286.648438 171.367188 287.582031 174.21875 288.527344 C 176.996094 289.621094 180 289.867188 179.960938 289.960938 L 177.46875 301.777344 C 177.46875 301.777344 176.613281 301.574219 175.347656 301.339844 C 174.046875 301.09375 172.390625 300.660156 170.746094 300.089844 C 167.449219 298.941406 164.125 297.886719 164.125 297.886719 L 168.554688 286.648438 " fill-opacity="1" fill-rule="nonzero"/><path fill="#308f65" d="M 171.753906 286.140625 C 171.753906 286.140625 177.386719 288.136719 177.429688 287.90625 L 173.703125 302.601562 C 173.652344 302.792969 166.792969 300.433594 166.792969 300.433594 L 171.753906 286.140625 " fill-opacity="1" fill-rule="nonzero"/><path fill="#fb891d" d="M 157.949219 281.289062 C 157.734375 281.695312 168.554688 286.648438 168.554688 286.648438 L 164.125 297.886719 C 164.125 297.886719 163.332031 297.59375 162.160156 297.019531 C 160.988281 296.445312 159.417969 295.679688 157.828125 294.96875 C 154.648438 293.539062 151.734375 291.65625 151.734375 291.65625 L 157.949219 281.289062 " fill-opacity="1" fill-rule="nonzero"/><path fill="#308f65" d="M 161.078125 281.519531 L 166.496094 284.054688 L 160.382812 297.898438 L 153.824219 294.785156 L 161.078125 281.519531 " fill-opacity="1" fill-rule="nonzero"/><path fill="#fb891d" d="M 148.214844 274.335938 C 148.214844 274.335938 148.777344 274.832031 149.65625 275.546875 C 150.515625 276.25 151.597656 277.34375 152.910156 278.074219 C 155.417969 279.6875 157.949219 281.289062 157.949219 281.289062 L 151.734375 291.65625 C 151.734375 291.65625 148.84375 289.800781 145.933594 287.90625 C 144.40625 287.035156 143.1875 285.816406 142.183594 285.027344 C 141.171875 284.230469 140.535156 283.648438 140.535156 283.648438 L 148.214844 274.335938 " fill-opacity="1" fill-rule="nonzero"/><path fill="#308f65" d="M 151.316406 275.027344 C 151.207031 275.210938 156.253906 278.457031 156.253906 278.457031 L 148 291.128906 C 148 291.128906 146.503906 290.117188 144.960938 289.183594 C 143.402344 288.238281 142.117188 287.019531 142.117188 287.019531 L 151.316406 275.027344 " fill-opacity="1" fill-rule="nonzero"/><path fill="#fb891d" d="M 139.640625 266.082031 C 139.640625 266.082031 141.621094 268.269531 143.617188 270.464844 C 145.917969 272.398438 148.214844 274.335938 148.214844 274.335938 L 140.535156 283.648438 C 140.535156 283.648438 137.898438 281.441406 135.285156 279.203125 C 132.914062 276.621094 130.5625 274.027344 130.5625 274.027344 L 139.640625 266.082031 " fill-opacity="1" fill-rule="nonzero"/><path fill="#308f65" d="M 142.613281 267.148438 C 142.613281 267.148438 143.617188 268.253906 144.59375 269.34375 C 145.753906 270.324219 146.882812 271.304688 146.882812 271.304688 L 136.867188 282.652344 C 136.867188 282.652344 135.507812 281.464844 134.164062 280.304688 C 132.914062 278.945312 131.699219 277.621094 131.699219 277.621094 L 142.613281 267.148438 " fill-opacity="1" fill-rule="nonzero"/><path fill="#fb891d" d="M 132.75 256.675781 C 132.75 256.675781 134.371094 259.085938 135.890625 261.546875 C 137.425781 264.019531 139.757812 266 139.640625 266.082031 L 130.5625 274.027344 C 130.671875 273.953125 128.019531 271.640625 126.097656 268.636719 C 124.1875 265.644531 122.253906 262.675781 122.253906 262.675781 L 132.75 256.675781 " fill-opacity="1" fill-rule="nonzero"/><path fill="#308f65" d="M 135.535156 258.230469 C 135.535156 258.230469 138.542969 263.148438 138.816406 262.972656 L 127.007812 272.4375 C 126.78125 272.695312 122.785156 266.398438 122.785156 266.398438 L 135.535156 258.230469 " fill-opacity="1" fill-rule="nonzero"/><path fill="#fb891d" d="M 128.246094 246.164062 C 128.246094 246.164062 128.421875 246.871094 128.664062 247.90625 C 129.09375 248.878906 131.394531 254.15625 131.792969 255.15625 C 132.320312 256.113281 132.75 256.675781 132.75 256.675781 L 122.253906 262.675781 C 122.253906 262.675781 121.738281 261.964844 121.09375 260.789062 C 120.570312 259.566406 117.746094 252.972656 117.222656 251.75 C 116.890625 250.4375 116.660156 249.582031 116.660156 249.582031 L 128.246094 246.164062 " fill-opacity="1" fill-rule="nonzero"/><path fill="#308f65" d="M 130.453125 248.289062 L 132.710938 253.519531 L 119.179688 260.28125 L 116.21875 253.371094 L 130.453125 248.289062 " fill-opacity="1" fill-rule="nonzero"/><path fill="#fb891d" d="M 126.390625 234.882812 C 126.390625 234.882812 126.617188 237.757812 126.882812 240.632812 C 127.5625 243.402344 128.246094 246.164062 128.246094 246.164062 L 116.660156 249.582031 C 116.660156 249.582031 115.808594 246.078125 114.976562 242.574219 C 114.542969 239.046875 114.289062 235.472656 114.289062 235.472656 L 126.390625 234.882812 " fill-opacity="1" fill-rule="nonzero"/><path fill="#308f65" d="M 128.078125 237.515625 C 128.078125 237.515625 128.152344 238.929688 128.339844 240.34375 C 128.664062 241.730469 129.035156 243.082031 129.035156 243.082031 L 114.273438 246.472656 C 114.273438 246.472656 113.84375 244.628906 113.40625 242.789062 C 113.152344 240.945312 113.03125 239.058594 113.03125 239.058594 L 128.078125 237.515625 " fill-opacity="1" fill-rule="nonzero"/><path fill="#fb891d" d="M 127.050781 223.300781 C 126.699219 223.289062 125.921875 234.9375 126.390625 234.882812 L 114.289062 235.472656 C 113.789062 235.457031 114.707031 221.292969 115.128906 221.390625 L 127.050781 223.300781 " fill-opacity="1" fill-rule="nonzero"/><path fill="#308f65" d="M 128.078125 226.273438 L 127.742188 232.046875 L 112.621094 231.925781 L 113.058594 224.546875 L 128.078125 226.273438 " fill-opacity="1" fill-rule="nonzero"/><path fill="#fb891d" d="M 129.902344 211.785156 C 129.902344 211.785156 128.984375 214.628906 128.207031 217.519531 C 127.433594 220.375 127.050781 223.300781 127.050781 223.300781 L 115.128906 221.390625 C 115.128906 221.390625 115.671875 217.894531 116.5 214.523438 C 117.496094 211.210938 118.472656 207.882812 118.472656 207.882812 L 129.902344 211.785156 " fill-opacity="1" fill-rule="nonzero"/><path fill="#308f65" d="M 130.511719 214.964844 C 130.511719 214.964844 130.078125 216.417969 129.652344 217.835938 C 129.222656 219.257812 129.035156 220.738281 129.035156 220.738281 L 114.242188 217.667969 C 114.242188 217.667969 114.488281 215.824219 114.992188 214.113281 C 115.507812 212.359375 116.023438 210.648438 116.023438 210.648438 L 130.511719 214.964844 " fill-opacity="1" fill-rule="nonzero"/><path fill="#fb891d" d="M 134.652344 200.671875 C 134.652344 200.671875 133.191406 203.375 132.074219 206.179688 C 130.964844 208.96875 129.902344 211.785156 129.902344 211.785156 L 118.472656 207.882812 C 118.472656 207.882812 119.679688 204.664062 120.957031 201.457031 C 122.226562 198.265625 123.84375 195.265625 123.84375 195.265625 L 134.652344 200.671875 " fill-opacity="1" fill-rule="nonzero"/><path fill="#308f65" d="M 134.699219 203.957031 C 134.582031 203.890625 132.347656 209.53125 132.347656 209.53125 L 118.199219 204.125 C 118.199219 204.125 120.855469 197.492188 120.996094 197.570312 L 134.699219 203.957031 " fill-opacity="1" fill-rule="nonzero"/><path fill="#fb891d" d="M 140.722656 190.109375 C 140.722656 190.109375 139.015625 192.648438 137.515625 195.335938 C 136.777344 196.652344 136.027344 197.992188 135.453125 198.960938 C 134.980469 199.996094 134.652344 200.671875 134.652344 200.671875 L 123.84375 195.265625 C 123.84375 195.265625 124.1875 194.488281 124.78125 193.355469 C 125.371094 192.226562 126.242188 190.757812 127.078125 189.265625 C 128.726562 186.320312 130.632812 183.484375 130.632812 183.484375 L 140.722656 190.109375 " fill-opacity="1" fill-rule="nonzero"/><path fill="#308f65" d="M 140.40625 193.382812 C 140.40625 193.382812 139.550781 194.683594 138.816406 196.019531 C 138.078125 197.367188 137.320312 198.707031 137.320312 198.707031 L 124.011719 191.511719 C 124.011719 191.511719 124.890625 189.980469 125.738281 188.457031 C 126.601562 186.910156 127.539062 185.410156 127.539062 185.410156 L 140.40625 193.382812 " fill-opacity="1" fill-rule="nonzero"/><path fill="#fb891d" d="M 147.878906 180.523438 C 147.925781 180.402344 145.996094 182.644531 144.195312 185.089844 C 142.378906 187.5625 140.722656 190.109375 140.722656 190.109375 L 130.632812 183.484375 C 130.632812 183.484375 132.449219 180.609375 134.515625 177.882812 C 135.546875 176.519531 136.566406 175.1875 137.421875 174.171875 C 138.296875 173.128906 138.886719 172.417969 138.886719 172.417969 L 147.878906 180.523438 " fill-opacity="1" fill-rule="nonzero"/><path fill="#308f65" d="M 147.261719 183.539062 C 147.261719 183.539062 146.308594 184.726562 145.414062 185.957031 C 144.496094 187.207031 143.628906 188.457031 143.628906 188.457031 L 131.21875 179.808594 C 131.21875 179.808594 132.238281 178.351562 133.292969 176.929688 C 134.351562 175.5 135.429688 174.121094 135.429688 174.121094 L 147.261719 183.539062 " fill-opacity="1" fill-rule="nonzero"/><path fill="#308f65" d="M 262.773438 294.824219 L 239.945312 305.003906 L 225.5625 272.65625 L 248.355469 262.488281 L 262.773438 294.824219 " fill-opacity="1" fill-rule="nonzero"/><path fill="#fb891d" d="M 258.421875 339.320312 C 258.695312 339.46875 263.988281 328.765625 263.507812 329.097656 L 275 332.914062 C 274.957031 333.15625 273.652344 336.488281 272.101562 339.550781 C 270.539062 342.636719 268.757812 345.554688 268.757812 345.554688 L 258.421875 339.320312 " fill-opacity="1" fill-rule="nonzero"/><path fill="#308f65" d="M 258.570312 336.128906 C 258.570312 336.128906 259.277344 334.835938 259.941406 333.523438 C 260.578125 332.253906 261.171875 330.90625 261.171875 330.90625 L 275.019531 336.992188 C 275.019531 336.992188 274.300781 338.675781 273.484375 340.308594 C 272.6875 341.90625 271.804688 343.480469 271.804688 343.480469 L 258.570312 336.128906 " fill-opacity="1" fill-rule="nonzero"/><path fill="#fb891d" d="M 251.539062 349.035156 C 251.746094 349.183594 258.636719 339.453125 258.421875 339.320312 L 268.757812 345.554688 C 268.988281 345.734375 261.128906 356.839844 260.90625 356.671875 L 251.539062 349.035156 " fill-opacity="1" fill-rule="nonzero"/><path fill="#308f65" d="M 252.171875 345.902344 L 255.644531 341.023438 L 268.324219 349.28125 L 264.230469 355.078125 L 252.171875 345.902344 " fill-opacity="1" fill-rule="nonzero"/><path fill="#fb891d" d="M 243.402344 357.800781 C 243.402344 357.800781 244.003906 357.332031 244.78125 356.53125 C 245.558594 355.730469 246.5625 354.617188 247.613281 353.539062 C 249.707031 351.390625 251.539062 349.035156 251.539062 349.035156 L 260.90625 356.671875 C 260.90625 356.671875 258.839844 359.367188 256.449219 361.773438 C 255.242188 362.984375 254.089844 364.246094 253.21875 365.152344 C 252.351562 366.054688 251.671875 366.59375 251.671875 366.59375 L 243.402344 357.800781 " fill-opacity="1" fill-rule="nonzero"/><path fill="#308f65" d="M 244.410156 354.738281 L 248.558594 350.375 L 259.953125 360.300781 L 255.125 365.414062 L 244.410156 354.738281 " fill-opacity="1" fill-rule="nonzero"/><path fill="#fb891d" d="M 234.128906 365.363281 C 234.128906 365.363281 236.519531 363.558594 238.902344 361.757812 C 241.160156 359.769531 243.402344 357.800781 243.402344 357.800781 L 251.671875 366.59375 C 251.671875 366.59375 249.132812 368.847656 246.59375 371.097656 C 243.929688 373.191406 241.1875 375.152344 241.1875 375.152344 L 234.128906 365.363281 " fill-opacity="1" fill-rule="nonzero"/><path fill="#308f65" d="M 235.546875 362.46875 C 235.546875 362.46875 236.8125 361.621094 237.949219 360.644531 C 239.101562 359.65625 240.195312 358.652344 240.195312 358.652344 L 250.1875 370.011719 C 250.1875 370.011719 248.875 371.210938 247.558594 372.339844 C 246.210938 373.5 244.753906 374.46875 244.753906 374.46875 L 235.546875 362.46875 " fill-opacity="1" fill-rule="nonzero"/><path fill="#fb891d" d="M 223.988281 371.78125 C 223.988281 371.78125 234.308594 365.632812 234.128906 365.363281 L 241.1875 375.152344 C 241.367188 375.484375 229.738281 382.429688 229.738281 382.429688 L 223.988281 371.78125 " fill-opacity="1" fill-rule="nonzero"/><path fill="#308f65" d="M 225.738281 369.011719 L 230.898438 365.875 L 239.335938 378.476562 L 233.335938 382.089844 L 225.738281 369.011719 " fill-opacity="1" fill-rule="nonzero"/><path fill="#fb891d" d="M 213.054688 376.816406 C 213.167969 377.066406 223.988281 371.78125 223.988281 371.78125 L 229.738281 382.429688 C 229.738281 382.429688 217.601562 388.335938 217.496094 388.050781 L 213.054688 376.816406 " fill-opacity="1" fill-rule="nonzero"/><path fill="#308f65" d="M 215.15625 374.347656 L 220.632812 371.78125 L 227.460938 385.296875 L 221.109375 388.253906 L 215.15625 374.347656 " fill-opacity="1" fill-rule="nonzero"/><path fill="#fb891d" d="M 201.558594 380.589844 C 201.6875 380.960938 213.054688 376.816406 213.054688 376.816406 L 217.496094 388.050781 C 217.496094 388.050781 204.84375 392.617188 204.746094 392.234375 L 201.558594 380.589844 " fill-opacity="1" fill-rule="nonzero"/><path fill="#308f65" d="M 203.957031 378.476562 L 209.710938 376.414062 L 214.898438 390.632812 L 208.3125 392.9375 L 203.957031 378.476562 " fill-opacity="1" fill-rule="nonzero"/><path fill="#fb891d" d="M 189.675781 383.207031 C 189.769531 383.558594 201.558594 380.589844 201.558594 380.589844 L 204.746094 392.234375 C 204.746094 392.234375 191.761719 395.484375 191.707031 395.113281 L 189.675781 383.207031 " fill-opacity="1" fill-rule="nonzero"/><path fill="#308f65" d="M 192.316406 381.328125 L 198.277344 379.867188 L 201.914062 394.546875 L 195.171875 396.171875 L 192.316406 381.328125 " fill-opacity="1" fill-rule="nonzero"/><path fill="#fb891d" d="M 177.535156 384.730469 C 177.535156 384.730469 178.3125 384.691406 179.460938 384.644531 C 180.589844 384.503906 189.675781 383.207031 189.675781 383.207031 L 191.707031 395.113281 C 191.707031 395.113281 181.816406 396.496094 180.589844 396.671875 C 179.34375 396.742188 178.519531 396.796875 178.519531 396.796875 L 177.535156 384.730469 " fill-opacity="1" fill-rule="nonzero"/><path fill="#308f65" d="M 180.320312 383.03125 L 186.453125 382.171875 L 188.683594 397.132812 L 181.859375 398.070312 L 180.320312 383.03125 " fill-opacity="1" fill-rule="nonzero"/><path fill="#fb891d" d="M 165.246094 385.296875 L 177.535156 384.730469 L 178.519531 396.796875 L 165.300781 397.363281 L 165.246094 385.296875 " fill-opacity="1" fill-rule="nonzero"/><path fill="#308f65" d="M 168.179688 383.671875 L 174.410156 383.421875 L 175.320312 398.496094 L 168.503906 398.800781 L 168.179688 383.671875 " fill-opacity="1" fill-rule="nonzero"/><path fill="#fb891d" d="M 153.4375 384.398438 C 153.4375 384.398438 154.179688 384.503906 155.269531 384.644531 C 156.375 384.789062 157.855469 385.011719 159.328125 385.050781 C 160.800781 385.09375 162.28125 385.175781 163.382812 385.226562 C 164.496094 385.28125 165.246094 385.296875 165.246094 385.296875 L 165.300781 397.363281 C 165.300781 397.363281 164.457031 397.394531 163.164062 397.324219 C 161.871094 397.25 160.167969 397.179688 158.464844 397.121094 C 156.742188 397.058594 155.046875 396.796875 153.769531 396.617188 C 152.5 396.445312 151.640625 396.34375 151.640625 396.34375 L 153.4375 384.398438 " fill-opacity="1" fill-rule="nonzero"/><path fill="#308f65" d="M 156.429688 383.328125 C 156.417969 383.476562 162.355469 383.710938 162.355469 383.710938 L 161.855469 398.84375 C 161.855469 398.84375 154.734375 398.539062 154.75 398.335938 L 156.429688 383.328125 " fill-opacity="1" fill-rule="nonzero"/><path fill="#fb891d" d="M 141.90625 381.746094 C 141.851562 381.96875 153.382812 384.707031 153.4375 384.398438 L 151.640625 396.34375 C 151.574219 396.714844 138.25 393.578125 138.332031 393.289062 L 141.90625 381.746094 " fill-opacity="1" fill-rule="nonzero"/><path fill="#308f65" d="M 145.039062 381.171875 L 150.824219 382.503906 L 148 397.335938 L 141.0625 395.78125 L 145.039062 381.171875 " fill-opacity="1" fill-rule="nonzero"/><path fill="#fb891d" d="M 130.824219 377.414062 C 130.738281 377.695312 141.851562 381.96875 141.90625 381.746094 L 138.332031 393.289062 C 138.238281 393.578125 125.515625 388.601562 125.652344 388.335938 L 130.824219 377.414062 " fill-opacity="1" fill-rule="nonzero"/><path fill="#308f65" d="M 134.015625 377.308594 L 139.589844 379.484375 L 134.582031 393.761719 L 127.972656 391.1875 L 134.015625 377.308594 " fill-opacity="1" fill-rule="nonzero"/><path fill="#fb891d" d="M 120.398438 371.589844 C 120.398438 371.589844 122.84375 373.300781 125.515625 374.671875 C 128.089844 376.199219 130.824219 377.414062 130.824219 377.414062 L 125.652344 388.335938 C 125.652344 388.335938 122.578125 386.886719 119.601562 385.214844 C 116.660156 383.5625 113.800781 381.746094 113.800781 381.746094 L 120.398438 371.589844 " fill-opacity="1" fill-rule="nonzero"/><path fill="#308f65" d="M 123.570312 371.886719 L 128.847656 374.820312 L 121.886719 388.269531 L 115.753906 384.792969 L 123.570312 371.886719 " fill-opacity="1" fill-rule="nonzero"/><path fill="#fb891d" d="M 110.726562 364.460938 C 110.726562 364.460938 113.011719 366.40625 115.421875 368.199219 C 117.847656 370 120.398438 371.589844 120.398438 371.589844 L 113.800781 381.746094 C 113.800781 381.746094 110.972656 379.902344 108.25 377.894531 C 105.507812 375.875 102.925781 373.691406 102.925781 373.691406 L 110.726562 364.460938 " fill-opacity="1" fill-rule="nonzero"/><path fill="#308f65" d="M 113.882812 365.125 C 113.882812 365.125 115.089844 366.0625 116.277344 366.960938 C 117.5 367.894531 118.746094 368.742188 118.746094 368.742188 L 110.121094 381.171875 C 110.121094 381.171875 108.664062 380.183594 107.277344 379.125 C 105.871094 378.054688 104.507812 376.984375 104.507812 376.984375 L 113.882812 365.125 " fill-opacity="1" fill-rule="nonzero"/><path fill="#fb891d" d="M 102.351562 356.351562 C 101.863281 356.246094 110.578125 364.667969 110.726562 364.460938 L 102.925781 373.691406 C 102.925781 373.691406 100.351562 371.507812 97.886719 369.15625 C 95.410156 366.800781 93.128906 364.214844 93.007812 364.039062 L 102.351562 356.351562 " fill-opacity="1" fill-rule="nonzero"/><path fill="#308f65" d="M 105.175781 357.273438 C 105.175781 357.273438 106.207031 358.355469 107.277344 359.386719 C 108.34375 360.414062 109.464844 361.402344 109.464844 361.402344 L 99.351562 372.664062 C 99.351562 372.664062 98.042969 371.472656 96.757812 370.242188 C 95.496094 369.027344 94.230469 367.71875 94.230469 367.71875 L 105.175781 357.273438 " fill-opacity="1" fill-rule="nonzero"/><path fill="#308f65" d="M 292.316406 329.523438 L 275.9375 348.40625 L 249.226562 325.207031 L 265.601562 306.339844 L 292.316406 329.523438 " fill-opacity="1" fill-rule="nonzero"/><path fill="#308f65" d="M 439.640625 294.636719 L 462.46875 304.824219 L 476.867188 272.492188 L 454.046875 262.308594 L 439.640625 294.636719 " fill-opacity="1" fill-rule="nonzero"/><path fill="#308f65" d="M 410.101562 329.371094 L 426.488281 348.234375 L 453.1875 325.023438 L 436.8125 306.148438 L 410.101562 329.371094 " fill-opacity="1" fill-rule="nonzero"/><path fill="#2e7d39" d="M 415.640625 160.085938 L 404.601562 157.292969 L 431.800781 83.285156 C 432.566406 83.476562 433.304688 83.664062 434.089844 83.789062 L 415.640625 160.085938 " fill-opacity="1" fill-rule="nonzero"/><path fill="#308f65" d="M 423.238281 81.40625 C 421.679688 86.761719 424.757812 92.367188 430.128906 93.945312 C 435.472656 95.480469 441.066406 92.398438 442.632812 87.0625 C 444.195312 81.71875 441.121094 76.113281 435.75 74.546875 C 430.421875 72.972656 424.800781 76.035156 423.238281 81.40625 " fill-opacity="1" fill-rule="nonzero"/><path fill="#fbb937" d="M 467.667969 247.003906 C 467.667969 309.515625 416.996094 360.226562 354.480469 360.226562 C 291.972656 360.226562 241.289062 309.515625 241.289062 247.003906 C 241.289062 184.484375 291.972656 133.777344 354.480469 133.777344 C 416.996094 133.777344 467.667969 184.484375 467.667969 247.003906 " fill-opacity="1" fill-rule="nonzero"/><path fill="#dd9037" d="M 302.65625 252.722656 C 302.65625 203.585938 318.632812 160.136719 342.941406 134.355469 C 341.027344 134.558594 339.199219 134.949219 337.308594 135.234375 C 313.996094 162.050781 298.828125 204.660156 298.828125 252.722656 C 298.828125 293.3125 309.609375 330.109375 327.003906 356.726562 C 328.835938 357.175781 330.667969 357.691406 332.550781 358.050781 C 314.207031 331.890625 302.65625 294.425781 302.65625 252.722656 " fill-opacity="1" fill-rule="nonzero"/><path fill="#dd9037" d="M 410.101562 148.46875 C 409.011719 147.839844 407.914062 147.222656 406.804688 146.679688 C 388.519531 173.40625 377.078125 210.984375 377.078125 252.722656 C 377.078125 290.070312 386.242188 324.101562 401.269531 350.007812 C 402.414062 349.496094 403.53125 348.941406 404.640625 348.40625 C 389.90625 323.035156 380.882812 289.527344 380.882812 252.722656 C 380.882812 211.574219 392.175781 174.550781 410.101562 148.46875 " fill-opacity="1" fill-rule="nonzero"/><path fill="#dd9037" d="M 371.101562 252.011719 L 312.527344 252.011719 L 312.527344 226.726562 L 371.101562 226.726562 L 371.101562 252.011719 " fill-opacity="1" fill-rule="nonzero"/><path fill="#fffed4" d="M 325.828125 181.910156 C 325.613281 195.078125 336.34375 205.847656 349.785156 205.984375 C 363.203125 206.152344 374.261719 195.59375 374.46875 182.449219 C 374.660156 169.28125 363.890625 158.492188 350.46875 158.347656 C 337.070312 158.210938 325.972656 168.738281 325.828125 181.910156 " fill-opacity="1" fill-rule="nonzero"/><path fill="#104a05" d="M 358.375 179.433594 L 352.851562 179.433594 L 352.851562 159.597656 L 358.375 159.597656 L 358.375 179.433594 " fill-opacity="1" fill-rule="nonzero"/><path fill="#308f65" d="M 350.210938 159.746094 C 356.359375 159.773438 361.9375 162.183594 366.105469 166.375 C 370.371094 170.664062 372.664062 176.355469 372.613281 182.40625 C 372.441406 194.632812 362.328125 204.6875 350.042969 204.589844 C 343.898438 204.546875 338.335938 202.1875 334.199219 197.992188 C 329.871094 193.6875 327.566406 188.003906 327.6875 181.910156 C 327.839844 169.714844 337.949219 159.695312 350.210938 159.746094 Z M 350.054688 208.847656 C 365.113281 208.914062 377.519531 197.015625 377.765625 182.449219 C 377.832031 175.429688 375.097656 168.699219 370.058594 163.644531 C 364.894531 158.46875 357.953125 155.5625 350.507812 155.496094 C 335.132812 155.496094 322.734375 167.355469 322.53125 181.894531 C 322.410156 188.914062 325.132812 195.605469 330.167969 200.714844 C 335.367188 205.875 342.300781 208.8125 350.054688 208.847656 " fill-opacity="1" fill-rule="nonzero"/><path fill="#fffed4" d="M 391.246094 218.03125 C 391.035156 231.203125 401.789062 241.980469 415.210938 242.128906 C 428.660156 242.269531 439.679688 231.714844 439.890625 218.585938 C 440.09375 205.414062 429.3125 194.605469 415.894531 194.464844 C 402.492188 194.308594 391.421875 204.875 391.246094 218.03125 " fill-opacity="1" fill-rule="nonzero"/><path fill="#104a05" d="M 423.824219 215.535156 L 418.28125 215.535156 L 418.28125 195.714844 L 423.824219 195.714844 L 423.824219 215.535156 " fill-opacity="1" fill-rule="nonzero"/><path fill="#308f65" d="M 415.664062 195.855469 C 421.800781 195.898438 427.359375 198.285156 431.519531 202.5 C 435.820312 206.789062 438.117188 212.476562 438.039062 218.546875 C 437.867188 230.757812 427.78125 240.808594 415.492188 240.730469 C 409.335938 240.6875 403.773438 238.308594 399.628906 234.128906 C 395.3125 229.824219 392.980469 224.113281 393.101562 218.046875 C 393.265625 205.835938 403.382812 195.777344 415.664062 195.855469 Z M 415.492188 244.976562 C 430.554688 245.058594 442.957031 233.140625 443.195312 218.601562 C 443.277344 211.566406 440.546875 204.835938 435.472656 199.78125 C 430.339844 194.589844 423.390625 191.671875 415.949219 191.632812 C 400.578125 191.632812 388.191406 203.464844 387.957031 218.003906 C 387.859375 225.0625 390.582031 231.753906 395.621094 236.800781 C 400.800781 242.019531 407.742188 244.9375 415.492188 244.976562 " fill-opacity="1" fill-rule="nonzero"/><path fill="#fffed4" d="M 254.511719 218.03125 C 254.292969 231.203125 265.027344 241.980469 278.480469 242.128906 C 291.914062 242.269531 302.945312 231.714844 303.15625 218.585938 C 303.347656 205.414062 292.605469 194.605469 279.175781 194.464844 C 265.75 194.308594 254.683594 204.875 254.511719 218.03125 " fill-opacity="1" fill-rule="nonzero"/><path fill="#104a05" d="M 287.078125 215.535156 L 281.558594 215.535156 L 281.558594 195.714844 L 287.078125 195.714844 L 287.078125 215.535156 " fill-opacity="1" fill-rule="nonzero"/><path fill="#308f65" d="M 278.90625 195.855469 C 285.042969 195.898438 290.625 198.285156 294.808594 202.5 C 299.085938 206.789062 301.382812 212.476562 301.300781 218.546875 C 301.121094 230.757812 291.027344 240.8125 278.730469 240.730469 C 272.613281 240.6875 267.015625 238.308594 262.886719 234.128906 C 258.570312 229.824219 256.253906 224.113281 256.367188 218.046875 C 256.527344 205.835938 266.644531 195.777344 278.90625 195.855469 Z M 278.742188 244.976562 C 293.804688 245.058594 306.222656 233.140625 306.46875 218.601562 C 306.519531 211.566406 303.800781 204.835938 298.746094 199.78125 C 293.597656 194.589844 286.660156 191.671875 279.214844 191.632812 C 263.8125 191.632812 251.429688 203.464844 251.226562 218.003906 C 251.097656 225.0625 253.839844 231.753906 258.875 236.800781 C 264.066406 242.019531 271.007812 244.9375 278.742188 244.976562 " fill-opacity="1" fill-rule="nonzero"/><path fill="#308f65" d="M 303.15625 180.695312 L 274.660156 180.695312 L 274.660156 173.699219 L 303.15625 173.699219 L 303.15625 180.695312 " fill-opacity="1" fill-rule="nonzero"/><path fill="#308f65" d="M 369.871094 145.515625 L 341.378906 145.515625 L 341.378906 138.53125 L 369.871094 138.53125 L 369.871094 145.515625 " fill-opacity="1" fill-rule="nonzero"/><path fill="#308f65" d="M 429.820312 183.429688 L 401.324219 183.429688 L 401.324219 176.4375 L 429.820312 176.4375 L 429.820312 183.429688 " fill-opacity="1" fill-rule="nonzero"/><path fill="#ffffff" d="M 366.578125 247.003906 L 317.054688 247.003906 L 317.054688 231.742188 L 366.578125 231.742188 L 366.578125 247.003906 " fill-opacity="1" fill-rule="nonzero"/><path fill="#dd9037" d="M 329.496094 248.988281 L 327.113281 248.988281 L 327.113281 230.023438 L 329.496094 230.023438 L 329.496094 248.988281 " fill-opacity="1" fill-rule="nonzero"/><path fill="#dd9037" d="M 343.007812 248.453125 L 340.605469 248.453125 L 340.605469 229.5 L 343.007812 229.5 L 343.007812 248.453125 " fill-opacity="1" fill-rule="nonzero"/><path fill="#dd9037" d="M 356.878906 247.613281 L 354.480469 247.613281 L 354.480469 228.652344 L 356.878906 228.652344 L 356.878906 247.613281 " fill-opacity="1" fill-rule="nonzero"/><path fill="#308f65" d="M 361.125 283.742188 L 324.882812 283.742188 L 324.882812 271.316406 L 361.125 271.316406 L 361.125 283.742188 " fill-opacity="1" fill-rule="nonzero"/><path fill="#308f65" d="M 361.125 304.730469 L 324.882812 304.730469 L 324.882812 292.332031 L 361.125 292.332031 L 361.125 304.730469 " fill-opacity="1" fill-rule="nonzero"/><path fill="#308f65" d="M 361.125 326.679688 L 324.882812 326.679688 L 324.882812 314.308594 L 361.125 314.308594 L 361.125 326.679688 " fill-opacity="1" fill-rule="nonzero"/><path fill="#fbb937" d="M 448.632812 73.121094 C 440.296875 64.34375 426.351562 63.988281 417.550781 72.296875 L 412.324219 66.757812 C 424.15625 55.535156 442.945312 56.039062 454.148438 67.871094 L 448.632812 73.121094 " fill-opacity="1" fill-rule="nonzero"/><path fill="#fbb937" d="M 466.847656 55.808594 C 448.960938 37.007812 419.117188 36.199219 400.269531 54.085938 L 395.019531 48.53125 C 405.628906 38.464844 419.671875 33.398438 434.117188 33.527344 C 448.726562 33.917969 462.320312 39.953125 472.367188 50.578125 L 466.847656 55.808594 " fill-opacity="1" fill-rule="nonzero"/><path fill="#fbb937" d="M 485.074219 38.53125 C 457.6875 9.660156 411.863281 8.445312 382.96875 35.859375 L 377.726562 30.324219 C 409.65625 0.015625 460.300781 1.339844 490.621094 33.277344 L 485.074219 38.53125 " fill-opacity="1" fill-rule="nonzero"/><g clip-path="url(#9f1a15b523)"><path fill="#fbb937" d="M 92.578125 365.28125 C 81.375 377.824219 62.109375 378.875 49.601562 367.707031 L 57.71875 358.609375 C 65.203125 365.320312 76.78125 364.691406 83.46875 357.191406 L 92.578125 365.28125 " fill-opacity="1" fill-rule="nonzero"/></g><path fill="#fbb937" d="M 107.753906 355.332031 L 98.695312 347.191406 C 105.390625 339.679688 104.730469 328.132812 97.230469 321.421875 L 105.335938 312.339844 C 117.84375 323.503906 118.9375 342.808594 107.753906 355.332031 " fill-opacity="1" fill-rule="nonzero"/><path fill="#2e9f6f" d="M 107.15625 346.851562 C 113.714844 352.746094 114.261719 362.867188 108.378906 369.449219 C 102.535156 376.007812 92.414062 376.578125 85.867188 370.710938 C 79.300781 364.820312 78.699219 354.738281 84.589844 348.152344 C 90.445312 341.558594 100.570312 341.007812 107.15625 346.851562 " fill-opacity="1" fill-rule="nonzero"/><path fill="#308f65" d="M 144.527344 154.164062 C 144.527344 154.164062 150.078125 137.523438 165.375 131.628906 C 167.144531 133.480469 170.320312 139.488281 170.320312 139.488281 C 170.320312 139.488281 147.578125 150.273438 149.972656 159.785156 C 147.824219 158.632812 144.527344 154.164062 144.527344 154.164062 " fill-opacity="1" fill-rule="nonzero"/><path fill="#308f65" d="M 151.652344 159.511719 C 151.652344 159.511719 161.28125 143.570312 179.355469 139.414062 C 180.914062 141.457031 183.164062 147.757812 183.164062 147.757812 C 183.164062 147.757812 155.875 155.964844 156.484375 165.652344 C 154.355469 164.292969 151.652344 159.511719 151.652344 159.511719 " fill-opacity="1" fill-rule="nonzero"/><path fill="#308f65" d="M 156.863281 168.414062 C 156.863281 168.414062 166.390625 154.367188 183.386719 152.644531 C 184.746094 154.78125 186.601562 161.125 186.601562 161.125 C 186.601562 161.125 160.867188 165.558594 161.105469 174.9375 C 159.164062 173.34375 156.863281 168.414062 156.863281 168.414062 " fill-opacity="1" fill-rule="nonzero"/><path fill="#308f65" d="M 159.410156 182.667969 C 159.410156 182.667969 178.023438 186.199219 190.992188 176.679688 C 190.054688 174.375 185.832031 168.949219 185.832031 168.949219 C 185.832031 168.949219 164.578125 182.054688 156.632812 175.582031 C 156.726562 177.882812 159.410156 182.667969 159.410156 182.667969 " fill-opacity="1" fill-rule="nonzero"/><path fill="#fbb937" d="M 146.09375 150.46875 C 134.941406 159.039062 131.449219 172.847656 138.289062 181.273438 C 145.148438 189.761719 159.726562 189.636719 170.851562 181.042969 L 146.09375 150.46875 " fill-opacity="1" fill-rule="nonzero"/><g clip-path="url(#d08d721810)"><path fill="#2e9f6f" d="M 298.21875 555.214844 C 277.648438 555.214844 261.003906 570.78125 261.003906 590.03125 L 335.421875 590.03125 C 335.421875 570.78125 318.757812 555.214844 298.21875 555.214844 " fill-opacity="1" fill-rule="nonzero"/></g><g clip-path="url(#56990df784)"><path fill="#2e9f6f" d="M 423.824219 555.214844 C 403.296875 555.214844 386.625 570.78125 386.625 590.03125 L 461.027344 590.03125 C 461.027344 570.78125 444.371094 555.214844 423.824219 555.214844 " fill-opacity="1" fill-rule="nonzero"/></g></svg>