<svg xmlns="http://www.w3.org/2000/svg" xmlns:xlink="http://www.w3.org/1999/xlink" width="940" zoomAndPan="magnify" viewBox="0 0 705 591.000005" height="788" preserveAspectRatio="xMidYMid meet" version="1.0"><defs><clipPath id="f0f4aeb9df"><path d="M 468 550 L 645.40625 550 L 645.40625 590 L 468 590 Z M 468 550 " clip-rule="nonzero"/></clipPath><clipPath id="71e3dfdc8f"><path d="M 55.402344 550 L 233 550 L 233 590 L 55.402344 590 Z M 55.402344 550 " clip-rule="nonzero"/></clipPath><clipPath id="b04fed77a6"><path d="M 55.402344 550 L 184 550 L 184 571 L 55.402344 571 Z M 55.402344 550 " clip-rule="nonzero"/></clipPath></defs><path fill="#ba4753" d="M 350.402344 0 C 348.90625 -0.00390625 347.433594 0.1875 345.988281 0.574219 C 344.542969 0.960938 343.171875 1.527344 341.878906 2.277344 C 340.582031 3.027344 339.40625 3.933594 338.351562 4.996094 C 337.296875 6.054688 336.394531 7.234375 335.652344 8.535156 L 225.636719 201.121094 C 223.59375 204.710938 222.574219 208.566406 222.570312 212.695312 C 222.570312 213.457031 222.605469 214.21875 222.683594 214.980469 C 222.757812 215.738281 222.867188 216.492188 223.019531 217.242188 C 223.167969 217.992188 223.351562 218.730469 223.574219 219.460938 C 223.792969 220.191406 224.050781 220.910156 224.34375 221.613281 C 224.636719 222.320312 224.960938 223.007812 225.320312 223.679688 C 225.679688 224.355469 226.074219 225.007812 226.496094 225.644531 C 226.921875 226.277344 227.375 226.890625 227.859375 227.480469 C 228.34375 228.070312 228.855469 228.636719 229.394531 229.175781 C 229.933594 229.714844 230.5 230.226562 231.089844 230.710938 C 231.679688 231.195312 232.292969 231.648438 232.925781 232.074219 C 233.5625 232.496094 234.214844 232.890625 234.890625 233.25 C 235.5625 233.609375 236.25 233.933594 236.957031 234.226562 C 237.660156 234.519531 238.378906 234.777344 239.109375 234.996094 C 239.839844 235.21875 240.578125 235.402344 241.328125 235.554688 C 242.078125 235.703125 242.832031 235.8125 243.589844 235.886719 C 244.351562 235.964844 245.113281 236 245.875 236 L 454.933594 236 C 455.695312 236 456.457031 235.964844 457.214844 235.886719 C 457.976562 235.8125 458.730469 235.703125 459.480469 235.554688 C 460.226562 235.402344 460.96875 235.21875 461.699219 234.996094 C 462.425781 234.777344 463.144531 234.519531 463.851562 234.226562 C 464.554688 233.933594 465.246094 233.609375 465.917969 233.25 C 466.589844 232.890625 467.246094 232.496094 467.878906 232.074219 C 468.515625 231.648438 469.125 231.195312 469.714844 230.710938 C 470.308594 230.226562 470.871094 229.714844 471.410156 229.175781 C 471.949219 228.636719 472.464844 228.070312 472.945312 227.480469 C 473.429688 226.890625 473.886719 226.277344 474.308594 225.644531 C 474.734375 225.007812 475.125 224.355469 475.484375 223.679688 C 475.84375 223.007812 476.171875 222.320312 476.464844 221.613281 C 476.753906 220.910156 477.011719 220.191406 477.234375 219.460938 C 477.457031 218.730469 477.640625 217.992188 477.789062 217.242188 C 477.9375 216.492188 478.050781 215.738281 478.125 214.980469 C 478.199219 214.21875 478.238281 213.457031 478.238281 212.695312 C 478.234375 208.566406 477.210938 204.710938 475.167969 201.121094 L 365.152344 8.535156 C 364.410156 7.234375 363.511719 6.054688 362.457031 4.996094 C 361.402344 3.933594 360.226562 3.027344 358.929688 2.277344 C 357.632812 1.527344 356.261719 0.960938 354.816406 0.574219 C 353.371094 0.1875 351.898438 -0.00390625 350.402344 0 Z M 350.402344 0 " fill-opacity="1" fill-rule="nonzero"/><path fill="#e1656e" d="M 365.152344 8.535156 C 364.414062 7.238281 363.515625 6.058594 362.464844 5 C 361.410156 3.941406 360.238281 3.035156 358.945312 2.289062 C 357.65625 1.539062 356.289062 0.96875 354.847656 0.582031 C 353.402344 0.191406 351.9375 0 350.441406 0 C 348.949219 0 347.480469 0.191406 346.039062 0.582031 C 344.597656 0.96875 343.230469 1.539062 341.9375 2.289062 C 340.648438 3.035156 339.476562 3.941406 338.421875 5 C 337.371094 6.058594 336.472656 7.238281 335.730469 8.535156 L 225.636719 201.121094 C 224.28125 203.410156 223.371094 205.863281 222.90625 208.484375 C 222.441406 211.101562 222.449219 213.71875 222.933594 216.332031 L 389.738281 216.332031 C 390.382812 216.332031 391.023438 216.300781 391.664062 216.238281 C 392.304688 216.175781 392.941406 216.082031 393.574219 215.957031 C 394.207031 215.832031 394.828125 215.675781 395.445312 215.488281 C 396.0625 215.300781 396.667969 215.082031 397.261719 214.835938 C 397.859375 214.589844 398.441406 214.316406 399.007812 214.011719 C 399.574219 213.707031 400.128906 213.378906 400.664062 213.019531 C 401.199219 212.660156 401.714844 212.277344 402.214844 211.871094 C 402.710938 211.460938 403.1875 211.027344 403.644531 210.574219 C 404.097656 210.117188 404.53125 209.640625 404.941406 209.144531 C 405.347656 208.644531 405.730469 208.128906 406.089844 207.59375 C 406.445312 207.058594 406.777344 206.507812 407.082031 205.9375 C 407.386719 205.371094 407.660156 204.789062 407.90625 204.191406 C 408.152344 203.597656 408.371094 202.992188 408.558594 202.375 C 408.742188 201.761719 408.898438 201.136719 409.027344 200.503906 C 409.152344 199.871094 409.246094 199.234375 409.308594 198.59375 C 409.371094 197.953125 409.402344 197.3125 409.402344 196.667969 L 409.402344 86.042969 Z M 365.152344 8.535156 " fill-opacity="1" fill-rule="nonzero"/><path fill="#4c506e" d="M 566.738281 393.335938 L 547.070312 393.335938 L 547.070312 363.835938 L 153.734375 363.835938 L 153.734375 393.335938 L 134.070312 393.335938 L 134.070312 354 C 134.070312 353.355469 134.132812 352.714844 134.257812 352.082031 C 134.382812 351.449219 134.570312 350.835938 134.816406 350.238281 C 135.066406 349.640625 135.367188 349.074219 135.726562 348.539062 C 136.085938 348 136.492188 347.503906 136.949219 347.046875 C 137.40625 346.589844 137.902344 346.183594 138.441406 345.824219 C 138.976562 345.464844 139.542969 345.164062 140.140625 344.917969 C 140.738281 344.667969 141.351562 344.484375 141.984375 344.355469 C 142.617188 344.230469 143.257812 344.167969 143.902344 344.167969 L 556.902344 344.167969 C 557.550781 344.167969 558.1875 344.230469 558.824219 344.355469 C 559.457031 344.484375 560.070312 344.667969 560.667969 344.917969 C 561.261719 345.164062 561.832031 345.464844 562.367188 345.824219 C 562.902344 346.183594 563.402344 346.589844 563.855469 347.046875 C 564.3125 347.503906 564.722656 348 565.082031 348.539062 C 565.4375 349.074219 565.742188 349.640625 565.988281 350.238281 C 566.234375 350.835938 566.421875 351.449219 566.546875 352.082031 C 566.675781 352.714844 566.738281 353.355469 566.738281 354 Z M 566.738281 393.335938 " fill-opacity="1" fill-rule="nonzero"/><path fill="#363a4f" d="M 340.570312 265.5 L 360.238281 265.5 L 360.238281 393.335938 L 340.570312 393.335938 Z M 340.570312 265.5 " fill-opacity="1" fill-rule="nonzero"/><path fill="#ffffff" d="M 340.570312 39.332031 L 360.238281 39.332031 L 360.238281 167.167969 L 340.570312 167.167969 Z M 340.570312 39.332031 " fill-opacity="1" fill-rule="nonzero"/><path fill="#ffffff" d="M 340.570312 186.832031 L 360.238281 186.832031 L 360.238281 206.5 L 340.570312 206.5 Z M 340.570312 186.832031 " fill-opacity="1" fill-rule="nonzero"/><path fill="#4c506e" d="M 488.070312 393.335938 L 625.738281 393.335938 L 625.738281 550.667969 L 488.070312 550.667969 Z M 488.070312 393.335938 " fill-opacity="1" fill-rule="nonzero"/><path fill="#787faa" d="M 488.070312 393.335938 L 488.070312 531 L 576.570312 531 C 577.214844 531 577.859375 530.96875 578.5 530.90625 C 579.140625 530.84375 579.777344 530.75 580.40625 530.625 C 581.039062 530.496094 581.664062 530.339844 582.28125 530.15625 C 582.894531 529.96875 583.5 529.75 584.097656 529.503906 C 584.691406 529.257812 585.273438 528.984375 585.839844 528.679688 C 586.410156 528.375 586.960938 528.042969 587.496094 527.6875 C 588.03125 527.328125 588.550781 526.945312 589.046875 526.539062 C 589.546875 526.128906 590.023438 525.695312 590.476562 525.242188 C 590.933594 524.785156 591.363281 524.308594 591.773438 523.8125 C 592.183594 523.3125 592.566406 522.796875 592.921875 522.261719 C 593.28125 521.726562 593.613281 521.171875 593.914062 520.605469 C 594.21875 520.039062 594.492188 519.457031 594.742188 518.859375 C 594.988281 518.265625 595.203125 517.660156 595.390625 517.042969 C 595.578125 516.425781 595.734375 515.804688 595.859375 515.171875 C 595.984375 514.539062 596.078125 513.902344 596.144531 513.261719 C 596.207031 512.621094 596.238281 511.980469 596.238281 511.335938 L 596.238281 393.335938 " fill-opacity="1" fill-rule="nonzero"/><g clip-path="url(#f0f4aeb9df)"><path fill="#2c2f41" d="M 468.402344 550.667969 L 645.40625 550.667969 L 645.40625 590 L 468.402344 590 Z M 468.402344 550.667969 " fill-opacity="1" fill-rule="nonzero"/></g><path fill="#e2e7f6" d="M 507.738281 413 L 527.402344 413 L 527.402344 432.667969 L 507.738281 432.667969 Z M 507.738281 413 " fill-opacity="1" fill-rule="nonzero"/><path fill="#e2e7f6" d="M 537.238281 413 L 556.902344 413 L 556.902344 432.667969 L 537.238281 432.667969 Z M 537.238281 413 " fill-opacity="1" fill-rule="nonzero"/><path fill="#e2e7f6" d="M 566.738281 413 L 586.402344 413 L 586.402344 432.667969 L 566.738281 432.667969 Z M 566.738281 413 " fill-opacity="1" fill-rule="nonzero"/><path fill="#e2e7f6" d="M 507.738281 442.5 L 606.070312 442.5 L 606.070312 462.167969 L 507.738281 462.167969 Z M 507.738281 442.5 " fill-opacity="1" fill-rule="nonzero"/><path fill="#363a4f" d="M 468.402344 550.667969 L 468.402344 570.335938 L 586.402344 570.335938 C 587.050781 570.335938 587.6875 570.273438 588.324219 570.144531 C 588.957031 570.019531 589.570312 569.832031 590.167969 569.585938 C 590.765625 569.339844 591.332031 569.035156 591.867188 568.675781 C 592.402344 568.320312 592.902344 567.910156 593.359375 567.453125 C 593.8125 567 594.222656 566.5 594.582031 565.964844 C 594.9375 565.429688 595.242188 564.859375 595.488281 564.265625 C 595.734375 563.667969 595.921875 563.054688 596.046875 562.421875 C 596.175781 561.785156 596.238281 561.148438 596.238281 560.5 L 596.238281 550.667969 Z M 468.402344 550.667969 " fill-opacity="1" fill-rule="nonzero"/><path fill="#4c506e" d="M 281.570312 393.335938 L 419.238281 393.335938 L 419.238281 550.667969 L 281.570312 550.667969 Z M 281.570312 393.335938 " fill-opacity="1" fill-rule="nonzero"/><path fill="#787faa" d="M 281.570312 393.335938 L 281.570312 531 L 370.070312 531 C 370.714844 531 371.355469 530.96875 371.996094 530.90625 C 372.640625 530.84375 373.273438 530.75 373.90625 530.625 C 374.539062 530.496094 375.164062 530.339844 375.777344 530.15625 C 376.394531 529.96875 377 529.75 377.597656 529.503906 C 378.191406 529.257812 378.773438 528.984375 379.339844 528.679688 C 379.910156 528.375 380.460938 528.042969 380.996094 527.6875 C 381.53125 527.328125 382.046875 526.945312 382.546875 526.539062 C 383.042969 526.128906 383.519531 525.695312 383.976562 525.242188 C 384.433594 524.785156 384.863281 524.308594 385.273438 523.8125 C 385.679688 523.3125 386.066406 522.796875 386.421875 522.261719 C 386.78125 521.726562 387.109375 521.171875 387.414062 520.605469 C 387.71875 520.039062 387.992188 519.457031 388.238281 518.859375 C 388.488281 518.265625 388.703125 517.660156 388.890625 517.042969 C 389.078125 516.425781 389.234375 515.804688 389.359375 515.171875 C 389.484375 514.539062 389.578125 513.902344 389.640625 513.261719 C 389.707031 512.621094 389.738281 511.980469 389.738281 511.335938 L 389.738281 393.335938 " fill-opacity="1" fill-rule="nonzero"/><path fill="#2c2f41" d="M 261.902344 550.667969 L 438.902344 550.667969 L 438.902344 590 L 261.902344 590 Z M 261.902344 550.667969 " fill-opacity="1" fill-rule="nonzero"/><path fill="#e2e7f6" d="M 301.238281 413 L 320.902344 413 L 320.902344 432.667969 L 301.238281 432.667969 Z M 301.238281 413 " fill-opacity="1" fill-rule="nonzero"/><path fill="#e2e7f6" d="M 330.738281 413 L 350.402344 413 L 350.402344 432.667969 L 330.738281 432.667969 Z M 330.738281 413 " fill-opacity="1" fill-rule="nonzero"/><path fill="#e2e7f6" d="M 360.238281 413 L 379.902344 413 L 379.902344 432.667969 L 360.238281 432.667969 Z M 360.238281 413 " fill-opacity="1" fill-rule="nonzero"/><path fill="#e2e7f6" d="M 301.238281 442.5 L 399.570312 442.5 L 399.570312 462.167969 L 301.238281 462.167969 Z M 301.238281 442.5 " fill-opacity="1" fill-rule="nonzero"/><path fill="#363a4f" d="M 261.902344 550.667969 L 261.902344 570.335938 L 379.902344 570.335938 C 380.550781 570.335938 381.1875 570.273438 381.820312 570.144531 C 382.457031 570.019531 383.070312 569.832031 383.667969 569.585938 C 384.261719 569.339844 384.828125 569.035156 385.367188 568.675781 C 385.902344 568.320312 386.398438 567.910156 386.855469 567.453125 C 387.3125 567 387.722656 566.5 388.078125 565.964844 C 388.4375 565.429688 388.742188 564.859375 388.988281 564.265625 C 389.234375 563.667969 389.421875 563.054688 389.546875 562.421875 C 389.675781 561.785156 389.738281 561.148438 389.738281 560.5 L 389.738281 550.667969 Z M 261.902344 550.667969 " fill-opacity="1" fill-rule="nonzero"/><path fill="#4c506e" d="M 75.070312 393.335938 L 212.738281 393.335938 L 212.738281 550.667969 L 75.070312 550.667969 Z M 75.070312 393.335938 " fill-opacity="1" fill-rule="nonzero"/><path fill="#787faa" d="M 75.070312 393.335938 L 75.070312 531 L 163.570312 531 C 164.214844 531 164.855469 530.96875 165.496094 530.90625 C 166.136719 530.84375 166.773438 530.75 167.40625 530.625 C 168.039062 530.496094 168.664062 530.339844 169.277344 530.15625 C 169.894531 529.96875 170.5 529.75 171.097656 529.503906 C 171.691406 529.257812 172.273438 528.984375 172.839844 528.679688 C 173.410156 528.375 173.960938 528.042969 174.496094 527.6875 C 175.03125 527.328125 175.546875 526.945312 176.046875 526.539062 C 176.542969 526.128906 177.019531 525.695312 177.476562 525.242188 C 177.929688 524.785156 178.363281 524.308594 178.773438 523.8125 C 179.179688 523.3125 179.5625 522.796875 179.921875 522.261719 C 180.28125 521.726562 180.609375 521.171875 180.914062 520.605469 C 181.21875 520.039062 181.492188 519.457031 181.738281 518.859375 C 181.984375 518.265625 182.203125 517.660156 182.390625 517.042969 C 182.578125 516.425781 182.734375 515.804688 182.859375 515.171875 C 182.984375 514.539062 183.078125 513.902344 183.140625 513.261719 C 183.203125 512.621094 183.238281 511.980469 183.238281 511.335938 L 183.238281 393.335938 " fill-opacity="1" fill-rule="nonzero"/><g clip-path="url(#71e3dfdc8f)"><path fill="#2c2f41" d="M 55.402344 550.667969 L 232.402344 550.667969 L 232.402344 590 L 55.402344 590 Z M 55.402344 550.667969 " fill-opacity="1" fill-rule="nonzero"/></g><path fill="#e2e7f6" d="M 94.734375 413 L 114.402344 413 L 114.402344 432.667969 L 94.734375 432.667969 Z M 94.734375 413 " fill-opacity="1" fill-rule="nonzero"/><path fill="#e2e7f6" d="M 124.234375 413 L 143.902344 413 L 143.902344 432.667969 L 124.234375 432.667969 Z M 124.234375 413 " fill-opacity="1" fill-rule="nonzero"/><path fill="#e2e7f6" d="M 153.734375 413 L 173.402344 413 L 173.402344 432.667969 L 153.734375 432.667969 Z M 153.734375 413 " fill-opacity="1" fill-rule="nonzero"/><path fill="#e2e7f6" d="M 94.734375 442.5 L 193.070312 442.5 L 193.070312 462.167969 L 94.734375 462.167969 Z M 94.734375 442.5 " fill-opacity="1" fill-rule="nonzero"/><g clip-path="url(#b04fed77a6)"><path fill="#363a4f" d="M 55.402344 550.667969 L 55.402344 570.335938 L 173.402344 570.335938 C 174.046875 570.335938 174.6875 570.273438 175.320312 570.144531 C 175.953125 570.019531 176.570312 569.832031 177.167969 569.585938 C 177.761719 569.339844 178.328125 569.035156 178.867188 568.675781 C 179.402344 568.320312 179.898438 567.910156 180.355469 567.453125 C 180.8125 567 181.21875 566.5 181.578125 565.964844 C 181.9375 565.429688 182.242188 564.859375 182.488281 564.265625 C 182.734375 563.667969 182.921875 563.054688 183.046875 562.421875 C 183.171875 561.785156 183.238281 561.148438 183.238281 560.5 L 183.238281 550.667969 Z M 55.402344 550.667969 " fill-opacity="1" fill-rule="nonzero"/></g></svg>